<svg width="280" height="315" viewBox="0 0 280 315" fill="none" xmlns="http://www.w3.org/2000/svg">
<g clip-path="url(#clip0_6174_7982)">
<path d="M86.3035 223.71C86.4549 224.036 86.1521 224.656 86.0538 224.959C85.8721 225.527 85.6602 226.094 85.4559 226.654C84.9563 228.055 84.4568 229.447 83.9422 230.84C82.9658 233.511 81.9517 236.168 80.9148 238.817C79.0075 243.691 77.2516 248.868 74.1486 253.144C72.6651 255.188 70.9774 257.08 69.6832 259.259C68.389 261.439 67.3748 263.808 66.1033 266.01C65.7249 266.661 65.2253 267.895 64.4988 268.22C64.0371 268.425 63.4165 268.395 62.9245 268.455C62.0542 268.561 61.1838 268.667 60.3134 268.773C57.5206 269.114 54.7203 269.454 51.9275 269.795C45.5322 270.574 39.1293 271.354 32.7339 272.141C31.7197 272.262 30.8418 272.92 30.8418 274.033C30.8418 274.956 31.7122 276.046 32.7339 275.925C38.819 275.183 44.9116 274.442 50.9966 273.692C53.9786 273.329 56.9606 272.966 59.9426 272.603C61.4184 272.421 62.8943 272.254 64.3625 272.058C66.0352 271.838 67.178 271.195 68.1619 269.825C69.7059 267.683 70.7579 265.231 71.984 262.907C73.2101 260.584 74.7843 258.48 76.4115 256.376C80.0066 251.736 82.0198 246.264 84.1541 240.853C85.3802 237.75 86.5684 234.624 87.7113 231.491C88.3092 229.863 88.8919 228.236 89.4671 226.601C90.0423 224.967 90.3224 223.43 89.558 221.788C89.1266 220.865 87.7945 220.63 86.9695 221.107C86.0235 221.659 85.857 222.764 86.2884 223.695L86.3035 223.71Z" fill="#171717"/>
<path d="M142.773 228.441C141.963 234.48 140.525 240.391 138.981 246.28C137.437 252.168 135.802 258.419 134.213 264.482C132.623 270.544 131.057 276.531 129.482 282.555C129.104 283.993 128.726 285.431 128.355 286.869C127.999 288.232 127.711 289.67 127.121 290.956C125.978 293.454 123.481 295.338 121.551 297.208C116.616 301.991 111.59 306.668 106.467 311.24C104.65 312.867 107.329 315.531 109.146 313.919C113.808 309.749 118.402 305.503 122.905 301.166C125.047 299.1 127.401 297.094 129.217 294.725C131.034 292.356 131.624 289.299 132.381 286.43C135.628 274.041 138.875 261.651 142.122 249.262C143.931 242.367 145.618 235.502 146.564 228.433C146.701 227.419 145.596 226.541 144.672 226.541C143.537 226.541 142.916 227.419 142.78 228.433L142.773 228.441Z" fill="#171717"/>
<path d="M73.5439 91.2167C66.0511 98.2402 64.4391 103.372 61.283 110.645C58.4751 117.131 57.3398 123.958 55.9397 130.883C53.9946 140.503 55.6975 150.296 56.9538 160.029C58.4902 171.919 60.5791 183.87 65.3094 194.89C70.0397 205.909 77.6385 216.021 88.1057 221.871C99.2691 228.108 112.582 229.008 125.365 228.872C134.031 228.781 142.697 228.274 151.325 227.366C160.521 226.397 169.383 223.355 177.224 218.443L180.358 216.482C189.463 210.776 197.039 202.927 202.427 193.633C208.361 183.393 214.295 173.183 216.739 161.672C218.374 153.959 219.57 146.111 219.35 138.232C218.904 122.21 212.683 106.868 211.229 90.9139C209.602 72.9691 213.992 54.3582 208.717 37.1324C203.32 19.513 187.359 5.5946 169.172 2.65803C150.984 -0.286102 131.45 7.88784 120.771 22.9037C112.612 34.3775 109.668 48.7803 102.501 60.905C95.1216 73.3702 84.9647 82.3237 73.5515 91.2394" fill="#BECBEB"/>
<path d="M72.2115 89.8847C68.7073 93.1921 65.6648 96.9158 63.4472 101.207C61.2296 105.498 59.4283 109.714 57.9676 114.074C56.1436 119.5 55.0992 125.199 54.0396 130.815C52.927 136.726 53.0481 142.728 53.646 148.692C54.2439 154.656 55.0538 160.347 55.909 166.137C56.7642 171.927 57.786 177.429 59.2543 182.962C61.9411 193.058 66.1416 202.746 72.6656 210.965C79.0155 218.972 87.4619 224.808 97.2631 227.729C107.708 230.84 118.818 230.968 129.626 230.688C135.681 230.53 141.728 230.174 147.752 229.614C153.33 229.099 158.81 228.304 164.161 226.579C172.327 223.945 180.062 219.48 186.843 214.227C190.824 211.147 194.465 207.642 197.659 203.752C200.853 199.862 203.698 195.223 206.317 190.651C211.872 180.956 216.792 171.064 218.994 160.022C220.167 154.141 221.053 148.162 221.227 142.16C221.401 136.158 220.75 130.512 219.728 124.775C217.708 113.453 214.158 102.388 213.114 90.8989C212.069 79.4099 213.439 68.1783 213.28 56.8181C213.129 46.2903 211.449 35.7929 206.166 26.5442C197.114 10.7034 179.661 0.00158316 161.292 0.152952C152.044 0.228637 142.833 2.87003 134.871 7.55491C126.508 12.4744 119.9 19.5888 115.321 28.1109C110.364 37.3217 107.465 47.471 102.629 56.7424C97.7929 66.0137 91.2764 73.4536 83.7912 80.2425C80.0675 83.618 76.1622 86.7816 72.2115 89.8771C71.4092 90.5053 71.553 91.8903 72.2115 92.5564C73.0062 93.3511 74.0809 93.1845 74.8907 92.5564C82.7089 86.441 90.3531 80.0003 96.703 72.3334C99.8439 68.5416 102.705 64.4925 105.089 60.1709C107.473 55.8493 109.569 50.8617 111.507 46.0784C115.155 37.0568 118.689 27.6568 125.259 20.2775C131.162 13.64 138.928 8.75073 147.412 6.13204C155.896 3.51335 164.713 3.18034 173.175 5.42817C181.636 7.67601 189.114 12.1944 195.169 18.3021C201.458 24.6445 205.863 32.546 207.869 41.2497C210.344 51.9969 209.458 63.1604 209.102 74.0817C208.921 79.69 208.837 85.3133 209.352 90.9064C209.867 96.4995 210.911 101.964 212.115 107.421C214.521 118.304 217.549 129.188 217.496 140.419C217.473 146.171 216.739 151.878 215.664 157.517C214.589 163.155 213.242 168.059 211.116 173.092C208.989 178.125 206.378 182.931 203.683 187.669C201.193 192.036 198.726 196.418 195.585 200.362C192.444 204.305 189.122 207.605 185.345 210.64C182.59 212.857 179.6 214.727 176.603 216.604C172.668 219.071 168.505 221.122 164.108 222.62C159.082 224.331 153.936 225.239 148.661 225.746C137.308 226.836 125.751 227.464 114.353 226.745C104.302 226.117 94.1827 223.953 85.759 218.185C68.5483 206.401 62.5087 184.861 59.6024 165.342C58.7775 159.817 58.0055 154.255 57.4454 148.692C56.8853 143.129 56.6734 137.097 57.786 131.39C58.8985 125.684 59.8522 120.378 61.6308 115.08C63.0082 110.97 64.7944 106.83 66.8 102.986C68.8057 99.1409 71.6514 95.6292 74.9059 92.5639C76.6769 90.8913 73.9976 88.2196 72.2266 89.8847H72.2115Z" fill="#171717"/>
<path d="M211.388 89.0142C212.955 98.3385 219.35 107.572 222.189 117.146C222.514 118.244 222.855 119.402 223.657 120.219C224.315 120.885 225.208 121.256 226.086 121.596C241.806 127.712 259.153 130.724 272.647 140.835C274.343 142.107 275.985 143.515 277.052 145.339C278.119 147.163 278.528 149.486 277.665 151.416C276.303 154.444 272.542 155.412 269.249 155.889C251.304 158.47 232.8 157.108 215.422 151.923C211.335 150.705 207.279 149.267 203.048 148.676C201.897 148.517 200.709 148.404 199.687 147.874C198.719 147.367 197.969 146.519 197.319 145.634C195.389 143 194.147 139.942 192.929 136.915C189.795 129.135 186.662 121.362 183.529 113.581" fill="#BECBEB"/>
<path d="M209.564 89.514C210.76 96.3938 214.151 102.683 217.004 108.98C218.412 112.091 219.547 115.239 220.622 118.479C221.197 120.197 222.083 121.672 223.702 122.588C225.155 123.406 226.843 123.905 228.402 124.473C240.852 128.999 254.059 131.882 265.654 138.512C268.447 140.109 271.308 141.873 273.639 144.098C275.448 145.831 277.378 148.919 275.546 151.326C273.987 153.377 270.763 153.77 268.402 154.103C264.754 154.618 261.083 154.943 257.405 155.117C242.374 155.829 227.562 153.695 213.205 149.252C209.648 148.154 206.136 147.254 202.458 146.686C200.906 146.444 199.915 145.929 198.961 144.665C197.879 143.235 197.031 141.615 196.282 139.996C194.685 136.544 193.375 132.957 191.953 129.43C190.53 125.903 189.008 122.119 187.533 118.463C186.806 116.662 186.079 114.868 185.36 113.067C184.982 112.121 184.097 111.455 183.029 111.743C182.129 111.992 181.326 113.12 181.705 114.074C184.793 121.733 187.881 129.392 190.969 137.059C192.361 140.51 193.731 144.037 196.017 147.012C197.152 148.495 198.522 149.638 200.361 150.122C202.094 150.584 203.933 150.675 205.689 151.076C209.504 151.946 213.205 153.278 216.966 154.33C220.728 155.382 224.55 156.26 228.395 156.957C236.084 158.349 243.895 159.061 251.706 159.046C255.558 159.038 259.41 158.849 263.24 158.485C266.661 158.16 270.309 157.948 273.586 156.851C276.583 155.844 279.353 153.785 279.891 150.478C280.496 146.769 278.513 143.394 275.826 140.995C270.65 136.37 264.156 133.184 257.783 130.558C251.41 127.932 244.72 125.903 238.128 123.784C234.798 122.709 231.475 121.612 228.198 120.386C226.843 119.879 225.14 119.515 224.482 118.093C223.823 116.67 223.506 115.02 222.953 113.536C220.418 106.687 216.641 100.337 214.401 93.3739C213.886 91.7846 213.477 90.1649 213.19 88.515C213.016 87.5084 211.782 86.9407 210.859 87.1905C209.791 87.4857 209.36 88.5074 209.534 89.5216L209.564 89.514Z" fill="#171717"/>
<path d="M91.0501 75.7315C77.9945 77.4495 64.2123 81.8468 51.5276 85.3737C50.2258 85.737 48.9089 86.1078 47.5542 86.07C46.0026 86.0246 44.5192 85.4418 43.0736 84.8666C31.7663 80.4239 20.2017 76.6321 8.45545 73.5291C7.88025 73.3777 7.29748 73.2263 6.70714 73.2869C5.8292 73.3777 5.07235 73.9302 4.4593 74.5659C2.18119 76.9122 1.47733 80.4845 2.0828 83.6935C2.68828 86.9025 4.45173 89.7937 6.56334 92.2913C7.5094 93.4038 8.53114 94.4634 9.69668 95.3414C11.2861 96.5372 13.1176 97.3773 14.9265 98.2023C23.5167 102.123 32.0993 106.051 40.6896 109.971C43.6715 111.334 46.6989 112.711 49.9458 113.165C53.4803 113.665 57.0601 113.052 60.5643 112.401C74.0741 109.903 87.4778 106.883 100.882 103.856" fill="#BECBEB"/>
<path d="M91.0494 73.8397C77.0856 75.7015 63.7803 80.1896 50.21 83.7695C48.6736 84.1782 47.3188 84.2993 45.7825 83.8376C44.1098 83.3381 42.4902 82.6116 40.8629 81.9834C37.5177 80.7043 34.1422 79.4782 30.759 78.3127C23.9777 75.9816 17.1207 73.8851 10.1955 72.0233C8.35638 71.5313 6.58536 71.0167 4.78407 71.94C3.44445 72.6287 2.36972 73.9078 1.61288 75.1945C0.0462054 77.851 -0.294376 81.0449 0.227848 84.0496C0.787915 87.2359 2.46055 90.1195 4.42078 92.6398C6.54752 95.3644 9.04511 97.476 12.1558 98.9897C18.7479 102.199 25.499 105.105 32.1668 108.148C35.4818 109.661 38.7816 111.235 42.1344 112.681C45.4873 114.127 48.8401 115.209 52.4957 115.239C56.1513 115.269 59.8447 114.46 63.4473 113.779C67.0498 113.097 70.6827 112.371 74.2853 111.621C81.5662 110.115 88.8168 108.503 96.0673 106.876C97.8308 106.482 99.6018 106.081 101.365 105.68C103.742 105.143 102.735 101.495 100.359 102.032C86.5992 105.135 72.8322 108.291 58.9516 110.774C55.6366 111.364 52.2005 111.811 48.8779 111.046C45.5554 110.282 42.5961 108.776 39.5612 107.391C33.0901 104.439 26.6267 101.48 20.1556 98.528C17.1964 97.1733 14.0176 96.0002 11.3081 94.1837C8.87104 92.5565 6.85783 89.9908 5.45009 87.4402C4.16345 85.1243 3.36876 82.3769 3.90612 79.728C4.14831 78.517 4.59485 77.3288 5.36684 76.36C5.68471 75.9589 6.07827 75.5048 6.55509 75.2777C7.16056 74.9901 7.86443 75.3231 8.46991 75.4821C15.1075 77.2455 21.6769 79.236 28.1858 81.4309C31.4629 82.5359 34.7325 83.7014 37.9718 84.9199C39.5612 85.5178 41.143 86.1233 42.7172 86.7439C44.2915 87.3646 45.8581 87.9019 47.5459 87.9473C49.2337 87.9927 50.7928 87.5235 52.3519 87.0921C53.911 86.6607 55.4777 86.2141 57.0368 85.7676C60.2836 84.8443 63.5305 83.9058 66.7925 83.0051C73.2711 81.2114 79.7876 79.5312 86.41 78.3505C87.9539 78.078 89.4979 77.8207 91.0494 77.6164C92.0636 77.4801 92.9416 76.8444 92.9416 75.7242C92.9416 74.8085 92.0712 73.6959 91.0494 73.8321V73.8397Z" fill="#171717"/>
<path d="M131.723 25.0457C139.367 26.4307 148.108 28.9661 155.836 29.7154L131.723 25.0457Z" fill="#BECBEB"/>
<path d="M131.222 26.8697C139.442 28.3758 147.502 30.775 155.843 31.6075C156.864 31.7059 157.735 30.6615 157.735 29.7154C157.735 28.6104 156.864 27.9217 155.843 27.8233C147.85 27.0286 140.108 24.6672 132.229 23.2217C131.222 23.04 130.186 23.4941 129.898 24.5461C129.648 25.4619 130.208 26.688 131.222 26.8772V26.8697Z" fill="#171717"/>
<path d="M131.738 25.5225C131.95 27.2481 132.503 28.9358 133.343 30.4571C135.636 34.6046 140.427 37.4201 145.127 36.8146C149.479 36.2545 153.028 33.0909 155.836 29.7154" fill="#BECBEB"/>
<path d="M129.914 26.0295C130.731 32.0389 135.371 37.4503 141.463 38.5553C147.896 39.7209 153.255 35.7399 157.183 31.0626C157.841 30.283 157.947 29.1553 157.183 28.3833C156.509 27.7097 155.17 27.5962 154.504 28.3833C151.567 31.8875 147.45 35.755 142.47 34.9073C137.49 34.0597 134.22 29.8289 133.569 25.0305C133.433 24.0163 132.131 23.4638 131.238 23.706C130.148 24.0087 129.777 25.0154 129.914 26.0371V26.0295Z" fill="#171717"/>
<path d="M167.279 31.2291C170.519 30.7372 172.464 31.7059 175.007 31.8043C180.759 32.0314 187.26 33.9689 192.959 34.7939" fill="#BECBEB"/>
<path d="M167.778 33.053C169.602 32.8032 171.343 33.2422 173.137 33.4995C175.173 33.7947 177.231 33.8098 179.267 34.1277C183.687 34.8164 188.024 35.9669 192.452 36.6177C193.458 36.7691 194.487 36.368 194.783 35.2933C195.025 34.4002 194.48 33.1135 193.458 32.9622C188.804 32.281 184.255 31.0398 179.6 30.3738C177.526 30.0786 175.407 30.071 173.349 29.7229C171.108 29.3369 169.042 29.0947 166.772 29.405C165.758 29.5412 165.205 30.843 165.447 31.7361C165.75 32.8259 166.757 33.1968 167.778 33.0606V33.053Z" fill="#171717"/>
<path d="M167.279 31.2292L169.043 35.7325C169.383 36.5953 169.724 37.4732 170.307 38.1922C171.2 39.3048 172.539 39.9481 173.864 40.4855C176.49 41.5602 179.351 42.4003 182.144 41.8856C183.218 41.6889 184.248 41.2877 185.239 40.8261C188.221 39.4183 190.885 37.337 192.967 34.7864" fill="#BECBEB"/>
<path d="M165.455 31.7287C166.083 33.3257 166.689 34.9302 167.332 36.5196C167.922 37.9803 168.581 39.3578 169.83 40.3795C171.078 41.4012 172.516 41.9991 173.992 42.5668C175.468 43.1344 176.959 43.5734 178.526 43.7853C184.618 44.6178 190.56 40.6368 194.306 36.126C194.957 35.3389 195.078 34.2188 194.306 33.4468C193.632 32.7732 192.285 32.6597 191.627 33.4468C188.736 36.9283 184.089 40.6293 179.283 40.0919C178.041 39.9557 176.815 39.5772 175.642 39.1534C174.53 38.7523 173.311 38.3209 172.365 37.5867C171.495 36.9056 171.124 35.8687 170.73 34.8772C170.185 33.4922 169.648 32.1072 169.103 30.7221C168.732 29.7685 167.831 29.11 166.772 29.3976C165.864 29.6474 165.077 30.7675 165.447 31.7287H165.455Z" fill="#171717"/>
<path d="M137.316 18.4231C141.494 18.1582 147.92 18.5291 152.098 18.2642L137.316 18.4231Z" fill="#BECBEB"/>
<path d="M137.316 20.3155C142.235 20.0127 147.17 20.4517 152.097 20.1565C153.119 20.096 153.989 19.3316 153.989 18.2644C153.989 17.2881 153.119 16.3118 152.097 16.3723C147.178 16.675 142.243 16.2361 137.316 16.5312C136.294 16.5918 135.424 17.3562 135.424 18.4234C135.424 19.3997 136.294 20.376 137.316 20.3155Z" fill="#171717"/>
<path d="M174.182 20.4668C174.999 21.375 176.271 21.6853 177.459 21.9805C180.842 22.8206 184.149 23.9407 187.351 25.3258" fill="#BECBEB"/>
<path d="M172.842 21.7987C174.537 23.5697 177.239 23.827 179.479 24.4855C181.826 25.1742 184.149 25.9841 186.397 26.9528C187.336 27.3539 188.425 27.2328 188.985 26.2717C189.455 25.477 189.25 24.0844 188.304 23.6832C185.981 22.6842 183.619 21.7911 181.198 21.0494C180.062 20.7013 178.912 20.391 177.761 20.1034C177.292 19.9823 176.823 19.8687 176.376 19.7022C176.157 19.619 176.119 19.6038 176.263 19.6568C176.142 19.5963 176.021 19.5357 175.907 19.4676C175.718 19.3389 175.688 19.3238 175.801 19.4146C175.703 19.3238 175.604 19.233 175.514 19.1346C174.81 18.3929 173.546 18.4232 172.834 19.1346C172.123 19.846 172.123 21.0721 172.834 21.8138L172.842 21.7987Z" fill="#171717"/>
<path d="M138.776 43.5884C139.049 45.0869 139.261 46.5931 139.42 48.1068C139.48 48.7047 139.533 49.3328 139.299 49.8853C139.049 50.4605 138.527 50.8692 138.004 51.2174C134.213 53.7301 129.513 54.3129 124.994 54.8351" fill="#BECBEB"/>
<path d="M136.953 44.0956C137.104 44.9584 137.248 45.8212 137.369 46.6915C137.46 47.3954 137.748 48.4701 137.566 49.1437C137.536 49.2421 137.407 49.3329 137.187 49.507C137.339 49.3859 136.824 49.7341 136.854 49.7114C136.718 49.8022 136.582 49.8854 136.438 49.9687C135.78 50.3547 135.083 50.718 134.395 50.9829C131.375 52.1636 128.158 52.5722 124.995 52.9355C123.98 53.0491 123.103 53.7227 123.103 54.8276C123.103 55.7586 123.973 56.8409 124.995 56.7198C129.006 56.2581 133.025 55.751 136.741 54.0708C138.489 53.2761 140.654 52.1408 141.206 50.1503C141.517 49.0302 141.29 47.8268 141.146 46.6915C140.994 45.4882 140.813 44.2848 140.601 43.089C140.419 42.0823 139.193 41.5147 138.27 41.7645C137.21 42.0596 136.771 43.0814 136.945 44.0956H136.953Z" fill="#171717"/>
<path d="M155.858 68.9883C156.07 78.7895 163.048 71.2361 163.457 70.1993C164.093 68.5796 165.221 66.6648 165.417 65.5674C165.993 62.3508 166.802 61.8058 166.712 57.8854C166.674 56.2279 166.167 52.4058 166.121 50.7483" fill="#BECBEB"/>
<path d="M153.967 68.9883C154.042 71.4556 154.489 74.9371 157.335 75.7167C159.356 76.2692 161.323 75.0279 162.799 73.7791C163.344 73.3175 163.851 72.8104 164.305 72.2579C164.941 71.4935 165.221 70.8047 165.645 69.9041C166.038 69.064 166.447 68.2314 166.803 67.3762C167.128 66.5891 167.28 65.8095 167.469 64.977C167.757 63.7282 168.196 62.5248 168.392 61.2609C168.945 57.734 168.143 54.2752 168.021 50.7483C167.938 48.3188 164.154 48.3112 164.237 50.7483C164.32 53.1853 164.812 55.7359 164.835 58.2411C164.843 59.5656 164.737 60.61 164.396 61.8664C164.056 63.1227 163.844 64.364 163.473 65.5598C163.284 66.1577 162.988 66.7178 162.716 67.2778C162.534 67.6562 162.36 68.0271 162.186 68.4055C162.103 68.5872 162.027 68.7764 161.944 68.9656C161.899 69.064 161.611 69.624 161.808 69.291C161.732 69.4273 161.626 69.5484 161.558 69.677C161.838 69.1775 161.709 69.4954 161.573 69.6467C161.467 69.7678 161.361 69.8889 161.255 70.0025C161.051 70.2295 160.839 70.4414 160.619 70.6534C160.491 70.7745 160.362 70.888 160.233 71.0015C160.15 71.0696 159.719 71.4178 159.908 71.274C160.128 71.1075 159.666 71.4405 159.605 71.4783C159.477 71.5616 159.348 71.6448 159.212 71.7205C159.06 71.8038 158.909 71.8794 158.758 71.9551C159.234 71.7129 158.72 71.9551 158.584 72.0005C158.069 72.1973 158.705 72.0005 158.478 72.0384C158.145 72.0989 158.129 71.9778 158.402 72.0535C158.023 71.9476 158.788 72.1443 158.319 72.0157C158.387 72.0384 158.621 72.3336 158.432 72.0989C158.394 72.0535 158.16 71.7811 158.334 72.0081C158.47 72.1822 158.167 71.6978 158.114 71.5767C158.266 71.9249 158.016 71.1907 157.993 71.0848C157.819 70.3733 157.789 69.7224 157.766 68.9656C157.69 66.5361 153.906 66.5285 153.982 68.9656L153.967 68.9883Z" fill="#171717"/>
<path d="M139.699 34.0599C139.517 32.6522 140.146 31.1764 141.281 30.3287C142.416 29.481 144.021 29.3145 145.307 29.8973C145.716 30.0789 146.102 30.3438 146.367 30.7071C146.609 31.0401 146.745 31.4337 146.791 31.8424C146.934 33.076 146.223 34.3703 145.103 34.9076C143.983 35.445 142.53 35.2028 141.652 34.3248C141.319 33.9918 141.069 33.4393 141.372 33.076C141.5 32.9247 141.689 32.849 141.879 32.7884C142.575 32.5917 143.339 32.6371 144.013 32.9171" fill="#BECBEB"/>
<path d="M141.592 34.0597C141.554 33.7645 141.516 33.4012 141.592 33.106C141.592 33.1287 141.494 33.598 141.577 33.2953C141.592 33.2271 141.607 33.159 141.622 33.0909C141.668 32.9168 141.743 32.7579 141.789 32.5838C141.781 32.6141 141.577 33.0077 141.728 32.7428C141.766 32.6822 141.789 32.6141 141.827 32.5535C141.895 32.4325 141.978 32.3114 142.046 32.1903C142.243 31.8724 141.804 32.4627 141.978 32.2811C142.024 32.2281 142.069 32.1751 142.122 32.1221C142.175 32.0692 142.22 32.0238 142.273 31.9708C142.326 31.9178 142.629 31.6907 142.364 31.88C142.076 32.0692 142.515 31.7816 142.576 31.7513C142.652 31.7059 142.735 31.668 142.811 31.6226C142.954 31.5394 143.023 31.6151 142.659 31.6756C142.795 31.6529 142.932 31.5696 143.068 31.5318C143.25 31.4788 143.81 31.441 143.204 31.4713C143.514 31.4561 143.817 31.441 144.128 31.4637C144.37 31.4788 143.711 31.388 143.946 31.441C144.037 31.4637 144.12 31.4788 144.211 31.5015C144.279 31.5167 144.347 31.5394 144.423 31.5621C144.498 31.5848 144.794 31.7134 144.506 31.5772C144.196 31.4334 144.695 31.6907 144.778 31.7362C144.907 31.8118 144.945 31.9254 144.672 31.6378C144.725 31.6907 144.786 31.7362 144.839 31.7891C144.839 31.7891 144.968 31.9481 144.99 31.9556C144.892 31.9329 144.756 31.6453 144.892 31.8648C145.104 32.1978 144.816 31.5621 144.869 31.8043C144.892 31.9027 144.922 32.001 144.952 32.0994C145.066 32.493 144.937 31.7513 144.937 31.9859C144.937 32.054 144.937 32.1221 144.937 32.1903C144.937 32.2584 144.937 32.3265 144.93 32.387C144.93 32.6368 145.043 31.88 144.952 32.2357C144.915 32.3643 144.884 32.493 144.847 32.6217C144.809 32.7579 144.695 32.8639 144.93 32.4476C144.884 32.5384 144.839 32.6292 144.794 32.7201C144.763 32.7806 144.725 32.8336 144.688 32.8941C144.536 33.1439 144.786 32.773 144.809 32.7579C144.71 32.8487 144.635 32.9622 144.536 33.0531C144.491 33.0985 144.226 33.2953 144.498 33.0985C144.748 32.9168 144.551 33.0531 144.483 33.0985C144.43 33.1363 144.37 33.1666 144.309 33.2044C143.953 33.4012 144.574 33.1287 144.392 33.1817C144.241 33.2271 144.097 33.2726 143.946 33.3104C143.757 33.3558 143.81 33.2271 144.143 33.2877C144.09 33.2801 143.991 33.2953 143.938 33.3028C143.802 33.3028 143.658 33.2725 143.522 33.2877C143.9 33.2423 143.893 33.3558 143.719 33.3104C143.62 33.2877 143.514 33.265 143.416 33.2347C143.371 33.2196 143.272 33.1742 143.219 33.1666C143.492 33.2877 143.567 33.318 143.431 33.2574C143.386 33.2347 143.34 33.212 143.295 33.1893C143.234 33.159 143.174 33.1212 143.121 33.0833C143.076 33.0531 143.038 33.0304 142.992 33.0001C142.879 32.9168 142.932 32.9622 143.174 33.1363C143.159 33.106 143.038 33.0152 143.023 32.9925C142.75 32.7503 143.28 33.3482 143.068 33.0455C142.985 32.9244 143.015 32.7655 143.136 33.212C143.159 33.5374 143.166 33.6283 143.166 33.4769C143.166 33.1969 143.106 33.4088 142.985 34.1126C142.985 34.1126 142.273 34.6803 142.591 34.5289L142.326 34.6424C142.394 34.6197 142.47 34.597 142.538 34.5819C142.606 34.5668 142.712 34.5592 142.773 34.5365C142.621 34.597 142.379 34.5743 142.69 34.5668C142.788 34.5668 142.894 34.5668 142.992 34.5668C143.34 34.5668 142.69 34.4911 142.909 34.5516C143.128 34.6122 143.333 34.6576 143.545 34.7408C143.976 34.9073 144.619 34.7711 145.005 34.5516C145.391 34.3321 145.77 33.8705 145.876 33.4239C146.126 32.3341 145.543 31.4864 144.551 31.0928C143.991 30.8733 143.356 30.7674 142.75 30.775C142.076 30.7825 141.267 30.9112 140.676 31.2593C138.989 32.2508 139.095 34.37 140.343 35.6642C141.925 37.2914 144.763 37.579 146.595 36.2243C147.556 35.5128 148.298 34.5213 148.578 33.3407C148.858 32.16 148.729 30.7825 148.025 29.7456C146.655 27.74 143.726 27.1724 141.554 28.0654C140.321 28.5725 139.299 29.3899 138.625 30.5479C138.02 31.5772 137.694 32.8563 137.831 34.0521C137.891 34.5668 138.005 35.0057 138.383 35.3917C138.709 35.7172 139.253 35.9669 139.723 35.9442C140.654 35.9064 141.736 35.1041 141.615 34.0521L141.592 34.0597Z" fill="#171717"/>
<path d="M177.33 39.6074C176.907 38.7218 176.483 37.8212 176.4 36.8449C176.316 35.8685 176.672 34.8014 177.504 34.2867C177.875 34.0597 178.307 33.9613 178.738 33.8856C179.979 33.6737 181.304 33.651 182.439 34.1883C183.574 34.7257 184.46 35.9367 184.301 37.1854C184.172 38.1921 183.378 39.0473 182.416 39.3954C181.455 39.7436 180.373 39.6225 179.442 39.2289C178.715 38.9186 177.996 38.3661 177.898 37.579C177.769 36.5648 178.905 35.6718 179.904 35.8988C180.903 36.1259 181.538 37.2536 181.372 38.2677" fill="#BECBEB"/>
<path d="M178.965 38.6539C178.867 38.442 178.768 38.2301 178.67 38.0181C178.473 37.6019 178.768 38.2906 178.67 38.0181C178.632 37.9122 178.587 37.7987 178.541 37.6927C178.466 37.4732 178.39 37.2537 178.337 37.0267C178.337 37.0191 178.269 36.7845 178.284 36.7542C178.314 37.0267 178.322 37.057 178.299 36.845C178.299 36.7921 178.292 36.7315 178.292 36.6785C178.292 36.5801 178.292 36.4893 178.292 36.3909C178.292 36.0806 178.292 36.512 178.261 36.5499C178.292 36.5045 178.42 36.0428 178.405 35.9974L178.299 36.2396C178.329 36.1714 178.36 36.1033 178.398 36.0428C178.428 35.9822 178.496 35.9141 178.511 35.8536C178.398 36.1563 178.299 36.1033 178.458 35.9368C178.761 35.6265 178.155 36.0579 178.458 35.9217C178.504 35.899 178.663 35.8233 178.685 35.8006L178.473 35.899C178.557 35.8687 178.64 35.846 178.723 35.8233C178.912 35.7703 179.109 35.74 179.306 35.7022C179.48 35.6719 179.684 35.7325 179.268 35.7022C179.344 35.7022 179.457 35.6795 179.54 35.6719C179.813 35.6492 180.085 35.6341 180.35 35.6417C180.464 35.6417 180.577 35.6417 180.691 35.6568C180.865 35.6719 181.054 35.7703 180.653 35.6417C180.857 35.7098 181.092 35.7249 181.304 35.7855C181.387 35.8082 181.47 35.8384 181.561 35.8687C181.97 36.0049 181.319 35.7325 181.531 35.8536C181.614 35.899 181.697 35.9444 181.781 35.9898C181.849 36.0276 181.985 36.1714 182.068 36.1866L181.864 36.0352C181.925 36.0882 181.977 36.1336 182.038 36.1941C182.091 36.2471 182.144 36.3077 182.197 36.3607C182.469 36.6407 182.015 36.0731 182.152 36.2925C182.205 36.3758 182.258 36.4515 182.303 36.5347C182.303 36.5347 182.386 36.7239 182.409 36.7315L182.311 36.4893C182.341 36.5574 182.363 36.6331 182.386 36.7012C182.409 36.7769 182.424 36.845 182.439 36.9207C182.538 37.2689 182.424 36.4515 182.424 36.9207C182.424 37.1326 182.318 37.1932 182.454 36.8148C182.432 36.8829 182.424 36.9661 182.401 37.0342L182.371 37.1402C182.303 37.3294 182.326 37.284 182.439 36.9964C182.416 37.004 182.333 37.1856 182.333 37.1932L182.273 37.2916C182.159 37.4505 182.189 37.4202 182.363 37.178C182.341 37.178 182.212 37.3446 182.212 37.3446C182.144 37.4127 182.076 37.4732 182 37.5338C181.894 37.6246 181.947 37.5867 182.159 37.4127C182.099 37.4581 182.03 37.4959 181.97 37.5338C181.902 37.5716 181.834 37.6095 181.773 37.6397C181.433 37.8214 182.121 37.5413 181.849 37.6019C181.743 37.6246 181.622 37.6624 181.516 37.6927C181.1 37.8289 181.811 37.6927 181.539 37.6927C181.334 37.6927 181.122 37.6927 180.918 37.6927C180.464 37.6927 181.311 37.8062 180.873 37.6927C180.736 37.6549 180.6 37.6322 180.464 37.5943C180.373 37.5716 180.29 37.5338 180.199 37.5111C179.752 37.3824 180.539 37.7003 180.184 37.5111C180.093 37.4581 179.76 37.2083 179.692 37.2159C179.745 37.2083 180.017 37.5262 179.813 37.2916C179.768 37.2386 179.571 36.9737 179.737 37.2386C179.926 37.5413 179.73 37.1629 179.699 37.1553C179.805 37.4278 179.828 37.4959 179.783 37.3597C179.768 37.3067 179.752 37.2537 179.737 37.2008L179.775 37.4884C179.775 37.284 179.768 37.3521 179.73 37.6851L179.752 37.5867C179.813 37.3975 179.79 37.4581 179.677 37.7533C179.677 37.7533 179.783 37.6019 179.783 37.5792C179.586 37.8214 179.556 37.8668 179.692 37.723C179.805 37.6246 179.79 37.6246 179.662 37.7381C179.397 37.9425 179.684 37.7381 179.73 37.7154C180.048 37.5111 179.321 37.8895 179.669 37.7533C180.017 37.617 179.2 37.776 179.578 37.7684C179.926 37.7684 179.124 37.6776 179.487 37.7684C179.783 37.8441 179.344 37.7305 179.321 37.6927C179.382 37.723 179.442 37.7608 179.495 37.7987C179.268 37.6095 179.207 37.564 179.313 37.6624C179.344 37.7003 179.457 37.8289 179.495 37.8441C179.321 37.6095 179.276 37.5489 179.359 37.67C179.389 37.7154 179.419 37.7608 179.442 37.8062L179.495 37.8971C179.578 38.0787 179.556 38.0257 179.427 37.7381C179.419 37.7835 179.487 38.0181 179.51 38.0484C179.359 37.8214 179.487 37.6397 179.48 37.8592C179.48 38.003 179.48 38.1392 179.457 38.283C179.397 38.7296 179.715 39.3199 180.01 39.6227C180.335 39.9481 180.88 40.1979 181.349 40.1752C181.819 40.1525 182.348 39.9935 182.689 39.6227C183.052 39.2291 183.173 38.8128 183.241 38.283C183.438 36.8148 182.575 35.2178 181.319 34.4761C179.904 33.636 177.989 33.9387 176.899 35.1724C175.65 36.5726 175.741 38.5555 177.043 39.9027C178.102 41.0001 179.828 41.5602 181.327 41.5148C183.007 41.4618 184.452 40.6974 185.436 39.3502C186.42 38.003 186.367 36.3682 185.724 34.9454C185.081 33.5225 183.817 32.6445 182.432 32.198C181.047 31.7515 179.465 31.8498 178.027 32.1299C176.309 32.4705 174.909 33.7722 174.598 35.5206C174.273 37.3597 174.893 38.9566 175.673 40.5914C176.104 41.4845 177.452 41.7948 178.261 41.2726C179.185 40.6823 179.397 39.6378 178.943 38.6842L178.965 38.6539Z" fill="#171717"/>
<path d="M144.181 48.5002C142.508 56.5834 141.555 64.8179 141.35 73.0751C141.282 75.8602 141.691 79.3644 145.649 79.2131C152.022 77.5632 154.618 71.1224 157.206 65.5066C159.84 59.7848 163.026 54.3128 166.697 49.189" fill="#BECBEB"/>
<path d="M142.356 47.9934C141.153 53.8287 140.305 59.7472 139.836 65.6884C139.624 68.4055 139.397 71.1604 139.45 73.8851C139.48 75.7696 139.806 77.7374 141.04 79.2284C144.233 83.0808 149.645 80.1594 152.415 77.3363C155.405 74.2862 157.077 70.2749 158.841 66.4604C161.482 60.7311 164.668 55.2742 168.331 50.1428C168.929 49.3103 168.475 48.0388 167.65 47.5544C166.697 47.0019 165.66 47.3955 165.062 48.2356C162.08 52.4134 159.401 56.8106 157.092 61.3971C155.253 65.0376 153.83 68.9429 151.575 72.3638C150.674 73.7262 149.577 75.0506 148.222 75.9816C147.511 76.4735 146.746 76.8898 145.929 77.1622C145.202 77.4044 144.665 77.3439 144.173 77.026C144.135 77.0033 143.825 76.6627 143.908 76.7838C143.613 76.3751 143.651 76.413 143.53 76.0194C143.28 75.2323 143.272 74.9522 143.242 74.097C143.166 71.6751 143.371 69.2153 143.545 66.801C143.969 60.8219 144.801 54.8807 146.012 49.0075C146.216 48.0085 145.724 46.9641 144.688 46.6765C143.749 46.4191 142.568 46.9943 142.356 48.0009V47.9934Z" fill="#171717"/>
</g>
<defs>
<clipPath id="clip0_6174_7982">
<rect width="280" height="314.267" fill="white" transform="translate(0 0.151367)"/>
</clipPath>
</defs>
</svg>
