<svg width="280" height="400" viewBox="0 0 280 400" fill="none" xmlns="http://www.w3.org/2000/svg">
<g clip-path="url(#clip0_6174_7978)">
<path d="M6.1875 249.487L188.101 233.55L196.887 37.091L162.915 22.3016L114.201 64.8389L49.8722 132.444V158.636L38.5168 173.284L20.6548 202.777L11.5862 227.436L6.1875 249.487Z" fill="#BECBEB" stroke="#171717" stroke-width="0.785837" stroke-miterlimit="10"/>
<path d="M153.933 29.6335C157.862 22.1995 170.404 19.0797 178.804 19.3469C187.205 19.6141 195.158 23.0011 202.843 26.4116C207.495 28.4784 212.187 30.6001 216.226 33.6963C227.581 42.4034 232.147 57.8451 231.039 72.108C229.931 86.371 223.966 99.7773 217.554 112.571C216.289 115.101 214.992 117.632 214.01 120.28C212.289 124.908 211.519 129.836 210.764 134.716C210.34 137.474 208.36 146.26 207.927 149.018" fill="#BECBEB"/>
<path d="M155.629 30.6237C157.845 26.5374 162.56 24.2427 166.993 22.9147C172.124 21.3744 177.601 20.8401 182.922 21.6966C189.955 22.8204 196.532 25.728 202.992 28.612C209.035 31.3153 214.921 34.3093 219.392 39.3151C227.038 47.8729 229.828 60.0062 229.137 71.2358C228.272 85.3494 222.331 98.6222 216.1 111.101C214.434 114.441 212.72 117.773 211.565 121.333C210.41 124.893 209.766 128.523 209.184 132.177C208.446 136.806 207.416 141.372 206.504 145.969C206.339 146.81 206.174 147.651 206.041 148.499C205.876 149.544 206.308 150.613 207.416 150.92C208.351 151.179 209.664 150.605 209.836 149.544C210.544 145.081 211.683 140.696 212.493 136.256C213.09 132.995 213.498 129.718 214.245 126.48C215.102 122.763 216.43 119.29 218.111 115.879C224.697 102.496 231.258 88.925 232.854 73.8919C234.142 61.7507 231.596 48.6351 224.052 38.8122C219.832 33.327 214.276 29.5707 208.06 26.6317C201.349 23.4569 194.387 20.2507 187.134 18.5376C181.098 17.1152 175 17.0523 168.941 18.3647C163.739 19.4884 158.199 21.6181 154.49 25.5787C153.626 26.506 152.855 27.5354 152.25 28.6513C151.048 30.8752 154.435 32.8634 155.645 30.6316L155.629 30.6237Z" fill="#171717"/>
<path d="M158.678 65.4049C159.535 53.358 156.722 41.3897 153.932 29.6336C152.14 22.0817 150.317 14.4512 146.789 7.53586C145.885 5.75986 144.793 3.9603 143.08 2.94657C139.724 0.9584 135.15 2.80512 132.848 5.95632C130.545 9.10753 129.956 13.1546 129.477 17.0288C127.355 34.1914 126.09 51.472 126.05 68.7604C126.05 71.1572 126.058 73.5776 125.524 75.9194C125.084 77.8526 124.282 79.6836 123.465 81.491C117.171 95.4867 109.925 109.325 107.332 124.453C107.183 125.309 107.104 126.339 107.756 126.92C108.11 127.235 108.597 127.337 109.069 127.407C114.577 128.209 120.196 126.079 124.683 122.779C129.17 119.478 132.707 115.078 136.18 110.724C143.362 101.718 150.545 92.6027 155.881 82.3947" fill="#BECBEB"/>
<path d="M160.643 65.4049C161.311 55.5662 159.622 45.7589 157.476 36.1874C155.331 26.616 153.516 17.7124 149.72 9.13108C148.078 5.42193 145.933 1.06839 141.5 0.30613C137.587 -0.36969 133.65 1.65777 131.324 4.75397C128.738 8.18807 128.086 12.5573 127.56 16.7065C126.931 21.6809 126.397 26.6631 125.933 31.6532C125.014 41.5469 124.408 51.472 124.188 61.4049C124.133 63.8568 124.102 66.3086 124.094 68.7604C124.086 71.2122 124.126 73.4597 123.56 75.7386C123.033 77.8525 122.09 79.825 121.194 81.7974C120.236 83.9113 119.253 86.0252 118.279 88.1391C114.42 96.4926 110.57 104.909 107.89 113.734C107.222 115.942 106.625 118.174 106.13 120.429C105.706 122.362 104.849 124.846 105.462 126.81C106.224 129.238 108.896 129.482 111.065 129.529C113.234 129.576 115.411 129.238 117.47 128.618C126.279 125.961 132.275 118.755 137.799 111.824C143.591 104.563 149.367 97.2548 154.215 89.3179C155.402 87.3769 156.526 85.3966 157.587 83.3769C158.757 81.1373 155.37 79.1491 154.192 81.3966C150.137 89.1214 145.06 96.2411 139.717 103.109C137.092 106.481 134.467 109.852 131.725 113.121C128.982 116.39 126.2 119.423 122.743 121.749C119.489 123.942 115.701 125.537 111.733 125.6C110.9 125.616 109.996 125.372 109.187 125.427C108.755 125.451 109.226 125.38 109.21 125.521C109.25 125.089 109.289 124.696 109.368 124.272C109.745 122.174 110.216 120.091 110.766 118.025C112.959 109.734 116.33 101.821 119.882 94.0329C121.689 90.0723 123.544 86.1352 125.32 82.1668C126.2 80.2022 127.08 78.1983 127.513 76.0765C127.976 73.7976 128.015 71.4637 128.023 69.1454C128.055 59.7233 128.416 50.3168 129.092 40.9182C129.43 36.2817 129.839 31.6532 130.318 27.0324C130.766 22.6868 131.127 18.2861 131.898 13.9876C132.51 10.577 133.626 6.85215 136.817 5.01329C138.011 4.32176 139.473 3.88955 140.84 4.17245C142.467 4.5025 143.52 5.79127 144.337 7.15077C146.467 10.7106 147.874 14.7577 149.068 18.7104C150.341 22.9147 151.339 27.1975 152.353 31.4646C154.467 40.376 156.526 49.3816 156.832 58.5759C156.911 60.8549 156.871 63.1338 156.714 65.4127C156.644 66.4736 157.665 67.3773 158.679 67.3773C159.803 67.3773 160.573 66.4736 160.643 65.4127V65.4049Z" fill="#171717"/>
<path d="M152.533 66.9372C153.351 61.6721 153.374 56.352 153.052 51.0318C152.863 47.9985 152.313 45.0123 151.763 42.0261C150.718 36.376 149.673 30.718 148.243 25.1542C146.938 20.0777 145.036 14.6869 140.667 11.7871C139.583 11.0642 138.317 10.5141 137.021 10.6162C135.583 10.7263 134.31 11.6378 133.398 12.7459C131.19 15.4334 130.836 19.1426 130.569 22.616C130.027 29.6964 129.485 36.7768 128.942 43.8572C128.243 52.9729 127.544 62.1043 127.567 71.2514C127.567 73.8761 127.63 76.548 126.97 79.0862C126.066 82.5596 123.889 85.5301 121.933 88.5398C116.911 96.2489 113.076 104.736 110.609 113.6C109.517 117.506 108.691 121.569 109.163 125.6C112.22 126.661 115.662 125.199 118.011 122.975C120.361 120.751 121.941 117.852 123.834 115.227C127.772 109.765 133.099 105.49 137.594 100.477C146.647 90.3787 152.203 77.2002 153.099 63.6681" fill="#171717"/>
<path d="M154.427 67.4559C155.402 61.0042 155.551 54.2931 154.694 47.8178C153.838 41.3425 152.518 34.8829 151.072 28.5334C149.854 23.174 148.533 17.5317 145.029 13.1546C143.363 11.0721 140.95 9.09964 138.239 8.71458C135.096 8.27451 132.424 10.302 130.891 12.9031C129.445 15.3628 128.997 18.2232 128.73 21.0208C128.432 24.1877 128.235 27.3625 127.992 30.5294C127.481 37.154 126.954 43.7786 126.483 50.4111C126.011 57.0435 125.626 63.5267 125.595 70.0963C125.579 73.2554 125.791 76.493 124.777 79.5342C123.889 82.1903 122.216 84.5321 120.683 86.8503C117.312 91.9661 114.467 97.3806 112.141 103.046C109.815 108.712 107.756 114.732 107.159 120.838C107.002 122.425 107.01 124.013 107.175 125.6C107.277 126.504 107.725 127.211 108.621 127.494C114.318 129.317 119.292 125.105 122.389 120.791C123.968 118.59 125.351 116.272 127.096 114.19C128.927 112.005 130.946 109.985 132.974 107.982C136.919 104.092 140.738 100.162 143.913 95.5967C147.087 91.031 149.437 86.3553 151.307 81.3102C153.406 75.6443 154.639 69.6877 155.056 63.6682C155.127 62.6073 154.097 61.7036 153.091 61.7036C151.967 61.7036 151.197 62.6073 151.127 63.6682C150.443 73.6169 147.166 83.3219 141.791 91.7225C139.056 95.9896 135.748 99.7224 132.156 103.282C128.314 107.094 124.424 110.834 121.359 115.337C118.837 119.038 115.167 125.466 109.674 123.706L111.12 125.6C110.483 119.745 112.377 113.852 114.302 108.39C116.228 102.929 118.656 97.7813 121.571 92.8463C124.424 88.0212 128.392 83.5027 129.225 77.7818C129.665 74.7249 129.508 71.6287 129.548 68.5561C129.587 65.4834 129.697 62.3794 129.862 59.291C130.506 46.7491 131.544 34.1914 132.612 21.673C132.817 19.3155 133.115 16.8244 134.373 14.7655C134.907 13.8932 135.653 13.0288 136.644 12.6909C137.807 12.2901 138.993 12.9974 139.913 13.6496C143.645 16.3215 145.162 21.1622 146.27 25.39C148.03 32.1325 149.319 39.04 150.474 45.9161C151.63 52.7922 151.653 59.7154 150.647 66.4264C150.49 67.4716 150.914 68.5403 152.022 68.8468C152.95 69.0983 154.278 68.5325 154.443 67.4716L154.427 67.4559Z" fill="#171717"/>
<path d="M173.295 60.1398L173.885 54.6389C174.183 51.8806 174.545 48.9573 176.282 46.7884C178.034 44.5959 180.942 43.5822 183.755 43.4879C186.568 43.3936 189.327 44.1087 192.046 44.816C193.413 45.1696 194.78 45.5311 196.148 45.8847C196.886 46.0733 197.633 46.2698 198.277 46.6705C199.095 47.1735 199.7 47.9593 200.281 48.7216C201.664 50.5447 203.118 52.6193 202.882 54.8904C202.67 56.9179 201.153 58.5524 199.566 59.8255C195.291 63.2596 189.885 65.2556 184.399 65.4206C181.743 65.4992 178.977 65.1299 176.737 63.6996C174.498 62.2694 172.918 59.5897 173.366 56.9729" fill="#BECBEB"/>
<path d="M175.259 60.1397C175.542 57.5229 175.699 54.8589 176.171 52.2735C176.564 50.0889 177.302 47.9593 179.283 46.7255C183.738 43.9672 189.538 46.199 194.135 47.3935C195.172 47.6607 196.508 47.7943 197.404 48.4308C198.363 49.1066 199.117 50.3639 199.746 51.3384C200.319 52.2185 200.877 53.1772 200.94 54.2538C201.003 55.3304 200.437 56.2341 199.762 56.9728C196.54 60.5012 191.479 62.6151 186.827 63.2752C184.241 63.6367 181.334 63.6917 178.89 62.6466C176.98 61.8293 174.937 59.7861 175.267 57.5072C175.416 56.462 175.008 55.3933 173.892 55.0868C172.972 54.8354 171.629 55.4012 171.471 56.462C171.023 59.5582 172.194 62.5758 174.623 64.5797C177.169 66.6858 180.485 67.4087 183.73 67.4087C190.017 67.4087 196.217 65.0984 201.066 61.1299C203.573 59.0789 205.325 56.2813 204.704 52.9415C204.414 51.3855 203.565 49.9396 202.661 48.6665C201.758 47.3935 200.767 45.9633 199.4 45.0674C198.033 44.1715 196.335 43.9122 194.803 43.5114C193.105 43.0714 191.424 42.5999 189.711 42.2227C186.52 41.5154 183.125 41.1461 179.951 42.1519C176.485 43.2521 173.978 45.7432 172.87 49.2009C172.344 50.8512 172.147 52.6036 171.959 54.3167C171.746 56.2577 171.542 58.1987 171.33 60.1397C171.22 61.1928 172.312 62.1043 173.295 62.1043C174.45 62.1043 175.141 61.2006 175.259 60.1397Z" fill="#171717"/>
<path d="M174.435 54.4896C175.676 52.6115 175.637 50.0889 176.973 48.2815C178.725 45.8926 182.112 45.5861 185.075 45.5075C189.397 45.3896 193.931 45.3425 197.766 47.3385C199.189 48.0772 200.579 49.2717 200.744 50.8669C200.917 52.5408 199.676 54.0496 198.269 54.9769C195.857 56.5564 192.894 57.0043 190.034 57.4051C184.768 58.1359 179.362 58.8432 174.167 57.7037C173.9 57.6487 173.625 57.5701 173.452 57.3658C173.209 57.0672 173.295 56.6193 173.397 56.242C173.947 54.191 174.513 52.1007 175.723 50.3561C176.934 48.6116 178.93 47.2678 181.044 47.4171" fill="#171717"/>
<path d="M176.132 55.4797C177.122 53.8845 177.342 52.0692 178.042 50.3639C178.599 48.9966 179.7 48.2893 181.083 47.92C182.654 47.4956 184.297 47.4799 185.916 47.4485C187.92 47.4013 189.939 47.3778 191.927 47.6292C193.578 47.8335 200.257 49.2087 198.473 52.0849C197.632 53.4366 195.888 54.1281 194.426 54.5603C192.525 55.1182 190.544 55.3619 188.58 55.629C186.23 55.9512 183.872 56.2263 181.507 56.3049C180.273 56.3442 179.04 56.3363 177.814 56.2499C177.287 56.2106 176.761 56.1634 176.242 56.0927C175.967 56.0534 175.684 56.0062 175.409 55.9512L175.048 55.8805C174.568 55.7155 174.56 55.7941 175.016 56.1163L175.283 57.1064C175.189 56.3049 175.684 55.2597 175.928 54.4896C176.234 53.5309 176.603 52.6114 177.138 51.7549C177.994 50.3796 179.362 49.3031 181.036 49.3738C183.566 49.4759 183.558 45.5468 181.036 45.4446C177.979 45.3267 175.307 47.2599 173.743 49.7746C172.949 51.0476 172.423 52.4936 171.991 53.9316C171.558 55.3697 170.835 57.1929 171.904 58.5445C172.973 59.8961 175.181 59.904 176.713 60.0769C178.246 60.2498 179.912 60.2891 181.507 60.234C184.815 60.124 188.1 59.6525 191.369 59.1732C194.222 58.7567 197.24 58.1516 199.613 56.407C201.986 54.6625 203.668 51.4877 201.994 48.5722C200.556 46.0733 197.46 44.8002 194.788 44.1715C191.77 43.4643 188.65 43.4486 185.57 43.5271C182.725 43.5979 179.519 43.7315 177.114 45.4446C175.715 46.4426 174.827 47.7707 174.23 49.3659C173.712 50.7411 173.515 52.2264 172.729 53.4916C171.393 55.6448 174.788 57.6172 176.124 55.4719L176.132 55.4797Z" fill="#171717"/>
<path d="M170.985 57.2556C170.505 60.1632 170.175 63.1416 170.836 66.0492C171.448 68.7603 173.052 71.0314 175.275 72.6659C179.346 75.6599 185.263 76.2729 190.144 75.6285C193.185 75.2277 196.124 74.1511 198.277 71.8801C200.014 70.0491 197.24 67.2593 195.495 69.0982C193.648 71.0471 190.992 71.7229 188.383 71.8644C185.774 72.0058 183.173 71.7779 180.698 70.9999C178.466 70.2927 176.423 69.0196 175.291 66.9136C173.908 64.3439 174.317 61.0512 174.773 58.2929C174.945 57.2478 174.498 56.179 173.397 55.8726C172.462 55.6132 171.15 56.1948 170.977 57.2478L170.985 57.2556Z" fill="#171717"/>
<path d="M172.611 59.5897C172.643 63.4953 171.896 68.1946 171.928 72.1002C171.959 75.6129 172.14 79.5185 174.615 82.0096" fill="#BECBEB"/>
<path d="M170.646 59.5897C170.662 63.8725 169.916 68.116 169.971 72.3988C170.018 76.3123 170.403 80.4379 173.232 83.4084C174.976 85.2394 177.758 82.4654 176.014 80.6265C173.782 78.2847 173.868 74.4892 173.9 71.4637C173.947 67.4952 174.591 63.5582 174.584 59.5897C174.576 57.0593 170.646 57.0593 170.654 59.5897H170.646Z" fill="#171717"/>
<path d="M41.5887 164.813C36.5515 156.31 33.9426 146.252 35.0034 136.421C36.6458 121.168 46.7988 107.981 58.885 98.5357C70.9633 89.0899 85.0612 82.6461 98.3812 75.0392C101.281 73.3811 104.251 71.6365 107.56 71.1807C110.868 70.7249 114.656 71.9273 116.188 74.8977C117.886 78.1825 116.157 82.426 113.218 84.6814C110.279 86.9367 106.467 87.644 102.805 88.1312C99.1434 88.6184 95.3479 88.9721 92.0631 90.6773" fill="#BECBEB"/>
<path d="M43.286 163.823C37.5651 154.095 35.1368 142.433 37.8873 131.36C40.3784 121.349 46.4765 112.618 53.8162 105.522C62.1225 97.4907 72.1733 91.5812 82.2556 86.0725C87.4893 83.212 92.778 80.4459 97.9802 77.5147C102.035 75.2358 107.324 71.4166 112.157 73.7191C116.534 75.8016 114.931 81.2081 111.559 83.4478C106.789 86.6147 100.581 86.0017 95.2376 87.3927C93.7917 87.7699 92.3929 88.3043 91.0648 88.9801C88.8095 90.1195 90.7977 93.5144 93.0452 92.3749C98.4989 89.6166 105.013 90.6068 110.648 88.32C113.375 87.2119 115.795 85.5145 117.32 82.9448C118.703 80.6109 119.324 77.6012 118.357 75C116.251 69.2949 109.351 68.1868 104.204 69.9864C101.186 71.0394 98.4596 72.7447 95.6934 74.3006C92.9273 75.8566 90.1061 77.3811 87.2928 78.8899C76.1339 84.8937 64.8179 90.8897 55.0814 99.0938C46.5079 106.323 39.176 115.439 35.3726 126.087C31.1919 137.788 32.41 150.55 37.6987 161.694C38.3666 163.1 39.0974 164.468 39.8911 165.804C41.1721 167.98 44.5669 166.008 43.286 163.823Z" fill="#171717"/>
<path d="M107.561 71.1808C113.376 66.2536 120.755 57.9159 125.344 51.8335L107.561 71.1808Z" fill="#BECBEB"/>
<path d="M108.943 72.5716C115.717 66.8036 121.681 59.904 127.041 52.8236C127.685 51.9749 127.174 50.6232 126.334 50.136C125.328 49.5466 124.29 49.9945 123.646 50.8433C118.499 57.6486 112.676 64.2575 106.169 69.7976C105.36 70.4892 105.462 71.8644 106.169 72.5795C106.971 73.3811 108.134 73.271 108.951 72.5795L108.943 72.5716Z" fill="#171717"/>
<path d="M92.0628 90.6774C85.0295 106.653 75.5209 123.635 64.8885 137.474C55.8435 149.246 45.5176 160.192 38.5237 173.285C35.5768 178.793 33.2429 184.648 29.8245 189.874C26.9405 194.29 23.3099 198.211 20.6616 202.777C18.0605 207.256 16.4574 212.238 14.8779 217.174C12.4811 224.655 10.0843 232.136 7.69531 239.617" fill="#BECBEB"/>
<path d="M90.3659 89.6794C85.8552 99.9188 80.6844 109.875 74.8378 119.423C71.9538 124.13 68.9047 128.735 65.6514 133.191C62.4766 137.537 59.0582 141.71 55.6634 145.882C48.7637 154.354 41.7855 162.904 36.654 172.609C34.0136 177.599 31.8525 182.84 28.8978 187.665C25.943 192.49 22.1946 196.451 19.3184 201.182C15.9393 206.753 14.1083 213.111 12.1359 219.272C10.022 225.881 7.90808 232.49 5.78632 239.098C5.0162 241.511 8.80393 242.548 9.57405 240.144C11.4522 234.281 13.3304 228.427 15.2006 222.564C16.9452 217.111 18.4697 211.484 20.9923 206.321C23.5148 201.158 27.1218 197.135 30.3201 192.608C33.5185 188.082 35.9153 182.856 38.4064 177.803C43.2472 167.972 49.7932 159.305 56.6771 150.825C63.5768 142.33 70.3743 133.836 76.2523 124.578C82.9241 114.08 88.7393 103.039 93.7608 91.6597C94.1851 90.6931 94.0437 89.5536 93.0535 88.9721C92.2205 88.4849 90.7981 88.7049 90.3659 89.6794Z" fill="#171717"/>
<path d="M7.68068 239.617C-1.5529 262.493 1.14252 288.111 9.95175 311.152C13.2916 319.882 17.6687 328.362 24.0497 335.198C35.0435 346.978 50.8939 352.84 66.4613 356.997C80.9521 360.872 95.7416 363.63 110.657 365.225C123.505 366.6 136.487 367.127 149.343 365.87C160.502 364.777 171.488 362.365 182.443 359.952C193.012 357.626 203.574 355.3 214.144 352.974C225.31 350.514 236.579 348.023 246.937 343.182C257.294 338.342 266.81 330.884 272.013 320.708C275.596 313.698 276.963 305.769 277.631 297.926C278.716 285.148 277.922 271.789 272.115 260.355C262.457 241.346 246.968 231.311 234.143 214.282" fill="#BECBEB"/>
<path d="M5.78618 239.091C-0.304061 254.32 -1.23135 271.003 1.35406 287.089C2.65854 295.168 4.84317 303.097 7.71148 310.759C10.5798 318.421 13.8331 325.297 18.5403 331.607C27.6482 343.827 41.141 350.994 55.3411 355.74C71.4428 361.123 88.3698 364.424 105.195 366.553C123.009 368.809 140.927 369.374 158.718 366.64C167.566 365.28 176.297 363.316 185.036 361.39C193.782 359.465 202.528 357.54 211.275 355.614C227.054 352.141 243.565 348.896 257.168 339.646C263.085 335.623 268.374 330.578 272.146 324.456C276.421 317.525 278.291 309.533 279.226 301.533C280.161 293.533 280.342 285.4 279.25 277.408C278.157 269.416 275.564 262.037 271.478 255.145C263.965 242.462 252.838 232.765 243.046 221.944C240.524 219.154 238.087 216.286 235.824 213.292C235.18 212.443 234.135 212.018 233.137 212.584C232.296 213.064 231.793 214.431 232.429 215.272C241.129 226.777 252.193 236.136 261.238 247.326C265.788 252.953 269.953 259.255 272.468 266.076C275.148 273.369 276.083 281.133 276.067 288.873C276.051 296.614 275.36 304.975 273.096 312.606C271.03 319.568 267.258 325.674 262.032 330.711C250.991 341.344 235.95 345.949 221.373 349.343C204.509 353.273 187.558 357.021 170.592 360.502C162.168 362.231 153.689 363.677 145.099 364.267C136.447 364.856 127.756 364.691 119.104 364.047C101.855 362.766 84.7078 359.787 67.9852 355.379C54.2409 351.756 40.0487 347.002 29.1963 337.462C17.7466 327.395 11.6642 312.551 7.75863 298.138C3.62512 282.893 2.3835 266.626 6.06122 251.161C6.95707 247.405 8.13583 243.727 9.56605 240.144C9.96683 239.153 9.13384 237.998 8.19084 237.723C7.07495 237.401 6.16338 238.116 5.77046 239.098L5.78618 239.091Z" fill="#171717"/>
<path d="M58.6498 314.052C53.3925 317.792 48.0724 321.446 42.9016 325.305C38.1158 328.872 33.7466 332.833 29.8488 337.359C25.9511 341.886 22.7291 346.428 19.6251 351.285C16.5289 356.133 13.5349 361.107 10.8709 366.2C9.47994 368.856 8.2226 371.63 7.45248 374.537C6.76094 377.162 6.0694 380.541 7.72752 382.954C8.61551 384.235 9.99073 385.005 11.3267 385.743C12.6626 386.482 13.9513 387.103 15.3108 387.692C18.132 388.926 21.0239 389.948 23.9865 390.773C36.3084 394.191 49.3533 394.647 62.021 395.731C74.6887 396.816 88.3308 397.979 101.486 399.103C103.105 399.244 104.723 399.378 106.342 399.519C107.403 399.614 108.307 398.553 108.307 397.555C108.307 396.415 107.403 395.684 106.342 395.59C93.6431 394.506 80.9439 393.421 68.2448 392.337C62.0367 391.802 55.8286 391.284 49.6205 390.741C43.4752 390.207 37.33 389.633 31.2712 388.447C25.6367 387.347 20.0337 385.751 14.8865 383.174C13.7863 382.624 12.5683 382.066 11.5703 381.327C10.5722 380.588 10.5722 379.543 10.6823 378.404C10.9337 375.811 11.8689 373.209 12.9455 370.852C15.2716 365.768 18.2813 360.919 21.2046 356.157C24.1279 351.395 27.1298 346.884 30.5718 342.609C34.4145 337.831 38.7131 333.446 43.5695 329.698C49.1018 325.423 54.9327 321.501 60.6301 317.454C61.4945 316.841 61.9031 315.741 61.3373 314.767C60.8344 313.91 59.522 313.446 58.6498 314.059V314.052Z" fill="#171717"/>
<path d="M131.779 324.157C130.216 336.927 129.524 349.807 129.744 362.671C129.854 369.107 130.192 375.535 130.75 381.94C131.017 385.013 131.276 388.101 131.724 391.158C131.929 392.541 132.361 393.869 133.296 394.938C134.231 396.006 135.575 396.58 136.895 396.989C142.789 398.828 149.091 397.814 154.985 396.525C157.979 395.865 160.95 395.118 163.959 394.568C166.969 394.018 170.089 393.68 173.185 393.468C179.362 393.028 185.554 393.052 191.747 392.863C197.939 392.674 204.359 392.117 210.614 391.119C224.422 388.902 237.891 384.942 251.714 382.804C252.767 382.639 253.34 381.327 253.089 380.384C252.782 379.26 251.722 378.852 250.669 379.009C238.692 380.855 226.983 384.07 215.086 386.341C209.184 387.472 203.235 388.329 197.232 388.682C191.11 389.044 184.973 389.02 178.851 389.24C172.729 389.46 166.71 389.955 160.753 391.197C155.024 392.399 149.288 394.199 143.37 394.05C142.129 394.018 140.895 393.9 139.677 393.641C138.616 393.413 137.068 393.193 136.274 392.36C135.622 391.676 135.567 390.506 135.465 389.61C135.268 387.952 135.096 386.286 134.931 384.62C134.333 378.474 133.94 372.306 133.76 366.129C133.343 352.11 134.003 338.059 135.709 324.142C135.834 323.089 134.71 322.177 133.744 322.177C132.573 322.177 131.913 323.081 131.779 324.142V324.157Z" fill="#171717"/>
<path d="M181.649 260.112C168.652 253.566 154.719 246.077 148.723 232.812C146.499 227.884 145.548 222.494 144.841 217.134C139.324 175.65 147.065 132.625 165.948 95.2823C169.516 88.2255 174.836 80.485 182.742 80.2178C187.252 80.0685 191.551 82.5911 194.474 86.033C197.398 89.475 199.15 93.75 200.58 98.0328C209.397 124.327 208.054 152.758 207.755 180.491C207.723 183.736 207.723 187.107 209.107 190.046C210.199 192.372 212.069 194.227 213.916 196.003C220.47 202.298 227.307 208.286 234.143 214.274" fill="#BECBEB"/>
<path d="M182.639 258.414C173.602 253.864 164.274 249.086 157.186 241.699C153.595 237.959 150.797 233.55 149.194 228.599C147.324 222.839 146.648 216.71 146.051 210.706C144.856 198.769 144.746 186.722 145.674 174.762C146.601 162.801 148.558 151.03 151.505 139.446C154.459 127.808 158.381 116.398 163.284 105.427C165.524 100.406 167.803 95.2665 170.86 90.6772C173.304 87.0074 176.604 83.3454 181.091 82.3788C186.034 81.3179 190.851 84.3906 193.712 88.2097C197.232 92.909 198.938 98.8814 200.486 104.461C203.826 116.516 205.217 128.987 205.743 141.45C206.27 153.914 205.947 166.621 205.798 179.202C205.759 182.282 205.664 185.441 206.45 188.443C207.236 191.445 208.981 193.818 211.087 195.964C215.613 200.6 220.548 204.883 225.397 209.181C227.841 211.343 230.293 213.496 232.752 215.649C233.554 216.348 234.748 216.435 235.534 215.649C236.249 214.934 236.336 213.574 235.534 212.867C230.434 208.396 225.326 203.932 220.344 199.335C217.955 197.135 215.503 194.958 213.295 192.577C211.291 190.416 210.104 187.98 209.837 185.025C209.57 182.07 209.743 178.817 209.782 175.728C209.829 172.491 209.877 169.253 209.916 166.015C209.994 159.532 210.018 153.049 209.861 146.566C209.539 133.741 208.47 120.853 205.547 108.327C204.124 102.245 202.419 96.0209 199.645 90.4022C197.067 85.2 192.902 80.5321 187.189 78.8347C181.971 77.2787 176.761 79.0076 172.754 82.4653C168.746 85.9229 166.16 90.4886 163.874 95.0544C158.318 106.15 153.721 117.741 150.161 129.623C146.609 141.466 144.118 153.607 142.64 165.874C141.179 178.078 140.778 190.408 141.509 202.675C141.878 208.93 142.499 215.201 143.513 221.385C144.526 227.57 146.2 233.181 149.509 238.281C155.316 247.224 164.526 253.228 173.744 258.194C176.038 259.428 178.357 260.614 180.683 261.785C183.009 262.956 184.926 259.53 182.663 258.391L182.639 258.414Z" fill="#171717"/>
</g>
<defs>
<clipPath id="clip0_6174_7978">
<rect width="280" height="399.349" fill="white" transform="translate(0 0.176025)"/>
</clipPath>
</defs>
</svg>
