<svg width="280" height="186" viewBox="0 0 280 186" fill="none" xmlns="http://www.w3.org/2000/svg">
<g clip-path="url(#clip0_6174_7981)">
<path d="M24.1369 97.5218C15.5229 92.4465 6.73818 86.5331 4.34799 76.8327C2.53206 69.4603 5.32579 61.7 9.23701 55.1968C16.687 42.7802 28.4672 33.0332 42.0323 28.0045C52.1208 24.264 63.2957 22.9758 72.2511 17.0313C77.3264 13.6633 81.5015 8.88296 87.0889 6.46172C91.1088 4.7234 95.5788 4.31987 99.9556 4.38195C120.288 4.61476 139.968 13.8496 160.238 12.3441C170.063 11.6146 179.561 8.38629 189.37 7.40849C199.18 6.43068 210.106 8.21557 216.609 15.6189C223.019 22.9292 224.075 34.4611 232.037 40.0175C236.026 42.8112 241.241 43.6338 244.826 46.9242C248.458 50.2457 249.731 55.4917 249.699 60.4273C249.668 65.3628 248.551 70.2208 248.256 75.1409C247.666 84.9966 250.398 94.7436 250.941 104.599C251.484 114.455 249.203 125.475 241.194 131.248C236.196 134.849 229.802 135.811 224.199 138.357C214.204 142.889 206.397 152.574 195.501 153.909C188.703 154.747 181.874 152.093 175.045 152.512C169.892 152.822 165.018 154.855 160.129 156.516C146.875 161.048 132.083 163.035 118.968 158.099C114.933 156.578 111.131 154.436 106.955 153.35C95.4701 150.354 83.7209 155.74 72.4374 159.434C61.2314 163.097 48.9856 165.177 37.7796 159.775C31.8507 156.92 27.241 151.705 25.5338 145.357C22.74 135.051 27.7222 126.996 33.1389 117.792C36.8018 111.568 36.4604 105.996 30.7487 101.604C29.1035 100.331 28.1568 100.176 24.1214 97.5528" fill="#BECBEB"/>
<path d="M26.1086 94.1847C18.2862 89.5596 8.27534 83.4134 7.70107 73.2473C7.12681 63.0812 14.8406 52.2943 22.0577 45.2169C29.756 37.6738 39.0684 32.7072 49.3587 29.7117C54.853 28.1131 60.4405 26.7938 65.7486 24.6674C71.3981 22.4014 76.0698 19.2042 80.7416 15.3395C85.0563 11.7853 89.3866 8.96048 95.0982 8.43278C100.81 7.90507 107.034 8.51038 112.854 9.47267C125.1 11.4904 137.051 15.0756 149.452 16.1155C155.831 16.6588 162.117 16.2552 168.418 15.1843C174.72 14.1134 180.881 12.4371 187.198 11.5524C196.34 10.2642 207.36 10.9471 213.878 18.366C220.04 25.3814 220.801 35.8113 228.266 41.9731C230.392 43.7269 232.705 44.953 235.235 46.0395C237.563 47.0328 240.201 47.9485 242.11 49.6713C245.882 53.0548 246.084 58.6889 245.711 63.3761C245.199 69.9569 244.004 76.2428 244.516 82.8701C245.028 89.4975 246.363 95.8455 246.922 102.364C247.667 111.149 246.844 122.432 238.991 128.051C234.583 131.217 228.995 132.148 224.06 134.197C219.124 136.246 214.763 139.319 210.402 142.423C206.428 145.248 202.315 148.212 197.566 149.516C191.901 151.068 186.05 149.376 180.369 148.771C173.85 148.073 167.89 149.656 161.791 151.798C156.095 153.815 150.321 155.538 144.33 156.438C138.339 157.339 132.612 157.385 126.931 156.268C120.909 155.073 115.725 152.093 109.967 150.152C97.4884 145.946 84.9166 151.099 73.1364 155.073C62.4116 158.704 49.9174 161.56 39.2547 156.112C35.1262 154.002 31.634 150.556 29.9267 146.195C27.9867 141.244 28.4833 136.137 30.3458 131.264C32.4101 125.878 36.1816 121.33 38.2924 115.991C40.2791 110.932 39.5496 105.53 36.1195 101.324C33.4499 98.0494 29.5853 96.3887 26.1086 94.1537C21.9025 91.4376 18.0068 98.1581 22.1974 100.859C25.255 102.83 29.5853 104.351 31.1994 107.827C33.2327 112.22 28.8093 117.388 26.745 121.082C23.8116 126.328 21.3438 131.885 20.9402 137.953C20.5367 144.022 22.2906 149.78 25.7051 154.452C33.1861 164.695 46.3942 168.001 58.5314 166.542C64.9725 165.766 71.1343 163.981 77.2494 161.871C83.3646 159.76 89.4953 157.354 95.9208 156.563C98.9008 156.19 102.005 156.174 104.938 156.811C107.872 157.447 110.774 158.735 113.599 159.977C119.636 162.631 125.736 164.307 132.348 164.711C138.96 165.114 145.277 164.354 151.547 162.957C157.817 161.56 163.731 158.999 169.924 157.307C176.116 155.616 182.154 156.904 188.517 157.633C194.881 158.363 200.344 157.323 205.823 154.529C210.588 152.108 214.747 148.709 219.155 145.729C221.406 144.208 223.718 142.765 226.202 141.663C228.685 140.561 231.401 139.8 234.009 138.9C239.705 136.929 244.827 134.259 248.536 129.386C251.718 125.211 253.549 120.104 254.341 114.951C256.265 102.131 251.873 89.7458 252.121 76.9567C252.261 70.438 254.17 63.9659 253.487 57.4162C252.851 51.3165 250.399 45.7446 245.168 42.2524C240.791 39.3345 235.343 38.5585 231.758 34.461C228.685 30.9533 227.071 26.204 225.131 22.0444C222.88 17.2175 220.056 12.8096 215.772 9.53475C211.488 6.25988 206.351 4.49052 201.105 3.76104C188.378 1.97616 176.38 6.33748 163.917 8.06028C151.454 9.78308 138.711 6.84967 126.372 4.19562C119.962 2.81428 113.521 1.52606 106.987 0.874189C100.453 0.222319 93.81 0.00502908 87.7104 2.06928C81.6107 4.13354 77.4357 8.26205 72.6087 12.0025C68.1077 15.5102 62.9548 17.6366 57.5381 19.2818C51.6713 21.0666 45.6492 22.4014 39.9376 24.6519C34.7537 26.6851 29.8026 29.2771 25.2705 32.5054C15.9891 39.1172 7.76316 48.1037 3.13798 58.6113C0.514981 64.5712 -0.866363 71.0589 0.592585 77.5155C1.81872 82.9012 5.04703 87.6816 9.02033 91.4376C12.9936 95.1936 17.5878 98.096 22.244 100.843C26.5587 103.389 30.47 96.6836 26.1552 94.1382L26.1086 94.1847Z" fill="#171717"/>
<path d="M57.3828 54.8864C63.0479 57.8819 69.0854 60.3652 75.4645 61.0171C81.8435 61.669 88.6105 60.3032 93.5771 56.2678C95.005 55.1037 96.2777 53.7224 97.1469 52.1082C99.3819 47.9021 98.5748 42.6871 96.6347 38.3413C94.6946 33.9955 90.9231 28.4546 88.7191 24.2485" fill="#BECBEB"/>
<path d="M55.4275 58.2389C67.7975 64.711 83.7683 68.9326 95.8434 59.4029C101.772 54.7157 103.542 47.5451 101.508 40.3901C99.6305 33.8248 95.2381 28.2529 92.0719 22.2929C89.7283 17.8695 83.0388 21.7962 85.3669 26.2041C89.3092 33.6541 100.5 46.3966 90.644 53.6758C80.7883 60.955 68.6356 56.3919 59.3542 51.5339C54.9308 49.2213 51.0041 55.9108 55.443 58.2389H55.4275Z" fill="#171717"/>
<path d="M54.4336 54.2344C55.52 55.3363 58.2517 59.558 58.888 60.9704C60.2073 63.8727 62.97 65.8283 65.593 67.6288C66.2914 68.1099 67.0364 68.6066 67.8901 68.5755C68.8834 68.5445 69.706 67.7995 70.2958 66.9924C71.3201 65.58 71.9254 63.8727 72.003 62.1344" fill="#BECBEB"/>
<path d="M51.7028 56.9817C51.8269 57.1058 51.9356 57.23 52.0442 57.3697C52.6495 58.0526 51.5475 56.6868 51.9511 57.2455C52.277 57.6956 52.603 58.1457 52.9134 58.5958C53.5342 59.5115 54.1395 60.4428 54.6983 61.3896C55.226 62.2742 55.6295 63.2365 56.1882 64.1057C57.0729 65.487 58.1749 66.7442 59.4166 67.8151C60.6582 68.8861 62.0396 69.8794 63.4054 70.8262C65.2368 72.0833 67.3321 72.8749 69.5671 72.192C73.6956 70.9503 75.6357 66.0613 75.884 62.1346C76.0082 60.1013 74.006 58.1612 72.0039 58.2544C69.7999 58.3475 68.2634 59.9616 68.1237 62.1346C68.1237 62.3208 68.0926 62.5226 68.0771 62.7088C68.1547 62.1656 68.1547 62.1035 68.0771 62.5381C67.9995 62.8175 67.9374 63.0968 67.8598 63.3762C67.7977 63.5625 67.7357 63.7487 67.6736 63.9194L67.8443 63.5314C67.8288 63.8263 67.4408 64.3074 67.2856 64.5558L67.1304 64.8041C66.882 65.1611 66.9131 65.1145 67.2235 64.6799C67.3321 64.711 66.1215 65.5491 67.1924 64.8041C66.8199 65.0059 66.8975 64.9904 67.3942 64.7576C67.6425 64.6799 67.8909 64.6799 68.1392 64.7576C68.4651 64.8196 68.4651 64.8196 68.1082 64.7265C68.6048 64.9438 68.6514 64.9593 68.2789 64.7576C67.7822 64.4161 67.27 64.0902 66.7734 63.7487C66.3388 63.4383 65.8111 62.8795 65.3144 62.6933C65.7335 63.0192 65.7801 63.0503 65.4386 62.7864C65.3299 62.6933 65.2213 62.6157 65.1127 62.5226C64.8643 62.3208 64.6315 62.1035 64.3832 61.8862C63.9486 61.4827 63.5451 61.0636 63.157 60.6135C62.5207 59.8685 63.4209 61.0947 63.0329 60.4273C62.8932 60.1945 62.738 59.9772 62.5983 59.7444C62.381 59.3563 62.2103 58.9528 61.993 58.5493C61.605 57.8043 61.1549 57.0903 60.7203 56.3919C59.6649 54.7156 58.5474 52.9308 57.166 51.5029C55.7847 50.0749 53.0686 49.9818 51.6717 51.5029C50.2749 53.0239 50.1817 55.4141 51.6717 56.9972L51.7028 56.9817Z" fill="#171717"/>
<path d="M33.8391 62.9105C28.2671 65.5025 25.194 69.9569 22.6642 75.5444C22.1209 76.7395 21.6708 78.0898 22.0123 79.3625C22.3537 80.6197 23.4557 81.5664 24.6508 82.0631C25.8459 82.5598 27.1807 82.6684 28.4844 82.7926C29.7106 82.9012 30.9677 83.0099 32.1939 82.7926C33.808 82.5132 35.267 81.6751 36.6794 80.868C38.4022 79.8747 40.1405 78.8813 41.6305 77.5621C44.8122 74.7528 46.6747 70.5002 46.5816 66.2475C46.5505 64.742 46.2246 63.1278 45.1692 62.0569C44.0827 60.9394 42.422 60.6135 40.8544 60.5824C38.3246 60.5359 35.7016 61.2188 33.8391 62.926" fill="#BECBEB"/>
<path d="M31.8829 59.5581C27.0094 61.8707 23.331 65.9216 20.7701 70.6244C19.187 73.5423 17.3245 76.9879 18.2713 80.3869C19.3422 84.2516 23.0827 86.0054 26.7456 86.471C30.4085 86.9366 33.5281 86.797 36.8185 85.1828C39.5812 83.8325 42.406 82.1407 44.641 80.0299C48.9713 75.979 51.765 68.8084 49.9801 62.9261C47.4813 54.7001 36.446 55.4917 31.0759 60.1634C29.5393 61.4982 29.6014 64.3074 31.0759 65.6577C32.7211 67.1632 34.925 67.0856 36.5702 65.6577C37.1755 65.13 36.803 65.487 36.6788 65.5646C36.8806 65.4249 37.0979 65.3008 37.3152 65.1766C37.5325 65.0524 37.7653 64.9283 37.9826 64.8351C37.7963 64.9127 37.4394 65.0059 38.1223 64.8351C38.6189 64.6954 39.1001 64.5713 39.5967 64.4782C39.5191 64.4782 39.0535 64.5402 39.5191 64.4937C39.8296 64.4626 40.1555 64.4471 40.4659 64.4471C40.6522 64.4471 42.0335 64.5558 41.2575 64.4471C41.4592 64.4782 42.6698 64.8817 42.049 64.5868C42.1266 64.6178 42.6698 64.9283 42.6543 64.9438C42.5767 65.0214 42.2508 64.5713 42.2818 64.5868C42.2818 64.5868 42.6233 65.13 42.437 64.7886C42.2508 64.4471 42.5767 65.2852 42.6078 65.3939C42.8095 66.1078 42.6698 65.7043 42.6543 65.5025C42.6854 65.7509 42.6854 66.0147 42.7009 66.263C42.7009 66.7752 42.6854 67.2874 42.6543 67.7996C42.6543 67.9238 42.5302 68.5446 42.6543 67.9238C42.6078 68.1721 42.5612 68.4359 42.4991 68.6843C42.3905 69.1809 42.2508 69.6776 42.0801 70.1743C42.0025 70.4226 41.9093 70.6554 41.8162 70.9037C42.0335 70.3605 41.7852 70.9503 41.7386 71.0434C41.5058 71.509 41.273 71.9591 40.9936 72.3937C40.8539 72.611 40.7142 72.8283 40.5745 73.0456C40.528 73.1232 40.14 73.6199 40.4814 73.1853C40.1244 73.6354 39.7209 74.0544 39.3018 74.458C38.5879 75.1409 38.2464 75.3892 37.2686 76.0256C36.2908 76.6619 35.2199 77.2672 34.1645 77.857C33.7454 78.0898 33.3264 78.3226 32.8918 78.5399C32.2089 78.8969 32.5193 78.7107 32.69 78.6486C32.4417 78.7417 32.1778 78.8348 31.914 78.9124C30.9207 79.1918 29.9429 79.0832 28.6857 78.99C27.4285 78.8969 27.1957 78.9435 26.0627 78.5399C26.5593 78.7262 26.0316 78.5089 25.9385 78.4623C25.1159 78.0122 25.8143 78.4313 25.8454 78.4468L25.7212 78.3226C25.535 78.1209 25.5505 78.1674 25.7678 78.4313C25.2866 78.2606 25.9696 77.9657 25.7367 78.4934C25.5971 78.8038 25.8454 77.8881 25.7678 78.2295C25.6902 78.571 25.9385 77.7484 25.9696 77.6708C26.1092 77.2672 26.0316 77.469 25.9851 77.5621C26.0782 77.3293 26.1868 77.112 26.2955 76.8792C26.7301 75.948 27.1957 75.0322 27.7079 74.132C28.2201 73.2318 28.7788 72.3316 29.3841 71.478C29.4462 71.4004 29.8808 70.8106 29.6014 71.1831C29.322 71.5556 29.8808 70.8417 29.9429 70.7796C30.2688 70.3916 30.6102 70.0191 30.9672 69.6466C31.3242 69.2741 31.6967 68.9326 32.0847 68.5912C32.2554 68.4359 32.4417 68.2963 32.6124 68.1566C32.1778 68.5135 32.5659 68.2031 32.7987 68.0324C33.7299 67.3805 34.7388 66.8218 35.7631 66.3251C37.5946 65.456 38.2309 62.6778 37.16 61.017C35.9494 59.1235 33.823 58.6889 31.8519 59.6202L31.8829 59.5581Z" fill="#171717"/>
<path d="M31.2307 68.5292C30.1442 70.5624 28.8871 74.8306 29.5234 76.4913C30.0822 77.9658 31.7584 78.6642 33.2949 78.9902C34.3193 79.2075 35.4058 79.3316 36.4146 79.0212C37.3303 78.7263 38.1064 78.09 38.7893 77.4071C40.8846 75.3273 42.4677 72.2852 41.614 69.4605C40.9777 67.3496 38.9445 65.7665 36.7561 65.5803C34.5676 65.394 32.3327 66.6202 31.2462 68.5292" fill="#171717"/>
<path d="M27.8779 66.5732C27.133 67.9856 26.5432 69.5221 26.1241 71.0742C25.705 72.6263 25.3636 74.2404 25.4878 75.7925C25.6895 78.2603 26.9777 80.3401 29.1662 81.5662C30.9355 82.5595 33.3102 83.1804 35.3434 83.0717C40.0927 82.8234 43.7401 78.6018 45.1991 74.3491C46.658 70.0964 44.9352 65.2229 40.993 62.9569C36.4143 60.3183 30.532 62.0877 27.8779 66.5732C26.8381 68.327 27.4278 70.9035 29.2748 71.8813C31.1218 72.8591 33.4809 72.3469 34.5829 70.4844C34.676 70.3292 34.8312 70.1585 34.9088 69.9878C34.5208 70.4844 34.4122 70.6086 34.6139 70.3758C34.676 70.2982 34.7381 70.2206 34.8157 70.1585C34.9554 70.0188 35.1261 69.8946 35.2503 69.7549C34.645 70.4223 34.7536 70.1119 35.1106 69.8791C35.2813 69.7705 35.4521 69.6773 35.6228 69.5842C36.1971 69.2428 34.7381 69.8636 35.421 69.6618C35.809 69.5532 36.1815 69.4445 36.5851 69.3669L35.5607 69.5066C36.0263 69.4445 36.4764 69.4445 36.942 69.4911L35.9177 69.3514C36.1815 69.3824 36.4299 69.429 36.6782 69.5066C36.8024 69.5377 36.9265 69.5842 37.0507 69.6153C37.5784 69.7705 36.6627 69.5066 36.6627 69.4445C36.6627 69.5066 37.268 69.7705 37.3456 69.817C37.3766 69.8481 37.6405 70.0498 37.6715 70.0343C37.5784 70.0654 36.8644 69.3669 37.4077 69.8636C37.5474 70.0033 38.1061 70.6551 37.687 70.1119C37.268 69.5687 37.7802 70.2671 37.8578 70.4379C37.9354 70.5775 38.1216 71.0121 37.8733 70.4068C37.625 69.8015 37.8112 70.2516 37.8578 70.4068C37.9509 70.7017 38.013 71.0121 38.0751 71.307L37.9354 70.2826C37.9975 70.8259 37.9975 71.3691 37.9354 71.9123L38.0751 70.888C38.0285 71.2294 37.9509 71.5709 37.8578 71.8968C37.7957 72.0986 37.7336 72.3003 37.656 72.4866C37.4387 73.1074 37.9819 71.8192 37.7646 72.2383C37.5939 72.5487 37.4387 72.8746 37.2525 73.185C37.1593 73.3402 37.0662 73.4954 36.9576 73.6351C36.7558 73.93 36.3523 74.2249 37.0507 73.542C36.5385 74.0387 36.0729 74.6129 35.5607 75.1251C35.0175 75.6683 36.2902 74.675 35.6383 75.0785C35.4831 75.1717 35.3124 75.2648 35.1572 75.3734C34.9709 75.4666 35.033 75.451 35.3279 75.3269C35.6538 75.2027 35.6693 75.1872 35.3745 75.2958C35.1416 75.3424 34.9088 75.4045 34.676 75.451L35.7004 75.3114C35.2192 75.3579 34.7381 75.3424 34.257 75.3114L35.2813 75.451C34.7071 75.3734 34.1328 75.2648 33.574 75.0941C33.3878 75.032 33.2016 74.9699 33.0153 74.9078C32.3945 74.6905 33.931 75.389 33.0619 74.9078C32.9532 74.8457 32.8446 74.7837 32.7359 74.706C32.41 74.4732 32.5342 74.5664 33.0774 74.9699L32.9377 74.8457C32.6738 74.5508 32.7515 74.675 33.186 75.2182C32.8291 74.3646 33.2636 75.7925 33.186 75.389C33.155 75.2338 33.1084 75.0785 33.0929 74.9233L33.2326 75.9477C33.1705 75.389 33.2016 74.8302 33.2792 74.287L33.1395 75.3114C33.2792 74.3025 33.5275 73.3092 33.8379 72.3314C33.9931 71.8658 34.1483 71.4001 34.3346 70.95C34.6139 70.2206 33.9465 71.7726 34.2725 71.1052C34.3656 70.9035 34.4587 70.7017 34.5674 70.4999C35.5141 68.6995 35.0796 66.2007 33.1705 65.1918C31.3856 64.2451 28.8713 64.6641 27.8624 66.5887L27.8779 66.5732Z" fill="#171717"/>
<path d="M106.739 19.7164C106.258 21.5168 105.559 23.2396 104.659 24.8693C103.728 26.5611 102.548 28.4546 103.169 30.3015C103.681 31.8536 105.389 32.7538 107.018 32.8314C108.648 32.909 110.231 32.3503 111.768 31.8071C114.034 30.9845 116.439 30.0843 117.945 28.1907C118.566 27.4147 119.016 26.499 119.388 25.5832C120.304 23.3948 120.925 20.9736 120.397 18.661C119.869 16.3484 117.867 14.2531 115.493 14.2686C114.515 14.2686 113.552 14.6411 112.683 15.0912C109.89 16.5502 107.794 16.7364 106.739 19.7164Z" fill="#BECBEB"/>
<path d="M102.983 18.692C102.828 19.2662 102.642 19.8405 102.44 20.4148C102.347 20.6786 102.254 20.927 102.161 21.1753C101.788 22.1841 102.518 20.4924 102.037 21.4547C101.509 22.5101 100.919 23.5189 100.407 24.5743C99.0721 27.2904 98.4513 30.4722 100.267 33.1418C101.897 35.5475 104.799 36.8512 107.686 36.696C110.573 36.5408 113.196 35.4543 115.741 34.3524C118.116 33.328 120.149 31.807 121.608 29.6496C122.958 27.6474 123.859 25.0555 124.216 22.6808C124.635 19.8405 124.371 16.814 122.648 14.4083C120.925 12.0025 118.426 10.3418 115.462 10.3729C112.761 10.4039 110.185 11.8939 107.81 13.0735C105.436 14.253 103.899 16.1931 102.968 18.6764C102.254 20.5855 103.759 23.0067 105.684 23.4568C107.888 23.9535 109.688 22.7894 110.464 20.7407C110.744 19.9957 110.387 20.9425 110.371 20.9425C110.371 20.9425 110.573 20.57 110.604 20.5234C110.651 20.4458 110.821 20.244 110.852 20.1509C110.666 20.7717 110.371 20.6941 110.651 20.4458C111.396 19.8095 110.107 20.7252 110.651 20.3993C110.945 20.213 111.24 20.0268 111.551 19.8715C112.094 19.5922 112.653 19.3594 113.211 19.111C113.522 18.9713 113.832 18.8317 114.143 18.6764C114.313 18.5988 114.469 18.5212 114.624 18.4281C115.26 18.0867 114.329 18.4747 114.748 18.3505C114.95 18.2884 115.183 18.2419 115.369 18.1487C115.85 17.9159 114.779 18.1177 115.307 18.1487C116.331 18.1953 114.67 17.9004 115.586 18.1487C116.502 18.3971 114.95 17.8849 115.819 18.2884C116.269 18.4902 115.307 17.7918 115.664 18.1487C115.819 18.304 115.974 18.4592 116.145 18.5988C116.657 19.0645 116.036 18.5523 116.036 18.4281C116.036 18.4747 116.285 18.8006 116.331 18.8782C116.331 18.8782 116.595 19.3128 116.579 19.3438C116.579 19.3128 116.331 18.5833 116.486 19.1576C116.564 19.4214 116.704 20.4148 116.657 19.6232C116.704 20.182 116.688 20.7407 116.657 21.2995C116.657 21.1442 116.812 20.5389 116.657 21.2684C116.611 21.4857 116.564 21.7185 116.517 21.9358C116.409 22.3859 116.285 22.8205 116.129 23.2395C116.052 23.4879 115.571 24.6519 115.912 23.8604C115.726 24.2794 115.54 24.683 115.322 25.071C115.214 25.2572 114.981 25.8315 114.764 25.9557C115.152 25.7384 115.089 25.5832 114.81 25.847C114.67 25.9712 114.531 26.1109 114.407 26.2506C113.832 26.8403 114.515 26.1264 114.531 26.1885C114.531 26.204 114.127 26.4679 114.065 26.5144C113.662 26.7783 113.227 27.0111 112.808 27.2128C112.637 27.306 112.451 27.3836 112.28 27.4612C112.063 27.5543 111.737 27.8182 112.389 27.4146C112.078 27.6164 111.644 27.7095 111.287 27.8337C110.387 28.1596 109.486 28.5011 108.571 28.7494C108.353 28.8115 108.105 28.8425 107.888 28.9046C107.345 29.0909 108.462 28.9046 107.888 28.9046C107.655 28.9046 107.422 28.9356 107.189 28.9201H107.019C106.677 28.8891 106.677 28.8891 107.019 28.9201L107.283 28.9512C107.158 28.9201 107.034 28.8891 106.91 28.858C106.615 28.7804 106.491 28.5321 106.755 28.827C107.065 29.1685 106.879 28.827 106.646 28.7339C106.289 28.5787 107.127 29.3081 106.724 28.796C106.32 28.2838 106.801 28.9356 106.848 28.9977C106.693 28.7028 106.677 28.7028 106.817 28.9977C106.941 29.3237 106.941 29.3081 106.817 28.9356C106.848 29.1529 106.77 29.6962 106.863 29.0909C106.786 29.5875 106.755 29.5875 106.879 29.0909C106.926 28.8891 107.003 28.7028 107.065 28.5166C107.189 28.0975 106.77 29.0909 107.112 28.439C107.36 27.9734 107.608 27.5077 107.857 27.0421C108.959 25.0399 109.859 22.8981 110.48 20.6941C111.023 18.7385 109.812 16.3794 107.764 15.9138C105.715 15.4481 103.573 16.5346 102.983 18.6299V18.692Z" fill="#171717"/>
<path d="M108.54 23.0845C107.22 24.233 107.205 24.7762 107.22 26.0179C107.22 26.6077 107.267 27.2596 107.67 27.6786C107.965 27.9735 108.4 28.0977 108.803 28.2063C109.936 28.5012 111.147 28.7806 112.28 28.5167C114.453 27.989 115.679 25.5368 115.633 23.2863C115.617 22.6654 115.524 22.0446 115.244 21.5014C114.577 20.1976 112.87 19.6078 111.457 20.0114C110.045 20.4149 108.974 21.6876 108.555 23.1" fill="#BECBEB"/>
<path d="M105.792 20.3529C104.706 21.3152 103.759 22.5724 103.495 24.0313C103.371 24.7608 103.309 25.4282 103.325 26.1577C103.356 27.2441 103.526 28.3926 104.085 29.3549C105.187 31.2174 107.158 31.9469 109.176 32.2728C110.045 32.4125 110.914 32.5677 111.799 32.4746C113.01 32.3659 113.987 32.1176 115.074 31.5433C117.868 30.0534 119.264 26.9027 119.482 23.8761C119.59 22.293 119.249 20.4771 118.333 19.1733C117.293 17.6833 115.741 16.5038 113.925 16.1934C112.73 15.9916 111.814 15.9761 110.619 16.2244C109.797 16.3951 108.974 16.7831 108.276 17.2643C106.568 18.4749 105.404 20.0735 104.784 22.0757C104.489 23.0225 104.69 24.2331 105.172 25.0712C105.653 25.9093 106.568 26.6388 107.484 26.8561C109.595 27.3372 111.613 26.2197 112.265 24.14C112.311 23.9848 112.373 23.8295 112.435 23.6743L112.047 24.6056C112.234 24.1865 112.451 23.7985 112.73 23.4415L112.125 24.2331C112.358 23.9382 112.606 23.6899 112.901 23.4571L112.109 24.0624C112.404 23.8451 112.715 23.6588 113.056 23.5191L112.125 23.9072C112.389 23.814 112.637 23.7364 112.916 23.6899L111.892 23.8296C112.202 23.7985 112.497 23.783 112.792 23.8296L111.768 23.6899C112.109 23.7364 112.435 23.8295 112.746 23.9537L111.814 23.5657C112.063 23.6743 112.28 23.7985 112.497 23.9537L111.706 23.3484C111.908 23.5191 112.094 23.6899 112.249 23.8916L111.644 23.1001C111.783 23.3018 111.908 23.5036 112.001 23.7364L111.613 22.8052C111.737 23.1156 111.799 23.4415 111.845 23.7675L111.706 22.7431C111.752 23.2398 111.752 23.7364 111.706 24.2486L111.845 23.2242C111.768 23.7675 111.628 24.2952 111.426 24.8229L111.814 23.8916C111.628 24.3262 111.411 24.7298 111.132 25.1022L111.737 24.3107C111.504 24.6056 111.24 24.885 110.945 25.1178L111.737 24.5125C111.473 24.7142 111.178 24.885 110.868 25.0246L111.799 24.6366C111.473 24.7608 111.132 24.8539 110.79 24.9005L111.814 24.7608C111.395 24.8074 110.976 24.7918 110.542 24.7453L111.566 24.885C110.775 24.7763 109.952 24.6211 109.222 24.3262L110.154 24.7142C109.999 24.6521 109.859 24.5745 109.719 24.4659L110.511 25.0712C110.511 25.0712 110.387 24.9626 110.34 24.885L110.945 25.6765C110.868 25.5679 110.821 25.4747 110.759 25.3661L111.147 26.2973C111.069 26.0956 111.023 25.8938 110.992 25.692L111.132 26.7164C111.085 26.1887 111.069 25.63 111.132 25.1022L110.992 26.1266C111.023 25.9248 111.069 25.7386 111.132 25.5679L110.744 26.4991C110.837 26.2973 110.945 26.1111 111.069 25.9404L110.464 26.7319C110.712 26.4215 110.992 26.1577 111.287 25.8938C112.001 25.2575 112.42 24.0779 112.42 23.1466C112.42 22.2154 112.001 21.0513 111.287 20.3995C110.573 19.7476 109.579 19.2199 108.54 19.2665C107.5 19.313 106.599 19.701 105.792 20.3995V20.3529Z" fill="#171717"/>
<path d="M203.666 154.902C204.659 160.024 205.668 165.161 206.662 170.283C207.407 174.085 208.152 177.935 209.905 181.38" fill="#BECBEB"/>
<path d="M199.925 155.926C200.841 160.629 201.757 165.332 202.672 170.035C203.588 174.737 204.473 179.114 206.553 183.351C207.468 185.229 210.153 185.742 211.861 184.748C213.785 183.631 214.173 181.334 213.258 179.44C211.504 175.87 210.836 171.478 210.06 167.474L207.422 153.878C207.018 151.813 204.55 150.649 202.641 151.161C200.484 151.751 199.537 153.878 199.925 155.942V155.926Z" fill="#171717"/>
<path d="M252.836 108.029C260.596 109.038 268.357 110.063 276.117 111.071L252.836 108.029Z" fill="#BECBEB"/>
<path d="M252.836 111.909C260.596 112.918 268.357 113.943 276.117 114.951C278.135 115.215 280.09 112.98 279.997 111.071C279.889 108.743 278.29 107.47 276.117 107.191C268.357 106.182 260.596 105.158 252.836 104.149C250.818 103.885 248.863 106.12 248.956 108.029C249.064 110.357 250.663 111.63 252.836 111.909Z" fill="#171717"/>
<path d="M45.4326 53.8463C54.2949 55.3208 63.7781 52.5426 70.452 46.5206C72.2059 44.9374 73.7579 43.1526 75.31 41.3677C81.1613 34.6006 86.9971 27.6163 90.5824 19.4214" fill="#BECBEB"/>
<path d="M44.4077 57.5872C55.0083 59.2324 65.8573 56.2058 73.7263 48.7869C77.7462 44.9843 81.2849 40.4989 84.6839 36.1531C88.2847 31.5434 91.5596 26.732 93.9343 21.3773C94.7879 19.4683 94.493 17.2023 92.5374 16.0692C90.8767 15.107 88.083 15.5415 87.2293 17.4661C83.1784 26.5613 76.5511 34.6165 69.7219 41.8026C63.793 48.0419 55.0859 51.4565 46.4564 50.1217C44.3921 49.7958 42.2813 50.6494 41.676 52.8378C41.1638 54.6848 42.2968 57.2923 44.3921 57.6182L44.4077 57.5872Z" fill="#171717"/>
</g>
<defs>
<clipPath id="clip0_6174_7981">
<rect width="280" height="184.826" fill="white" transform="translate(0 0.418823)"/>
</clipPath>
</defs>
</svg>
