<svg width="280" height="297" viewBox="0 0 280 297" fill="none" xmlns="http://www.w3.org/2000/svg">
<g clip-path="url(#clip0_6174_7988)">
<path d="M170.075 111.202C177.993 123.735 189.59 139.161 198.293 151.156C201.692 155.846 205.35 160.795 205.791 166.561C206.103 170.617 204.769 174.629 203.166 178.373C199.132 187.797 193.226 196.424 185.91 203.6C183.953 205.514 181.866 207.354 179.37 208.494C176.874 209.635 177.078 209.108 174.561 208.032" fill="#BECBEB"/>
<path d="M167.751 112.557C176.067 125.692 185.469 138.107 194.613 150.661C198.862 156.492 204.392 162.946 202.864 170.692C202.1 174.586 200.39 178.287 198.593 181.805C196.797 185.322 194.785 188.625 192.515 191.798C189.977 195.348 187.115 198.662 183.995 201.706C182.522 203.148 181.005 204.525 179.208 205.557C178.789 205.794 178.358 206.031 177.906 206.224C177.745 206.289 177.455 206.311 177.336 206.429C177.121 206.644 177.336 206.332 177.541 206.483C177.896 206.752 177.433 206.343 177.455 206.45C177.487 206.569 177.724 206.569 177.369 206.407C176.874 206.181 176.4 205.934 175.906 205.719C174.582 205.127 173.012 205.332 172.226 206.687C171.559 207.838 171.861 209.774 173.195 210.366C174.905 211.13 176.411 212.109 178.358 211.711C180.305 211.313 182.113 210.205 183.64 209.086C187.083 206.569 190.052 203.384 192.795 200.136C198.411 193.498 202.961 186.032 206.221 177.975C207.953 173.693 208.975 169.164 208.211 164.549C207.533 160.44 205.392 156.685 203.079 153.297C198.432 146.498 193.376 139.968 188.546 133.298C182.973 125.617 177.455 117.882 172.377 109.857C170.527 106.942 165.869 109.631 167.73 112.568L167.751 112.557Z" fill="#171717"/>
<path d="M86.229 45.9135C90.758 38.7273 93.4044 33.2517 96.04 26.2592C100.849 13.5006 113.446 4.05535 127.044 3.03337C140.641 2.01139 154.519 9.4557 161.178 21.3537C168.256 33.994 167.116 49.3882 166.879 63.868C166.621 79.6926 167.697 95.5494 170.074 111.202C173.119 131.211 178.304 150.984 178.853 171.219C179.724 203.664 168.116 236.174 147.429 261.196C141.954 267.823 135.768 274.019 128.345 278.365C109.778 289.241 85.8633 286.961 66.1982 278.225C33.9144 263.896 9.72041 232.634 3.96505 197.79C-1.79031 162.935 11.0544 125.563 37.0234 101.617C43.0262 96.0765 49.6529 91.2463 55.5589 85.6093C64.9396 76.6804 72.3516 65.9335 79.6991 55.2726C82.0873 51.8087 83.83 49.399 86.2183 45.935" fill="#BECBEB"/>
<path d="M88.5536 47.2798C91.8563 42.03 94.7393 36.5866 97.1168 30.8528C98.128 28.4215 98.9456 25.9365 100.193 23.6129C101.441 21.2892 102.861 19.213 104.572 17.2873C111.252 9.76773 121.02 5.19572 131.143 5.66905C141.266 6.14239 151.077 11.4567 156.908 19.611C163.911 29.4112 164.524 41.8579 164.406 53.4869C164.341 59.8232 164.116 66.1595 164.202 72.5065C164.298 79.5205 164.664 86.5345 165.277 93.527C166.504 107.415 169.01 121.067 171.538 134.761C174.066 148.456 176.25 161.397 176.218 174.93C176.186 186.753 174.486 198.511 171.291 209.882C168.064 221.35 163.33 232.355 157.241 242.596C151.153 252.837 143.827 262.681 134.79 270.448C126.098 277.914 115.362 282.12 103.937 282.851C92.5125 283.583 80.7543 281.238 70.0182 276.945C50.6759 269.211 34.0015 254.849 22.5768 237.529C11.1522 220.209 4.6115 198.748 5.36453 177.383C6.13909 155.513 13.8631 134.008 27.052 116.548C30.2578 112.31 33.8401 108.34 37.6806 104.672C42.4032 100.164 47.5777 96.1734 52.5369 91.9241C62.4017 83.4686 70.3409 73.3671 77.7745 62.76C81.3783 57.6071 84.9821 52.4542 88.5536 47.2798C89.382 46.0857 88.7796 44.2891 87.5855 43.6006C86.2515 42.8153 84.7347 43.364 83.9063 44.5688C76.4297 55.391 69.1898 66.579 60.5299 76.4976C56.0977 81.5752 51.1815 86.115 46.007 90.4288C40.8326 94.7426 35.9916 98.6369 31.4519 103.273C15.509 119.561 4.94498 141.033 1.36268 163.506C-2.20887 185.946 1.26586 208.796 11.4857 229.106C21.7054 249.417 37.0136 265.37 56.0762 276.139C76.4728 287.66 102.399 293.05 124.549 283.314C136.135 278.215 145.053 268.802 152.637 258.926C160.243 249.04 166.407 238.164 171.162 226.643C175.852 215.261 178.972 203.309 180.521 191.099C182.21 177.867 181.586 164.646 179.736 151.457C177.767 137.375 174.572 123.498 172.485 109.427C170.398 95.3558 169.43 81.0804 169.516 66.848C169.591 54.3153 170.807 41.3738 167.268 29.1531C164.008 17.9221 156.23 8.54136 145.483 3.78646C134.736 -0.968432 123.505 -0.817824 113.199 4.10919C108.38 6.41133 103.98 9.77849 100.473 13.8019C98.6659 15.8781 97.0415 18.148 95.7075 20.5577C94.2982 23.1288 93.3408 25.8827 92.2435 28.5937C89.9737 34.1877 87.0906 39.4697 83.8848 44.5688C82.0345 47.5057 86.6926 50.2058 88.5321 47.2798H88.5536Z" fill="#171717"/>
<path d="M112.651 41.4815C110.005 42.3959 109.112 46.0427 111.005 47.9899C112.898 49.937 116.782 49.6035 118.331 47.4089C119.88 45.2144 118.804 41.8687 116.255 40.7284C115.491 40.3842 114.609 40.2228 113.77 40.3519C111.661 40.6746 110.284 42.9122 110.715 44.8486C111.134 46.785 113.038 48.2696 115.114 48.6891" fill="#171717"/>
<path d="M148.312 41.6211C145.666 42.5355 144.773 46.1824 146.666 48.1295C148.559 50.0766 152.443 49.7432 153.992 47.5486C155.541 45.354 154.465 42.0084 151.916 40.8681C151.152 40.5238 150.27 40.3625 149.431 40.4916C147.322 40.8143 145.945 43.0519 146.376 44.9883C146.795 46.9246 148.699 48.4092 150.776 48.8288" fill="#171717"/>
<path d="M108.25 75.1743C111.101 83.4362 116.437 90.8267 123.386 96.1303C124.107 96.6789 125 97.2275 125.85 96.9263C126.904 96.5498 127.119 95.1836 127.162 94.0648C127.216 92.4834 125.484 88.5461 124.946 86.0934" fill="#BECBEB"/>
<path d="M105.658 75.8844C107.809 82.0163 111.112 87.6318 115.458 92.462C117.534 94.7642 119.944 97.2169 122.601 98.8413C124.365 99.9279 126.786 100.057 128.303 98.4648C129.432 97.2922 129.873 95.571 129.841 93.9789C129.798 91.0205 128.184 88.2127 127.528 85.3727C126.743 82.0056 121.557 83.4256 122.343 86.8035C122.666 88.1697 123.139 89.4929 123.58 90.8161C123.806 91.4831 124.021 92.1501 124.215 92.817C124.311 93.1398 124.376 93.4733 124.462 93.8067C124.623 94.4199 124.527 93.3979 124.473 93.8928C124.462 94.0004 124.376 94.8502 124.451 94.4952C124.419 94.6889 124.365 94.8717 124.301 95.0546L124.333 94.904C124.623 94.4522 125.043 94.2586 125.602 94.3554C125.678 94.4737 125.581 94.4199 125.312 94.2048C125.301 94.194 124.752 93.8067 124.742 93.796C123.397 92.7848 122.149 91.6122 120.955 90.4288C116.448 85.9429 112.951 80.4565 110.854 74.4537C110.369 73.0874 109.014 72.173 107.54 72.5711C106.206 72.9368 105.184 74.5075 105.658 75.8844Z" fill="#171717"/>
<path d="M98.1924 131.06C116.437 138.634 129.368 155.427 137.996 173.198C134.865 166.389 136.113 158.31 133.596 151.253C132.23 147.444 129.82 144.077 128.475 140.258C127.131 136.429 126.905 132.308 126.7 128.253C126.528 124.929 126.41 121.389 128.045 118.485C130.476 114.182 136.178 112.654 141.04 113.59C147.527 114.838 152.906 119.604 156.413 125.198C159.92 130.792 161.824 137.225 163.685 143.572C165.062 148.251 166.428 152.92 167.805 157.6C170.495 166.754 173.195 175.963 174.185 185.451C175.174 194.94 174.378 204.815 170.333 213.454C168.849 216.627 166.826 219.704 163.803 221.479C158.457 224.62 151.701 222.888 145.774 221.07C137.598 218.563 129.336 216.035 121.902 211.808C110.854 205.525 102.173 195.854 94.0292 186.097C91.329 182.859 88.6288 179.545 86.8753 175.716C85.5413 172.79 84.7775 169.616 84.6377 166.399" fill="#BECBEB"/>
<path d="M97.4824 133.653C111.188 139.398 121.741 150.801 129.454 163.215C131.735 166.884 133.79 170.67 135.683 174.554C136.318 175.856 138.179 176.211 139.362 175.522C140.728 174.726 140.922 173.177 140.33 171.843C138.534 167.798 138.415 163.205 137.899 158.869C137.609 156.427 137.264 153.985 136.554 151.629C135.844 149.273 134.79 147.154 133.682 145.024C132.628 143.012 131.53 141.022 130.842 138.849C130.153 136.676 129.798 134.266 129.616 131.911C129.433 129.555 129.261 127.177 129.314 124.81C129.347 122.885 129.594 120.798 130.777 119.206C132.8 116.462 136.748 115.677 139.943 116.118C143.687 116.624 147.14 118.732 149.829 121.303C156.574 127.747 159.006 137.139 161.544 145.799C164.47 155.76 167.719 165.7 169.903 175.856C171.936 185.279 172.84 195.209 170.549 204.686C169.548 208.806 168.053 213.249 165.353 216.595C162.652 219.941 158.769 220.866 154.573 220.414C150.055 219.93 145.612 218.252 141.309 216.885C136.597 215.39 131.896 213.787 127.421 211.657C118.955 207.634 111.812 201.685 105.389 194.94C102.205 191.605 99.2037 188.098 96.2453 184.559C93.3622 181.116 90.3178 177.502 88.7579 173.231C87.9511 171.025 87.4778 168.756 87.3594 166.41C87.1873 162.968 81.8085 162.946 81.9806 166.41C82.2603 171.886 84.0568 177.007 87.1335 181.536C89.9951 185.753 93.4375 189.615 96.7832 193.444C103.41 201.029 110.693 208.236 119.374 213.443C123.979 216.208 128.97 218.305 134.026 220.102C139.082 221.898 143.934 223.501 148.979 224.771C154.025 226.04 159.231 226.578 164.008 224.394C168.451 222.372 171.269 218.047 173.152 213.723C182.221 192.864 174.292 170.122 168.279 149.618C165.31 139.516 162.911 128.629 156.166 120.249C150.658 113.407 141.029 108.222 132.24 111.74C127.421 113.665 124.656 117.635 124.065 122.756C123.785 125.219 123.979 127.726 124.129 130.2C124.291 132.943 124.538 135.719 125.151 138.408C126.313 143.464 129.54 147.552 131.165 152.404C132.789 157.256 132.725 162.398 133.542 167.368C133.951 169.874 134.661 172.23 135.694 174.554L140.341 171.843C133.413 157.621 123.936 144.196 110.876 134.998C107.143 132.373 103.141 130.232 98.9347 128.468C97.59 127.909 95.9763 129.07 95.6213 130.351C95.191 131.9 96.1592 133.094 97.5039 133.664L97.4824 133.653Z" fill="#171717"/>
<path d="M98.4187 253.623C104.185 250.761 109.822 247.663 115.298 244.296C120.773 240.929 125.98 237.142 131.531 233.893C137.082 230.644 142.536 228.428 148.549 226.976C154.111 225.631 160.738 224.373 166.321 226.18C171.506 227.858 175.379 232.333 178.961 236.206C183.318 240.918 187.492 245.802 191.462 250.826C195.431 255.85 199.229 260.787 202.402 266.199C205.393 271.287 207.233 276.859 209.363 282.335C210.621 285.562 211.955 288.79 213.666 291.813C214.419 293.147 215.247 294.879 216.57 295.728C218.259 296.815 220.465 296.137 222.315 295.901C229.899 294.9 237.483 293.91 245.067 292.91C246.509 292.716 247.757 291.813 247.757 290.221C247.757 288.919 246.52 287.337 245.067 287.531C238.182 288.435 231.308 289.338 224.423 290.242C223.713 290.339 223.014 290.425 222.304 290.522C221.594 290.619 220.335 290.575 219.658 290.866L219.131 290.93L219.755 291.458C219.755 291.458 219.195 290.586 219.131 290.479C218.679 289.758 218.259 289.026 217.861 288.284C216.506 285.767 215.398 283.131 214.376 280.474C212.192 274.794 210.245 268.985 207.168 263.703C203.909 258.098 199.874 252.924 195.883 247.824C191.892 242.725 187.772 237.874 183.437 233.151C179.51 228.869 175.39 224.287 169.99 221.877C164.116 219.252 157.575 219.855 151.4 220.909C145.161 221.963 139.104 223.975 133.424 226.761C126.905 229.956 121.064 234.313 114.943 238.186C108.821 242.058 102.291 245.716 95.697 248.986C92.5988 250.525 95.3205 255.161 98.408 253.634L98.4187 253.623Z" fill="#171717"/>
<path d="M127.668 260.228C135.919 254.494 144.827 249.664 154.208 246.028C156.585 245.103 158.995 244.253 161.426 243.478C162.459 243.145 163.621 242.628 164.718 242.628C165.74 242.628 166.568 243.328 167.353 243.909C171.56 247.039 175.734 250.202 180.134 253.074C184.533 255.946 188.998 258.496 193.731 260.637C198.465 262.777 203.8 264.703 208.943 266.467C219.56 270.103 230.2 273.707 240.828 277.333C243.905 278.376 246.637 279.344 249.929 278.774C253.221 278.204 256.158 277.376 259.256 276.666C265.528 275.235 271.8 273.793 278.071 272.363C281.449 271.588 280.019 266.403 276.641 267.177C271.068 268.458 265.485 269.727 259.912 271.007C257.126 271.642 254.34 272.287 251.543 272.922C250.37 273.191 249.155 273.578 247.95 273.643C246.573 273.729 245.282 273.191 244.002 272.75C233.352 269.125 222.702 265.499 212.052 261.863C206.952 260.12 201.821 258.399 196.894 256.205C192.064 254.053 187.46 251.45 183.027 248.567C178.595 245.684 174.518 242.661 170.387 239.53C168.149 237.83 165.858 236.927 163.018 237.443C160.522 237.895 158.048 238.895 155.671 239.756C144.784 243.672 134.424 248.975 124.925 255.581C123.731 256.409 123.182 257.937 123.957 259.26C124.645 260.443 126.442 261.056 127.636 260.228H127.668Z" fill="#171717"/>
<path d="M180.241 163.689C182.823 166.367 181.855 173.93 179.725 176.254L180.241 163.689Z" fill="#BECBEB"/>
<path d="M178.337 165.593C178.617 165.894 178.305 165.754 178.219 165.41C178.24 165.485 178.38 165.636 178.423 165.711C178.541 165.905 178.638 166.12 178.746 166.324C178.896 166.604 178.509 165.689 178.649 166.109C178.692 166.238 178.735 166.367 178.778 166.496C178.853 166.744 178.918 166.991 178.961 167.249C178.982 167.368 179.004 167.486 179.025 167.604C179.133 168.131 178.961 166.98 179.015 167.475C179.047 167.776 179.068 168.078 179.079 168.39C179.101 168.96 179.09 169.541 179.047 170.111C179.047 170.24 179.025 170.369 179.015 170.498C179.015 170.606 178.929 171.187 179.004 170.692C179.079 170.197 179.004 170.692 178.982 170.799C178.961 170.95 178.929 171.101 178.907 171.251C178.8 171.789 178.67 172.316 178.509 172.843C178.423 173.112 178.326 173.37 178.229 173.629C178.079 174.048 178.466 173.123 178.326 173.413C178.283 173.51 178.24 173.607 178.186 173.704C178.079 173.919 177.96 174.123 177.842 174.328C177.788 174.414 177.702 174.5 177.659 174.597C177.713 174.478 178.122 174.027 177.821 174.371C176.885 175.425 176.713 177.157 177.821 178.179C178.843 179.115 180.628 179.298 181.629 178.179C183.565 176.006 184.232 172.951 184.447 170.132C184.662 167.314 184.189 164.011 182.156 161.817C181.198 160.784 179.316 160.773 178.348 161.817C177.336 162.925 177.326 164.517 178.348 165.625L178.337 165.593Z" fill="#171717"/>
<path d="M103.947 24.0754C105.679 23.7527 107.121 22.5909 108.756 21.9454C111.101 21.031 113.704 21.2139 116.211 21.4183C119.922 21.7195 123.645 22.0207 127.356 22.3219" fill="#BECBEB"/>
<path d="M104.668 26.6681C106.432 26.27 107.842 25.2373 109.477 24.5381C111.112 23.8388 112.984 23.8926 114.748 24.0002C118.954 24.2584 123.161 24.6671 127.367 25.0114C128.819 25.1297 130.056 23.6882 130.056 22.322C130.056 20.7729 128.819 19.7509 127.367 19.6326C123.032 19.2776 118.675 18.815 114.329 18.5998C112.317 18.503 110.165 18.5891 108.251 19.2776C106.54 19.9015 105.034 21.0741 103.248 21.4721C101.828 21.7948 101 23.43 101.366 24.7855C101.764 26.2485 103.248 26.98 104.679 26.6681H104.668Z" fill="#171717"/>
<path d="M143.73 33.2195C148.033 33.2195 152.336 33.2195 156.639 33.2195C158.048 33.2195 159.393 31.9824 159.328 30.5301C159.264 29.0778 158.145 27.8407 156.639 27.8407C152.336 27.8407 148.033 27.8407 143.73 27.8407C142.32 27.8407 140.976 29.0778 141.04 30.5301C141.105 31.9824 142.224 33.2195 143.73 33.2195Z" fill="#171717"/>
<path d="M94.7393 74.1309C96.2131 75.0131 97.8052 75.8091 99.5264 75.8522C100.581 75.8844 101.624 75.6155 102.625 75.282C109.671 72.9476 115.351 66.8588 117.18 59.6619" fill="#BECBEB"/>
<path d="M93.3724 76.4544C96.5674 78.3263 99.7302 79.0685 103.323 77.8852C105.937 77.0246 108.369 75.7337 110.552 74.0555C115.017 70.6238 118.319 65.8473 119.761 60.3824C120.643 57.0368 115.458 55.606 114.576 58.9517C113.489 63.1041 111.144 66.6327 107.809 69.4189C106.454 70.5485 104.442 71.7426 102.828 72.3665C101.742 72.7861 100.515 73.2809 99.3214 73.1518C98.1273 73.0227 97.0838 72.388 96.0941 71.8071C93.1034 70.0536 90.3925 74.7009 93.3831 76.4544H93.3724Z" fill="#171717"/>
<path d="M117.298 65.0083C122.375 80.2412 127.561 95.6892 136.533 109.007C138.447 111.858 141.169 114.892 144.579 114.569C146.968 114.343 148.925 112.407 149.851 110.201C150.776 107.996 150.862 105.533 150.873 103.134C150.916 89.2454 148.807 75.3465 144.655 62.093" fill="#BECBEB"/>
<path d="M114.705 65.7292C119.74 80.8114 124.871 96.1841 133.671 109.567C135.65 112.579 138.028 115.742 141.61 116.893C145.192 118.044 148.818 116.43 151.001 113.526C153.465 110.255 153.572 106.038 153.562 102.101C153.551 98.1636 153.336 93.8712 152.948 89.7726C152.023 80.1337 150.13 70.6131 147.247 61.3723C146.225 58.0805 141.029 59.4897 142.062 62.8031C144.332 70.0968 146.042 77.5841 147.053 85.1683C147.548 88.912 147.871 92.6664 148.054 96.4423C148.215 99.9816 148.645 103.94 147.903 107.437C147.462 109.502 146.01 112.461 143.417 111.815C140.825 111.17 139.125 108.093 137.812 106.038C133.95 100.035 130.777 93.6023 128.066 87.0079C125.011 79.5635 122.45 71.9256 119.912 64.2876C118.825 61.0173 113.629 62.4158 114.726 65.7184L114.705 65.7292Z" fill="#171717"/>
<path d="M100.914 38.9425C104.421 40.6207 108.563 40.4593 112.361 40.5239C116.89 40.5992 121.472 41.8686 125.948 40.6422C127.615 40.1796 126.905 37.587 125.238 38.0496C121.139 39.1791 116.814 37.9313 112.662 37.8344C109.305 37.7591 105.39 38.1034 102.281 36.6188C100.732 35.8765 99.3653 38.1894 100.925 38.9425H100.914Z" fill="#171717"/>
<path d="M100.246 37.7808C100.354 39.1901 100.515 40.4487 101.215 41.6966C102.118 43.3102 103.119 44.9131 104.281 46.3547C106.604 49.2592 109.81 51.0773 113.554 51.2709C117.082 51.4431 120.428 50.0338 122.956 47.5918C125.172 45.451 126.043 42.5787 126.882 39.6957C127.367 38.0282 124.774 37.3182 124.29 38.9857C123.634 41.2448 123.031 43.6222 121.364 45.3757C119.395 47.4412 116.77 48.6461 113.909 48.5923C110.875 48.5277 108.325 47.0754 106.421 44.7518C104.765 42.7401 103.14 40.4164 102.936 37.7808C102.807 36.0703 100.107 36.0488 100.246 37.7808Z" fill="#171717"/>
<path d="M135.79 40.0291C137.339 41.5029 139.458 41.4814 141.459 41.5459C143.589 41.6212 145.73 41.6428 147.86 41.6105C152.088 41.5567 156.337 41.3846 160.511 40.7068C162.211 40.4271 161.49 37.8453 159.801 38.1142C156.111 38.7059 152.335 38.8458 148.602 38.9103C146.709 38.9426 144.805 38.9426 142.912 38.8996C141.427 38.8673 138.834 39.2115 137.694 38.125C136.446 36.9309 134.542 38.8243 135.79 40.0291Z" fill="#171717"/>
<path d="M135.704 40.3195C137.877 46.4191 143.74 51.4536 150.442 51.3676C156.682 51.2923 161.889 45.6445 161.512 39.4158C161.404 37.6946 158.715 37.6838 158.823 39.4158C159.124 44.3751 155.047 48.7965 150.034 48.6782C144.741 48.5491 140.029 44.4504 138.297 39.5987C137.716 37.985 135.123 38.6735 135.704 40.3087V40.3195Z" fill="#171717"/>
</g>
<defs>
<clipPath id="clip0_6174_7988">
<rect width="280" height="296.012" fill="white" transform="translate(0 0.314941)"/>
</clipPath>
</defs>
</svg>
