<svg width="280" height="432" viewBox="0 0 280 432" fill="none" xmlns="http://www.w3.org/2000/svg">
<g clip-path="url(#clip0_6174_7979)">
<path d="M84.3655 102.296L226.766 120.361L237.826 151.313L206.588 229.009L57.4463 187.076L61.5367 122.406L84.3655 102.296Z" fill="#BECBEB"/>
<path d="M75.5673 181.968C70.0829 193.36 72.3224 197.747 70.677 203.666C66.7008 217.971 62.1534 232.162 59.5369 246.776C56.9318 261.389 56.3148 276.62 60.1767 290.959C64.0386 305.299 72.7794 318.701 85.6563 326.105C93.0831 330.367 101.538 332.504 109.993 333.852C120.551 335.531 131.245 336.068 141.928 336.445C150.909 336.754 159.97 336.948 168.813 335.383C177.657 333.818 186.386 330.367 192.945 324.231C195.835 321.523 198.258 318.347 200.406 315.022C216.539 290.194 217.739 258.83 217.796 229.214C217.83 211.813 217.487 193.726 209.832 178.106" fill="#BECBEB"/>
<path d="M73.1115 180.529C70.5978 185.819 69.0439 191.132 68.6783 196.97C68.6212 197.839 68.5869 198.707 68.5069 199.576C68.4841 199.827 68.4612 200.078 68.4384 200.341C68.4384 200.33 68.3469 201.152 68.4041 200.718C68.4612 200.284 68.3355 201.118 68.3469 201.095C68.2898 201.392 68.2327 201.701 68.1756 201.998C67.3986 205.517 66.2332 208.979 65.2391 212.441C60.943 227.397 56.6698 242.434 55.1501 257.973C53.7219 272.689 54.9787 287.84 60.9202 301.505C65.9247 313.034 74.4026 323.352 85.5999 329.316C92.1812 332.824 99.4366 334.857 106.738 336.171C114.656 337.6 122.688 338.342 130.721 338.799C138.753 339.256 146.294 339.599 154.075 339.496C161.856 339.393 169.271 338.685 176.527 336.491C183.176 334.48 189.495 331.258 194.648 326.562C199.801 321.866 203.754 315.673 206.965 309.492C213.226 297.472 216.654 284.241 218.471 270.873C220.288 257.505 220.653 243.291 220.687 229.443C220.722 215.595 220.562 200.41 216.277 186.596C215.214 183.191 213.889 179.866 212.335 176.644C211.661 175.261 209.684 174.884 208.428 175.616C207.011 176.45 206.725 178.129 207.399 179.523C213.432 191.955 214.655 205.985 214.917 219.605C215.18 233.225 215.066 246.296 213.992 259.561C212.918 272.827 210.758 285.292 206.165 297.392C201.641 309.309 194.705 321.558 183.096 327.693C170.528 334.332 155.777 334.046 141.964 333.566C127.224 333.052 111.948 332.538 97.7456 328.139C91.5871 326.231 85.7256 323.363 80.7897 319.193C76.2422 315.353 72.4602 310.749 69.4324 305.63C62.6569 294.159 60.1661 280.825 60.326 267.616C60.5088 252.763 63.9366 238.241 67.8899 223.993C68.9182 220.279 69.9923 216.577 71.0549 212.875C71.9689 209.687 73.0772 206.488 73.7399 203.232C74.5626 199.244 74.2884 195.234 75.111 191.612C75.7623 188.755 76.8021 186.025 78.0589 183.385C78.7216 181.991 78.4474 180.3 77.0306 179.478C75.7852 178.746 73.7856 179.101 73.1229 180.506L73.1115 180.529Z" fill="#171717"/>
<path d="M231.279 130.301C242.03 136.22 250.771 145.349 257.444 155.643C264.116 165.938 268.79 177.398 272.629 189.053C274.811 195.657 276.742 202.421 277.085 209.379C277.313 213.892 276.811 218.588 274.537 222.485C273.131 224.895 271.12 226.883 269.121 228.814C255.524 241.943 241.025 254.146 225.76 265.309C224.732 266.063 223.658 266.828 222.412 267.057C220.573 267.399 218.687 266.497 217.373 265.183C214.254 262.075 213.9 256.991 215.351 252.843C216.802 248.695 219.727 245.245 222.584 241.908C228.788 234.687 234.981 227.466 241.185 220.245C241.79 219.548 242.396 218.828 242.739 217.971C244.053 214.681 240.945 211.367 238.008 209.379C231.473 204.957 224.137 201.735 216.459 199.919" fill="#BECBEB"/>
<path d="M229.839 132.769C244.487 140.904 254.759 154.638 261.9 169.514C265.808 177.661 268.938 186.253 271.486 194.925C272.766 199.29 273.84 203.758 274.171 208.305C274.457 212.258 274.377 216.577 272.549 220.188C270.572 224.073 266.939 226.986 263.82 229.934C260.449 233.122 257.021 236.241 253.548 239.315C246.578 245.473 239.414 251.403 232.033 257.059C230.193 258.476 228.342 259.87 226.48 261.252C225.212 262.189 223.212 264.28 221.567 264.269C218.425 264.234 217.339 259.733 217.397 257.333C217.476 253.586 219.545 250.204 221.784 247.324C224.72 243.542 228 239.989 231.119 236.355C234.238 232.722 237.563 228.849 240.785 225.09C242.248 223.387 244.121 221.673 245.104 219.628C246.087 217.583 246.087 215.332 245.196 213.23C243.447 209.139 239.288 206.648 235.598 204.512C231.907 202.375 227.68 200.444 223.486 198.993C221.418 198.285 219.327 197.679 217.202 197.165C213.626 196.308 212.106 201.815 215.683 202.672C220.013 203.712 224.241 205.152 228.262 207.083C230.376 208.099 232.444 209.231 234.432 210.476C236.123 211.527 237.894 212.613 239.163 214.189C240.202 215.492 240.488 216.543 239.448 217.868C237.883 219.857 236.146 221.719 234.501 223.639C231.096 227.615 227.68 231.579 224.275 235.556C218.688 242.057 210.895 249.404 211.718 258.784C212.072 262.863 214.003 267.148 217.854 269.022C220.082 270.107 222.47 270.267 224.755 269.25C226.903 268.291 228.765 266.622 230.639 265.229C238.409 259.424 245.984 253.369 253.342 247.05C257.067 243.851 260.723 240.594 264.334 237.27C267.75 234.116 271.361 231.008 274.4 227.478C277.439 223.947 279.279 219.548 279.804 214.715C280.33 209.882 279.724 205.254 278.81 200.673C276.936 191.326 273.52 182.117 269.83 173.354C262.906 156.912 252.931 141.418 238.043 131.135C236.318 129.947 234.535 128.85 232.707 127.833C229.485 126.051 226.606 130.975 229.828 132.769H229.839Z" fill="#171717"/>
<path d="M68.2314 117.493C43.8144 135.294 18.4948 154.284 5.52646 181.592C4.39531 183.98 3.35556 186.448 2.9785 189.064C2.38436 193.2 3.49267 197.371 4.60097 201.404C6.10918 206.9 7.62881 212.43 10.1425 217.549C12.7476 222.85 16.3581 227.592 20.0601 232.197C28.9037 243.177 39.5411 254.248 53.4578 256.556C54.1319 256.671 54.8403 256.751 55.4687 256.511C56.28 256.191 56.7941 255.391 57.194 254.614C60.3818 248.478 59.9934 240.629 56.2228 234.836C54.0748 231.534 51.0012 228.952 48.4647 225.935C45.9282 222.919 43.8487 219.114 44.3628 215.206C45.0027 210.339 49.3216 206.923 53.355 204.135C58.8165 200.376 64.3923 196.776 70.0824 193.36" fill="#BECBEB"/>
<path d="M66.7933 115.024C52.5225 125.433 38.1831 136.002 25.7861 148.651C19.639 154.923 13.9832 161.733 9.21863 169.126C6.84205 172.816 4.694 176.644 2.84302 180.62C1.78042 182.905 0.763519 185.27 0.317912 187.773C-0.161973 190.458 -0.0591403 193.074 0.363615 195.759C1.152 200.775 2.74019 205.814 4.32837 210.636C5.91656 215.457 8.00749 220.131 10.7725 224.415C13.5376 228.7 16.4969 232.368 19.6161 236.138C22.3812 239.486 25.2719 242.742 28.414 245.747C34.584 251.654 41.885 256.762 50.2945 258.807C52.8081 259.424 55.6874 260.121 57.8698 258.316C59.5951 256.899 60.4977 254.522 61.1604 252.454C62.5201 248.204 62.5429 243.451 61.3089 239.166C60.0064 234.641 57.2185 231.065 54.0078 227.706C51.1857 224.747 47.5637 221.399 47.1752 217.068C46.8324 213.229 49.8946 210.282 52.6824 208.133C56.5672 205.14 60.8176 202.523 64.9652 199.895C67.1475 198.513 69.3413 197.165 71.5465 195.828C74.6886 193.931 71.8207 188.995 68.6672 190.892C64.4053 193.463 60.2006 196.113 56.0531 198.879C52.4425 201.289 48.5349 203.655 45.587 206.877C42.6392 210.099 40.9824 214.098 41.6451 218.531C42.3078 222.964 45.3585 226.895 48.4435 230.151C51.2771 233.145 54.2935 236.024 55.6075 240.046C56.8414 243.816 56.7843 247.85 55.4475 251.574C55.1504 252.397 54.7619 253.174 54.3049 253.928C54.2249 254.065 54.0421 253.985 54.3392 253.905C54.8191 253.791 54.2364 253.791 54.2364 253.791C53.905 253.528 52.9224 253.551 52.4768 253.448C50.5915 253.026 48.7177 252.454 46.9353 251.7C43.3361 250.203 39.9312 248.032 36.892 245.599C30.3907 240.366 24.8949 233.887 19.8218 227.306C16.9539 223.57 14.2803 219.651 12.2693 215.377C10.2584 211.104 8.96726 206.477 7.72184 201.929C6.47643 197.382 4.88824 192.503 6.17936 187.75C7.28766 183.648 9.53855 179.763 11.6523 176.107C15.777 168.977 20.7816 162.43 26.3459 156.363C37.726 143.955 51.1057 133.603 64.6339 123.651C66.3135 122.417 68.0045 121.183 69.6841 119.949C70.9295 119.046 71.5465 117.47 70.7124 116.041C69.9926 114.807 68.0616 114.099 66.8048 115.013L66.7933 115.024Z" fill="#171717"/>
<path d="M69.1133 116.441C80.7333 109.312 88.6514 98.3199 93.0047 85.3973C97.1065 73.2174 98.3291 60.2262 102.282 48.0006C108.35 29.2851 121.923 12.0892 140.662 6.10212C146.329 4.29684 152.282 3.54274 158.212 3.13141C169.398 2.34302 181.349 2.93717 190.638 9.22137C197.859 14.1002 202.624 21.9497 205.526 30.1763C208.428 38.4029 209.651 47.0865 211.159 55.6673C215.021 77.5249 220.894 98.9598 226.755 120.372C227.784 124.142 228.903 128.073 231.588 130.918" fill="#BECBEB"/>
<path d="M70.5635 118.909C78.6302 113.916 85.3029 106.992 90.0789 98.8C95.4376 89.6365 97.9627 79.3533 100.122 69.0472C102.236 58.9582 104.235 48.7549 108.794 39.42C112.713 31.3991 118.049 24.0752 124.848 18.248C132.012 12.1009 140.547 8.39894 149.836 6.89073C155.103 6.03379 160.519 5.69102 165.855 5.71387C170.837 5.73672 175.795 6.21661 180.583 7.64483C185.37 9.07306 189.346 11.3125 192.786 14.626C196.225 17.9395 198.784 21.9043 200.818 26.1661C205.514 36.0266 206.737 47.1782 208.656 57.7928C210.781 69.5385 213.466 81.17 216.414 92.7329C217.865 98.423 219.373 104.102 220.905 109.78C222.436 115.459 223.532 120.84 225.532 126.085C226.503 128.621 227.726 130.907 229.554 132.929C232.033 135.66 236.055 131.615 233.599 128.884C231.976 127.09 231.062 124.828 230.354 122.554C229.52 119.892 228.834 117.173 228.103 114.476C226.503 108.626 224.915 102.776 223.384 96.9033C220.322 85.1805 217.465 73.389 215.134 61.4947C211.238 41.511 209.582 15.8714 189.244 5.05117C179.954 0.0923654 169.02 -0.444648 158.691 0.240901C148.362 0.926451 137.507 2.99452 128.264 8.71886C111.685 18.9678 101.813 36.7121 97.3 55.2334C94.6378 66.1565 93.1981 77.468 89.0391 87.9683C85.6571 96.5149 80.2412 104.216 73.1572 110.089C71.4319 111.517 69.5809 112.797 67.6728 113.974C64.5536 115.904 67.4214 120.852 70.5521 118.909H70.5635Z" fill="#171717"/>
<path d="M158.725 45.0186C160.873 48.4234 165.18 49.6346 169.134 50.3887C174.481 51.4056 180.548 51.9312 184.878 48.6177" fill="#BECBEB"/>
<path d="M156.257 46.4584C159.331 51.0973 164.792 52.5827 169.991 53.4282C175.476 54.3194 181.611 54.5365 186.307 51.0859C187.553 50.1718 188.17 48.6065 187.336 47.1783C186.616 45.9557 184.673 45.2359 183.428 46.1499C179.977 48.6865 175.578 48.5836 171.511 47.9209C168.072 47.3611 163.284 46.7326 161.182 43.5791C160.325 42.2994 158.657 41.7396 157.274 42.5508C155.995 43.2935 155.389 45.1673 156.246 46.4584H156.257Z" fill="#171717"/>
<path d="M125.35 42.8592C123.728 44.276 121.409 44.5159 119.249 44.6073C116.518 44.7102 113.776 44.6759 111.045 44.5045C110.063 44.436 109.057 44.3445 108.177 43.9104C107.298 43.4762 104.67 42.5964 104.693 41.6138" fill="#BECBEB"/>
<path d="M123.327 40.8368C122.985 41.111 122.413 41.3167 121.739 41.4766C120.928 41.6709 120.734 41.6709 119.9 41.7166C117.911 41.8308 115.912 41.8308 113.912 41.7737C112.393 41.728 110.656 41.8194 109.331 41.2938C108.839 41.0996 108.348 40.8825 107.88 40.654C107.583 40.5169 107.308 40.3455 107.023 40.1969C106.748 40.0141 106.771 40.037 107.091 40.2655C106.611 39.7399 106.76 40.1969 107.548 41.6023C107.388 40.0712 106.349 38.7458 104.692 38.7458C103.275 38.7458 101.675 40.0598 101.835 41.6023C102.075 43.9446 103.778 45.0643 105.766 45.9327C106.646 46.3212 107.514 46.7896 108.451 47.0181C109.822 47.3495 111.284 47.3838 112.678 47.4409C115.181 47.5552 117.717 47.5894 120.219 47.4066C122.893 47.2124 125.27 46.5954 127.361 44.8701C128.549 43.8875 128.378 41.8422 127.361 40.8253C126.184 39.6485 124.516 39.8427 123.316 40.8253L123.327 40.8368Z" fill="#171717"/>
<path d="M88.5238 78.5647C86.0444 78.7475 80.1716 80.5414 78.0921 81.901C76.0126 83.2607 74.7786 86.2428 76.1611 88.3109C77.0866 89.682 78.8119 90.219 80.4001 90.6646C82.9138 91.373 85.4389 92.07 87.9526 92.7784C94.7852 94.6865 101.686 96.6175 108.77 96.8803C115.854 97.1431 123.247 95.6006 128.811 91.2017" fill="#BECBEB"/>
<path d="M88.5244 75.7084C86.4334 75.8912 84.3882 76.4053 82.4001 77.0338C80.412 77.6622 78.3554 78.3134 76.6529 79.4332C71.8084 82.621 71.2371 89.8878 76.9729 92.47C79.6808 93.6926 82.7315 94.2753 85.5879 95.0751C88.7529 95.9663 91.9293 96.869 95.1285 97.6459C101.013 99.0742 107.126 100.102 113.193 99.6569C119.648 99.177 125.704 97.2003 130.846 93.2241C132.068 92.2758 131.84 90.1735 130.846 89.1794C129.646 87.9797 128.035 88.2311 126.801 89.1794C119.557 94.7895 109.456 94.7209 100.91 93.0756C95.6998 92.0701 90.5924 90.5505 85.4851 89.1109C84.2283 88.7567 82.9714 88.4024 81.7032 88.0482C80.8119 87.7969 79.6922 87.6255 78.9381 87.0542C78.104 86.4372 78.3897 85.466 79.2466 84.6205C80.3321 83.5465 81.966 83.1694 83.3713 82.7124C84.3997 82.3696 85.428 82.0725 86.4792 81.8212C86.9133 81.7183 87.3589 81.6155 87.8045 81.5241C87.9531 81.4898 88.1016 81.467 88.2616 81.4441C89.1756 81.2842 87.7588 81.4784 88.5358 81.4098C90.0669 81.2727 91.3923 80.1987 91.3923 78.5534C91.3923 77.1137 90.0783 75.5598 88.5358 75.6969L88.5244 75.7084Z" fill="#171717"/>
<path d="M100.99 337.12C100.533 350.145 98.7388 363.056 96.4193 375.865C95.2425 382.354 93.9399 388.81 92.626 395.266C92.0547 398.042 91.7348 401.127 90.3522 403.641C88.9697 406.154 86.8445 408.211 84.9364 410.336C82.4456 413.101 79.9547 415.866 77.4753 418.631C76.2985 419.945 75.1102 421.259 73.9333 422.573C73.4077 423.156 72.8936 423.796 72.2766 424.276C71.7281 424.698 71.3511 424.493 71.9224 424.778C68.6546 423.11 65.7639 428.035 69.0431 429.714C72.3223 431.394 75.3616 429.509 77.6124 427.029C79.989 424.413 82.3427 421.773 84.7079 419.146C87.073 416.518 89.4953 413.89 91.8376 411.216C94.0199 408.725 95.8481 406.109 96.8078 402.898C97.7676 399.687 98.2703 396.271 98.933 392.98C99.63 389.518 100.327 386.068 100.978 382.594C102.315 375.579 103.549 368.529 104.52 361.445C105.629 353.379 106.44 345.266 106.725 337.12C106.851 333.44 101.138 333.452 101.013 337.12H100.99Z" fill="#171717"/>
<path d="M170.379 335.463C165.351 350.408 163.729 366.221 163.832 381.921C163.877 389.576 164.312 397.22 164.86 404.864C164.986 406.635 165.123 408.406 165.249 410.177C165.397 412.096 165.248 414.427 166.003 416.221C166.791 418.118 168.516 418.906 170.322 419.58C172.264 420.311 174.229 421.008 176.183 421.717C184.889 424.882 193.596 428.058 202.314 431.223C203.765 431.749 205.445 430.629 205.833 429.223C206.267 427.635 205.296 426.241 203.833 425.704C196.544 423.053 189.254 420.403 181.976 417.752C180.193 417.101 178.422 416.461 176.64 415.81C175.749 415.49 174.858 415.158 173.978 414.838C173.098 414.518 171.99 414.324 171.236 413.81C171.007 413.661 171.236 413.879 171.247 413.947C171.167 413.707 171.201 413.353 171.179 413.079C171.121 412.279 171.053 411.491 170.996 410.691C170.847 408.748 170.699 406.795 170.562 404.852C169.522 390.296 168.905 375.636 170.55 361.091C171.476 352.888 173.247 344.787 175.886 336.971C177.063 333.475 171.544 331.978 170.379 335.452V335.463Z" fill="#171717"/>
<path d="M133.885 67.0244C124.299 70.5436 110.439 65.5619 100.67 63.6653C90.1471 61.6315 80.0581 57.0726 69.3521 56.7298C68.2667 56.6955 67.1355 56.7184 66.1872 57.2554C65.0446 57.9066 64.4048 59.2092 64.2334 60.5117C63.5707 65.4477 68.4724 69.2182 72.917 71.4577C89.6787 79.9128 108.908 83.3862 127.567 81.341" fill="#BECBEB"/>
<path d="M133.119 64.2712C124.801 67.2191 115.237 64.1341 107.034 62.1689C102.383 61.0606 97.7101 60.1694 93.1055 58.8782C87.941 57.4386 82.8222 55.8047 77.5435 54.8221C74.847 54.3193 72.1048 53.9423 69.3626 53.8737C66.6204 53.8052 64.1639 54.5364 62.5985 56.8559C59.8335 60.9806 61.8901 66.2593 65.0779 69.4471C68.4943 72.852 73.1103 74.8287 77.475 76.6797C82.2966 78.7249 87.2555 80.4159 92.3399 81.6956C103.823 84.5749 115.809 85.4547 127.577 84.1864C129.108 84.0265 130.434 82.9867 130.434 81.33C130.434 79.9132 129.12 78.3136 127.577 78.4735C117.991 79.5018 108.268 79.1476 98.807 77.2852C94.0767 76.3597 89.4149 75.0801 84.8789 73.469C80.6171 71.9608 76.2638 70.2241 72.379 67.8818C70.1396 66.5221 65.8663 63.4714 67.2146 60.295C67.7973 58.9354 70.5052 59.6209 71.6706 59.7238C74.0701 59.9294 76.4466 60.375 78.7889 60.912C83.6106 62.0089 88.3181 63.5171 93.0826 64.8082C97.4016 65.9737 101.801 66.7849 106.142 67.8361C115.146 70.007 125.521 73.012 134.638 69.7899C136.089 69.2757 137.061 67.8361 136.638 66.2707C136.249 64.8654 134.581 63.7571 133.119 64.2712Z" fill="#171717"/>
<path d="M137.598 60.2837C136.866 62.7517 135.198 64.8197 133.873 67.0364C130.445 72.7835 129.36 79.879 130.925 86.3917C132.49 92.9044 136.672 98.743 142.339 102.308" fill="#BECBEB"/>
<path d="M134.846 59.5181C134.183 61.5976 132.789 63.3344 131.658 65.1739C130.527 67.0135 129.613 68.9901 128.916 71.0239C127.442 75.3086 127.053 79.9361 127.67 84.415C128.824 92.7787 133.817 100.217 140.89 104.764C143.998 106.752 146.866 101.817 143.769 99.8284C137.999 96.1265 133.84 89.7394 133.189 82.8497C132.835 79.0334 133.349 75.2286 134.743 71.6524C136.217 67.8933 139.096 64.9225 140.342 61.0492C141.473 57.5415 135.954 56.0333 134.834 59.5296L134.846 59.5181Z" fill="#171717"/>
</g>
<defs>
<clipPath id="clip0_6174_7979">
<rect width="280" height="431.355" fill="white"/>
</clipPath>
</defs>
</svg>
