<svg width="280" height="276" viewBox="0 0 280 276" fill="none" xmlns="http://www.w3.org/2000/svg">
<g clip-path="url(#clip0_6174_7980)">
<path d="M255.216 273.357C241.855 231.79 226.07 190.999 207.965 151.26C204.257 143.129 200.445 135.02 197.596 126.545C194.91 118.563 193.097 110.312 191.284 102.084C185.876 77.4664 180.46 52.8562 175.052 28.2384C174.224 24.4712 169.763 17.4961 167.45 14.4077C165.525 11.834 158.886 8.80531 156.103 7.19397C148.658 2.89705 147.995 3.88176 139.483 2.69563C120.997 0.10704 101.989 7.98472 88.5911 20.9799C75.1931 33.9751 66.9573 51.5656 62.5038 69.6932C57.5504 89.8574 56.9461 110.917 51.7316 131.014C39.8629 176.766 4.67442 215.699 1.87695 262.875" fill="#BECBEB"/>
<path d="M257.014 272.864C250.039 251.17 242.415 229.693 234.134 208.462C225.861 187.246 216.872 166.351 207.435 145.635C202.735 135.318 198.647 124.941 195.909 113.923C193.172 102.904 190.814 91.2969 188.33 79.9727C185.846 68.6485 183.265 56.9439 180.736 45.4258C179.46 39.622 178.237 33.8107 176.909 28.0218C176.044 24.247 173.865 20.726 171.806 17.4958C170.814 15.9442 169.815 14.3179 168.621 12.9154C167.502 11.595 165.958 10.6028 164.496 9.7002C161.154 7.64872 157.595 5.74644 154.089 3.99336C151.098 2.49391 148.166 1.82252 144.854 1.4719C140.385 1.00193 135.961 0.285774 131.456 0.360373C111.985 0.703529 93.7756 11.14 81.519 25.9032C68.5461 41.5317 61.7949 61.0245 58.2962 80.7933C56.3193 91.9533 55.1332 103.24 53.2757 114.423C51.5823 124.643 49.1354 134.646 45.6143 144.397C39.1018 162.442 29.8142 179.309 21.3024 196.459C12.9697 213.252 5.11441 230.626 1.6903 249.179C0.85479 253.707 0.287836 258.287 0.00435839 262.883C-0.14484 265.277 3.58512 265.27 3.73432 262.883C4.86823 244.412 11.1719 226.806 18.8556 210.126C26.5393 193.446 36.1029 176.489 43.6748 159.16C47.4196 150.588 50.7617 141.823 53.1936 132.781C56.0582 122.166 57.5801 111.252 59.0795 100.376C60.5789 89.499 62.056 78.6374 64.8535 68.0294C67.3302 58.6298 70.814 49.484 75.6181 41.0244C85.0102 24.4783 99.7734 10.9236 118.446 5.95532C122.907 4.76919 127.487 4.11272 132.105 4.09034C136.722 4.06796 140.907 4.77665 145.301 5.25408C148.472 5.59724 151.172 6.60433 153.962 8.14853C157.252 9.96876 160.714 11.595 163.824 13.7062C166.622 15.6085 168.323 18.8311 170.001 21.6883C171.001 23.3892 171.993 25.1348 172.702 26.9848C173.53 29.1482 173.858 31.513 174.358 33.7659C176.849 45.105 179.341 56.4441 181.84 67.7832C184.339 79.1223 186.823 90.4613 189.322 101.8C191.821 113.14 194.186 123.457 198.297 133.818C202.422 144.225 207.375 154.296 211.889 164.538C216.402 174.781 220.766 185.076 224.973 195.445C233.373 216.161 241.154 237.123 248.3 258.302C250.046 263.472 251.754 268.657 253.425 273.856C254.156 276.131 257.76 275.162 257.021 272.864H257.014Z" fill="#171717"/>
<path d="M165.891 185.799C178.125 170.066 191.978 155.594 207.159 142.681C211.53 138.966 216.081 135.303 219.304 130.558C224.078 123.524 225.48 114.803 226.592 106.373C227.726 97.7571 228.666 89.1111 229.427 80.4501C230.143 72.2442 230.755 63.7921 234.403 56.4068C238.05 49.0215 245.615 42.9043 253.821 43.6428C260.139 44.2098 265.57 48.7231 268.815 54.1763C272.06 59.6295 273.463 65.948 274.671 72.1771C276.7 82.606 278.334 93.1693 278.192 103.785C278.103 110.849 277.223 117.877 276.23 124.874C271.598 157.377 263.474 191.178 241.154 215.258C231.441 225.74 219.371 233.968 210.538 245.21C209.77 246.187 208.987 247.217 207.853 247.724" fill="#BECBEB"/>
<path d="M167.211 187.12C175.88 175.982 185.347 165.471 195.529 155.698C200.58 150.857 205.846 146.269 211.165 141.726C216.484 137.183 220.893 132.729 223.638 126.567C226.384 120.406 227.458 113.833 228.346 107.231C229.353 99.7192 230.196 92.1921 230.912 84.6501C232.068 72.4084 231.986 56.9365 242.982 48.8648C247.391 45.6272 252.993 44.359 258.126 46.6791C263.631 49.1707 267.361 54.3181 269.494 59.8235C272.046 66.4031 273.142 73.587 274.299 80.5173C275.537 87.9399 276.373 95.4521 276.335 102.994C276.298 110.536 275.365 117.951 274.291 125.359C273.389 131.625 272.359 137.869 271.121 144.076C268.674 156.407 265.421 168.634 260.677 180.294C256.037 191.685 249.823 202.569 241.714 211.857C232.978 221.853 222.042 229.582 213.09 239.354C211.986 240.563 210.912 241.793 209.882 243.069C209.002 244.158 208.204 245.479 206.913 246.113C204.757 247.172 206.645 250.387 208.793 249.335C210.248 248.619 211.195 247.359 212.187 246.12C213.247 244.792 214.351 243.509 215.492 242.256C217.775 239.749 220.192 237.37 222.676 235.065C227.697 230.387 232.971 225.978 237.917 221.219C247.256 212.222 254.761 201.637 260.423 189.984C266.085 178.332 269.979 166.09 272.896 153.58C274.373 147.231 275.597 140.831 276.656 134.4C277.812 127.358 278.879 120.279 279.536 113.169C280.968 97.8243 278.931 82.442 275.604 67.455C274.142 60.8753 271.934 54.2658 267.413 49.1185C263.437 44.5903 257.603 41.3452 251.441 41.763C245.28 42.1808 239.879 45.6869 236.119 50.3568C231.844 55.6683 229.83 62.233 228.808 68.8873C227.682 76.2204 227.316 83.6654 226.54 91.0358C225.764 98.3913 225.026 105.799 223.705 113.08C222.542 119.518 220.662 126.015 216.529 131.215C212.396 136.415 206.481 140.719 201.356 145.262C190.561 154.826 180.483 165.195 171.217 176.251C168.95 178.958 166.742 181.704 164.571 184.486C163.951 185.277 163.795 186.351 164.571 187.127C165.212 187.769 166.585 187.925 167.211 187.127V187.12Z" fill="#171717"/>
<path d="M130.425 41.7632C130.366 45.3888 131.06 49.0217 132.44 52.3787C133.365 54.6241 134.663 56.8174 136.684 58.1676C139.892 60.3161 144.107 59.8908 147.926 59.3836C150.873 58.9957 153.812 58.6003 156.759 58.2124C157.647 58.093 158.557 57.9662 159.325 57.526C160.146 57.0561 160.743 56.2728 161.265 55.482C164.435 50.7301 166.047 44.9561 165.8 39.2418C165.785 38.9583 165.763 38.645 165.562 38.4361C165.308 38.1601 164.875 38.1825 164.502 38.2123C153.432 39.2791 142.361 40.3533 131.291 41.4201" fill="#BECBEB"/>
<path d="M128.561 41.7631C128.531 45.2096 129.083 48.6859 130.269 51.9236C131.358 54.8851 132.88 57.7348 135.498 59.6073C138.117 61.4797 141.295 61.7856 144.324 61.614C147.74 61.42 151.157 60.8158 154.544 60.3607C156.259 60.1295 158.124 60.0847 159.728 59.376C161.213 58.727 162.19 57.4663 163.048 56.1459C164.831 53.4006 166.136 50.2973 166.89 47.1119C167.27 45.4856 167.516 43.8146 167.628 42.1436C167.725 40.6218 168.061 38.2943 166.882 37.1156C165.614 35.8474 163.488 36.4442 161.921 36.6009C160.079 36.7799 158.229 36.959 156.386 37.138C148.024 37.9437 139.661 38.7568 131.291 39.5625C130.291 39.6594 129.426 40.3532 129.426 41.4274C129.426 42.3599 130.284 43.3894 131.291 43.2924C137.013 42.7404 142.727 42.1884 148.449 41.6363C151.276 41.3603 154.103 41.0917 156.938 40.8157C158.356 40.6815 159.766 40.5397 161.183 40.4054C161.921 40.3308 162.66 40.2637 163.399 40.1891C163.704 40.1593 164.01 40.1294 164.324 40.0996C164.458 40.0847 164.6 40.0697 164.734 40.0623C164.704 40.0175 164.667 40.0175 164.622 40.0474L163.951 39.376C163.809 39.1447 163.951 39.3983 163.943 39.5625C163.943 39.831 163.958 40.0996 163.958 40.3681C163.958 40.853 163.943 41.3379 163.921 41.8228C163.869 42.7329 163.779 43.6356 163.622 44.5382C163.302 46.3958 162.787 48.2234 162.086 49.9765C161.384 51.7296 160.526 53.2813 159.497 54.7732C159.124 55.3104 158.691 55.8176 158.072 56.0564C157.267 56.3622 156.319 56.3995 155.469 56.5114C151.493 57.0411 147.442 57.8393 143.421 57.9213C141.854 57.9512 140.228 57.8318 138.773 57.1977C137.319 56.5636 136.192 55.3999 135.364 54.0571C133.134 50.439 132.253 45.9705 132.291 41.7631C132.313 39.361 128.583 39.361 128.561 41.7631Z" fill="#171717"/>
<path d="M80.1691 45.8956C89.7775 44.4708 99.5052 43.8292 109.218 43.9934C110.21 44.0083 111.247 44.0456 112.135 44.5081C113.164 45.0527 113.836 46.1045 114.261 47.1937C116.238 52.2963 113.366 58.3239 108.845 61.3974C104.317 64.4783 98.5876 65.1572 93.1121 65.0602C91.7544 65.0378 90.3594 64.9632 89.0986 64.441C87.726 63.8666 86.6219 62.8073 85.5552 61.7704C83.5932 59.8606 81.5939 57.9061 80.4004 55.4443C79.2068 52.9751 78.9158 50.0732 79.5947 47.4175" fill="#BECBEB"/>
<path d="M80.6682 47.6936C87.0539 46.7537 93.4919 46.1793 99.9372 45.948C103.175 45.8287 106.435 45.7615 109.68 45.866C110.814 45.9033 111.612 46.1271 112.194 47.1491C112.686 48.007 112.955 49.029 113.022 50.0137C113.328 54.8402 109.926 58.9805 105.786 61.0171C103.458 62.1584 100.832 62.7478 98.2662 63.0014C96.8637 63.1431 95.4613 63.1954 94.0588 63.1954C92.6563 63.1954 91.1569 63.255 89.8514 62.7254C88.4564 62.1584 87.3822 60.9275 86.3303 59.8981C85.2785 58.8686 84.1371 57.7496 83.2494 56.5187C81.4217 53.9898 80.6832 50.9685 81.4217 47.91C81.9812 45.575 78.3855 44.5828 77.826 46.9178C77.0054 50.3046 77.4306 53.8779 79.1091 56.9439C80.6459 59.7489 83.1449 62.2181 85.5545 64.292C86.9346 65.4781 88.4489 66.3733 90.2617 66.6866C91.9253 66.9701 93.6336 66.9626 95.3195 66.9179C98.5721 66.8358 101.892 66.4479 104.98 65.3737C110.635 63.4117 115.663 58.9059 116.603 52.7365C117.05 49.8123 116.633 46.5672 114.693 44.2173C113.574 42.8671 112.007 42.315 110.307 42.1733C108.516 42.0241 106.681 42.0987 104.883 42.1136C96.4534 42.1808 88.0461 42.8745 79.7059 44.1054C78.7063 44.2546 78.1617 45.5153 78.4004 46.4031C78.6914 47.4698 79.691 47.8503 80.6981 47.7086L80.6682 47.6936Z" fill="#171717"/>
<path d="M89.4939 63.1431C87.4722 59.719 87.4051 55.2282 89.3297 51.7518C90.0832 50.3867 91.1276 49.1707 92.4256 48.3128C95.9019 46.0226 100.922 46.7686 103.892 49.6854C107.524 53.2438 107.83 59.6593 104.555 63.546" fill="#171717"/>
<path d="M91.1047 62.2033C89.7694 59.8833 89.4561 57.1455 90.1648 54.6017C90.8362 52.2145 92.6042 49.9243 94.8422 49.1932C95.894 48.8501 97.1025 48.7531 98.0723 48.8724C99.3256 49.0366 100.348 49.417 101.347 50.0362C103.279 51.2223 104.406 53.147 104.838 55.4297C105.032 56.4368 105.003 57.9288 104.756 58.9881C104.48 60.1966 103.958 61.3529 103.242 62.2257C102.6 63.0015 102.481 64.1056 103.242 64.8665C103.899 65.523 105.234 65.6498 105.883 64.8665C109.978 59.8833 109.62 51.7818 104.406 47.6639C101.72 45.5453 98.2364 44.6874 94.8795 45.3364C91.2689 46.0302 88.4863 48.8202 87.0988 52.125C85.4874 55.9743 85.8007 60.4726 87.8821 64.0832C89.0831 66.1645 92.3058 64.2846 91.1047 62.2033Z" fill="#171717"/>
<path d="M140.393 59.249L139.289 55.2729C138.416 52.1397 137.588 48.6112 139.199 45.7913C140.273 43.9114 142.302 42.7029 144.421 42.2926C146.54 41.8823 148.748 42.1956 150.822 42.8223C152.679 43.3818 154.544 44.2546 155.686 45.8286C156.402 46.8133 156.775 47.9994 157.036 49.193C157.715 52.3411 157.439 56.0636 154.977 58.1449" fill="#171717"/>
<path d="M142.19 58.7495C141.422 55.9968 140.333 53.1322 140.169 50.2601C140.019 47.761 140.937 45.635 143.302 44.5682C145.667 43.5014 148.68 44.0012 151.12 44.874C152.194 45.2545 153.283 45.8215 154.022 46.7092C154.82 47.6641 155.118 48.9845 155.335 50.1781C155.752 52.4906 155.514 55.1762 153.656 56.8099C152.903 57.4739 152.977 58.7644 153.656 59.4507C154.402 60.1967 155.536 60.1221 156.297 59.4507C158.699 57.3247 159.452 53.9304 159.154 50.8345C158.803 47.2165 157.468 43.8819 154.096 42.1288C150.933 40.4802 146.89 39.7118 143.399 40.607C140.086 41.4574 137.259 44.0162 136.625 47.4477C135.857 51.5805 137.505 55.8103 138.595 59.7342C139.236 62.0468 142.839 61.0621 142.19 58.742V58.7495Z" fill="#171717"/>
<path d="M97.3856 103.688C95.9458 105.128 90.9924 110.253 89.6944 111.812C88.3964 113.371 87.7399 115.796 88.9782 117.407C90.2613 119.085 92.7903 119.018 94.8567 118.556C101.406 117.079 107.166 113.326 112.992 109.992C121.242 105.262 131.127 97.4442 140.071 94.2065" fill="#BECBEB"/>
<path d="M96.0654 102.375C93.5365 104.911 90.9926 107.478 88.6502 110.178C87.0389 112.036 85.8677 114.654 86.7479 117.123C87.7252 119.876 90.5898 120.92 93.3127 120.674C96.222 120.413 99.0493 119.361 101.713 118.212C104.376 117.064 107.054 115.594 109.635 114.102C114.551 111.26 119.348 108.276 124.107 105.165C129.329 101.748 134.67 98.1675 140.571 96.0116C141.519 95.6684 142.153 94.7434 141.877 93.7139C141.623 92.8038 140.534 92.0653 139.579 92.4085C129.725 96.0116 121.526 102.86 112.544 108.097C107.837 110.834 103.145 113.863 97.9975 115.698C96.0803 116.385 93.4619 117.436 91.3955 116.84C89.5603 116.31 90.187 114.206 91.0971 113.05C92.2161 111.618 93.5663 110.335 94.8196 109.022C96.0728 107.709 97.4007 106.329 98.7136 105.008C100.415 103.307 97.7737 100.667 96.0728 102.367L96.0654 102.375Z" fill="#171717"/>
<path d="M124.562 62.8C113.32 73.4827 93.7605 81.5618 81.0711 90.4764C78.311 92.4159 75.6776 94.6315 73.8723 97.4738C72.067 100.316 71.1644 103.874 72.067 107.119C77.744 109.544 84.3311 108.858 90.1648 106.829C95.9984 104.799 101.302 101.532 106.8 98.727C111.702 96.228 119.84 94.2063 124.562 85.7319" fill="#BECBEB"/>
<path d="M123.242 61.4872C116.975 67.4104 109.351 71.7744 101.892 75.9967C94.4316 80.2191 86.6211 84.1952 79.6162 89.2381C75.6326 92.1102 71.9325 95.6462 70.4554 100.465C69.7766 102.666 69.508 105.396 70.2614 107.619C70.709 108.947 72.4696 109.328 73.693 109.678C74.991 110.051 76.3189 110.268 77.6542 110.409C88.0683 111.499 97.3783 105.769 106.211 101.129C109.538 99.3836 113.104 98.1154 116.379 96.2579C120.444 93.9602 123.861 90.7525 126.174 86.6719C127.36 84.5831 124.137 82.6957 122.951 84.792C121.28 87.7461 118.967 90.193 116.133 92.0505C113.678 93.6544 110.985 94.8107 108.307 95.9893C100.884 99.2493 94.2078 104.143 86.2182 106.045C81.6751 107.127 76.9232 107.142 72.5591 105.322L73.8646 106.627C72.6412 101.92 75.5431 97.541 78.9075 94.5272C82.2719 91.5134 86.0839 89.3276 89.8437 87.1046C97.8706 82.36 106.196 78.1303 114.051 73.1023C118.221 70.4316 122.279 67.5297 125.89 64.1205C127.636 62.4644 124.995 59.8311 123.249 61.4797L123.242 61.4872Z" fill="#171717"/>
<path d="M124.234 57.7944C124.436 74.542 133.418 90.9389 147.42 100.13L124.234 57.7944Z" fill="#BECBEB"/>
<path d="M122.369 57.7942C122.571 71.3489 128.188 84.5978 137.573 94.3553C140.251 97.1379 143.257 99.6146 146.48 101.748C148.487 103.076 150.359 99.8458 148.36 98.5254C137.864 91.5877 130.352 80.5097 127.42 68.3127C126.592 64.8588 126.152 61.3526 126.099 57.8017C126.062 55.4071 122.332 55.3996 122.369 57.8017V57.7942Z" fill="#171717"/>
</g>
<defs>
<clipPath id="clip0_6174_7980">
<rect width="280" height="274.797" fill="white" transform="translate(0 0.35498)"/>
</clipPath>
</defs>
</svg>
