<svg width="280" height="366" viewBox="0 0 280 366" fill="none" xmlns="http://www.w3.org/2000/svg">
<g clip-path="url(#clip0_6174_7987)">
<path d="M160.26 266.887C188.883 264.642 231.385 267.031 258.147 277.438C261.533 278.752 264.958 280.22 267.595 282.704C270.233 285.189 271.96 288.949 271.125 292.479C269.83 297.975 263.452 300.373 257.936 301.562C238.196 305.85 200.69 308.67 180.825 305.054" fill="#BECBEB"/>
<path d="M160.259 269.285C174.398 268.192 188.652 268.278 202.791 269.247C216.929 270.216 232.075 272.163 246.214 276.057C249.37 276.93 252.506 277.899 255.576 279.021C258.924 280.239 262.549 281.525 265.293 283.865C267.777 285.975 269.839 289.438 268.535 292.747C267.566 295.213 264.919 296.795 262.511 297.735C257.063 299.855 250.914 300.565 245.159 301.399C238.483 302.359 231.759 303.04 225.025 303.529C211.788 304.488 198.263 304.977 185.064 303.318C184.057 303.193 182.686 302.982 181.448 302.762C180.211 302.541 178.868 303.107 178.494 304.44C178.177 305.601 178.887 307.155 180.172 307.395C193.505 309.793 207.404 309.418 220.862 308.613C228.114 308.181 235.365 307.51 242.569 306.57C248.737 305.764 255.087 304.987 261.091 303.28C264.449 302.32 267.892 300.891 270.405 298.388C273.197 295.606 274.309 291.673 273.36 287.836C271.297 279.52 262.233 276.259 255.02 273.774C240.766 268.873 225.62 266.532 210.666 265.122C195.712 263.712 180.364 263.328 165.237 264.182C163.578 264.278 161.909 264.393 160.25 264.518C158.955 264.614 157.852 265.544 157.852 266.916C157.852 268.134 158.955 269.41 160.25 269.314L160.259 269.285Z" fill="#171717"/>
<path d="M72.0883 139.437C85.1336 120.022 104.347 104.809 126.245 96.5792C133.343 93.9126 140.825 91.9367 148.413 92.1381C161.746 92.4834 174.11 99.524 184.095 108.378C204.977 126.909 217.812 155.897 212.239 183.253C207.51 206.466 190.992 225.133 178.11 245.017C174.657 250.341 171.376 256.01 170.551 262.302C169.045 273.765 176.028 284.719 184.412 292.68C192.795 300.642 202.857 306.809 210.464 315.519C218.07 324.229 222.953 336.813 218.329 347.413C214.617 355.93 205.505 361.139 196.316 362.491C187.126 363.844 177.784 361.926 168.777 359.623C150.11 354.856 131.694 348.324 115.502 337.897C98.409 326.886 84.2894 311.864 71.3401 296.181C65.1436 288.68 59.1006 280.872 55.3789 271.885C49.7962 258.408 49.8346 243.358 49.9497 228.768C50.084 212.941 50.2183 197.018 53.1439 181.469C56.0695 165.921 61.959 150.592 72.3761 138.679" fill="#BECBEB"/>
<path d="M74.1606 140.645C86.8029 121.912 105.344 107.083 126.485 99.0349C132.538 96.7328 138.888 94.8623 145.392 94.5553C151.435 94.2676 157.362 95.4474 162.974 97.6536C173.65 101.855 182.945 109.596 190.426 118.152C204.719 134.487 213.553 156.818 210.589 178.697C207.395 202.265 191.175 221.171 178.369 240.25C174.906 245.41 171.405 250.676 169.41 256.604C167.415 262.532 167.511 268.614 169.362 274.407C173.103 286.1 182.302 294.541 191.606 301.985C200.738 309.294 210.714 316.622 215.385 327.759C217.467 332.708 218.445 338.339 217.083 343.605C215.826 348.477 212.623 352.545 208.479 355.336C198.043 362.348 185.045 361.005 173.41 358.29C160.864 355.365 148.384 351.547 136.567 346.386C124.941 341.303 114.045 334.78 104.241 326.713C94.4383 318.646 85.9876 309.725 77.8823 300.277C69.777 290.829 61.3359 281.131 56.9523 269.439C52.444 257.41 52.2234 244.384 52.3002 231.694C52.4536 205.814 52.3193 178.381 64.4246 154.775C67.0624 149.624 70.247 144.76 74.0455 140.386C76.0598 138.065 72.6834 134.66 70.6499 136.991C52.9332 157.393 48.6839 184.971 47.8206 211.08C47.5904 218.111 47.5425 225.142 47.5041 232.173C47.4657 238.849 47.5425 245.545 48.2427 252.182C48.9429 258.801 50.2187 265.4 52.6742 271.606C55.1298 277.812 58.5062 283.395 62.4198 288.709C70.0168 299.049 78.5921 308.862 87.6279 317.965C96.6636 327.068 106.812 335.586 117.977 342.243C129.142 348.9 141.699 354.06 154.312 358.012C160.681 360.007 167.137 361.801 173.659 363.249C180.547 364.774 187.702 365.82 194.762 365.062C206.004 363.854 217.38 357.667 221.236 346.463C225.121 335.164 219.778 322.723 212.421 314.128C204.095 304.402 192.7 298.023 183.904 288.786C179.837 284.527 176.24 279.549 174.273 273.947C172.307 268.345 172.307 262.436 174.446 256.758C176.585 251.079 180.431 245.717 183.904 240.614C187.376 235.511 190.973 230.495 194.465 225.411C201.371 215.339 207.903 204.865 211.951 193.277C215.999 181.69 216.795 170.544 215.049 158.985C213.323 147.571 208.939 136.55 202.8 126.804C196.661 117.058 188.355 107.984 178.782 101.059C168.691 93.7592 156.509 88.848 143.876 89.8648C137.018 90.4212 130.38 92.3683 124.001 94.8815C118.466 97.0685 113.095 99.6392 107.963 102.641C97.8914 108.531 88.6542 115.955 80.7791 124.559C76.8655 128.838 73.2685 133.413 70.0264 138.219C68.2998 140.78 72.4532 143.187 74.1702 140.636L74.1606 140.645Z" fill="#171717"/>
<path d="M89.1531 290.033C61.9499 298.167 35.9169 310.234 12.1285 325.744C9.18375 327.663 6.2102 329.706 4.25341 332.622C2.29662 335.538 1.60599 339.567 3.45726 342.55C5.3565 345.619 9.22212 346.722 12.7616 347.413C18.5073 348.526 24.4064 349.168 30.2 348.411C36.5692 347.576 42.5835 345.092 48.6169 342.866C70.8801 334.636 94.352 329.658 118.035 328.123" fill="#BECBEB"/>
<path d="M88.5192 287.721C74.0927 292.047 60.0019 297.457 46.3811 303.884C39.5707 307.097 32.8754 310.57 26.324 314.291C23.0531 316.152 19.8109 318.071 16.6072 320.056C13.5953 321.917 10.5258 323.768 7.69612 325.888C4.86645 328.008 2.2478 330.579 0.885726 333.984C-0.390024 337.178 -0.399616 341.12 1.58595 344.046C3.57151 346.972 6.54507 348.324 9.71046 349.168C13.3651 350.147 17.2403 350.665 21.01 350.962C25.0386 351.278 29.0769 351.106 33.0576 350.358C36.7986 349.648 40.4244 348.439 44.0022 347.135C51.3786 344.439 58.7357 341.763 66.2847 339.586C81.258 335.26 96.6437 332.353 112.173 330.972C114.13 330.799 116.087 330.646 118.053 330.521C119.348 330.435 120.451 329.476 120.451 328.123C120.451 326.895 119.348 325.639 118.053 325.725C102.907 326.723 87.8381 329.063 73.1143 332.775C65.9298 334.588 58.8316 336.718 51.839 339.173C44.8176 341.638 37.8825 344.852 30.4678 345.974C26.746 346.54 22.9092 346.415 19.1779 346.012C15.8974 345.657 12.4058 345.178 9.28841 344.036C7.01508 343.202 5.01033 341.638 4.8089 339.068C4.56909 336.027 6.37241 333.38 8.50185 331.413C10.9287 329.169 13.8638 327.471 16.6456 325.715C19.7054 323.778 22.8037 321.898 25.9307 320.075C32.0601 316.497 38.3237 313.15 44.7024 310.023C59.2249 302.905 74.3133 297.016 89.8045 292.364C92.7493 291.481 91.4927 286.848 88.5288 287.74L88.5192 287.721Z" fill="#171717"/>
<path d="M157.055 93.6919C161.64 71.3519 164 48.5419 164.009 25.7319C164.009 19.286 163.827 12.8401 163.462 6.4038L161.697 8.7155C167.808 7.622 173.908 6.53809 180.018 5.44459C181.294 5.21438 182.014 3.66046 181.697 2.49022C181.323 1.14733 180.028 0.590986 178.743 0.811605C172.632 1.9051 166.532 2.98901 160.422 4.08251C159.443 4.25517 158.609 5.42541 158.657 6.39421C159.923 28.811 158.992 51.3716 155.731 73.5965C154.81 79.8985 153.698 86.1717 152.422 92.4066C152.163 93.6727 152.786 94.9965 154.101 95.361C155.29 95.6871 156.786 94.9581 157.055 93.6823V93.6919Z" fill="#171717"/>
<path d="M193.352 112.541C202.1 103.131 213.323 96.5313 225.169 91.7544C231.289 89.2797 237.572 87.2269 243.912 85.3853C247.058 84.4644 250.214 83.6011 253.38 82.7666C254.981 82.3446 256.593 81.9225 258.195 81.5101C259.797 81.0976 261.523 80.3782 263.154 80.4933C264.785 80.6084 265.897 82.4213 266.809 83.6203C267.979 85.1646 269.072 86.7665 270.079 88.4164C272.18 91.8407 273.916 95.4666 275.259 99.2554C275.691 100.474 276.899 101.289 278.214 100.934C279.393 100.608 280.324 99.2075 279.892 97.9797C278.597 94.3347 277.005 90.7856 275.077 87.4188C273.149 84.052 271.096 80.877 268.526 78.1912C267.087 76.6852 265.264 75.7548 263.154 75.6972C261.178 75.6397 259.192 76.3015 257.293 76.7907C253.946 77.654 250.607 78.5365 247.279 79.4573C233.812 83.1791 220.306 87.6298 208.201 94.7376C201.496 98.6703 195.271 103.466 189.976 109.164C187.875 111.418 191.261 114.823 193.371 112.56L193.352 112.541Z" fill="#171717"/>
<path d="M160.26 313.888L160.691 300.824C160.797 297.754 160.922 294.56 162.332 291.827C163.281 289.985 165.065 288.325 167.137 288.421C169.957 288.556 171.578 291.615 172.518 294.273C174.571 300.085 176.125 306.071 177.132 312.152C181.334 307.711 187.636 306.119 193.592 304.718C199.05 303.433 204.508 302.148 209.966 300.862C212.124 300.354 214.35 299.846 216.527 300.229C218.704 300.613 220.843 302.138 221.237 304.315C221.841 307.711 218.282 310.253 215.184 311.778C206.791 315.903 198.12 319.471 189.247 322.435" fill="#BECBEB"/>
<path d="M162.657 313.888C162.811 309.111 162.926 304.335 163.137 299.558C163.223 297.495 163.377 295.328 164.221 293.409C164.71 292.306 165.775 290.695 167.127 290.819C168.221 290.915 169.055 292.354 169.573 293.4C170.456 295.145 170.983 297.121 171.559 298.982C172.959 303.51 174.043 308.123 174.83 312.795C175.136 314.608 177.669 315.059 178.839 313.85C182.177 310.406 186.772 308.9 191.309 307.74C196.958 306.291 202.666 305.044 208.344 303.701C210.81 303.116 213.678 302.052 216.239 302.598C217.697 302.905 219.375 304.104 218.819 305.697C218.205 307.442 216.143 308.584 214.598 309.399C212.133 310.704 209.572 311.836 207.03 312.977C201.026 315.663 194.877 318.032 188.633 320.123C185.726 321.102 186.973 325.735 189.908 324.747C196.325 322.588 202.637 320.133 208.824 317.389C211.778 316.085 214.809 314.8 217.62 313.207C219.98 311.864 222.282 310.013 223.279 307.404C224.277 304.795 223.404 301.735 221.265 299.893C218.752 297.745 215.548 297.447 212.392 297.917C209.073 298.407 205.783 299.375 202.512 300.143C199.241 300.91 195.903 301.697 192.594 302.483C186.417 303.951 180 305.754 175.443 310.454L179.453 311.509C178.743 307.279 177.784 303.097 176.575 298.992C175.53 295.452 174.551 291.472 172.134 288.575C169.563 285.496 165.333 285.285 162.35 287.913C159.367 290.541 158.58 295.04 158.369 298.915C158.101 303.893 158.024 308.891 157.861 313.879C157.756 316.967 162.552 316.958 162.657 313.879V313.888Z" fill="#171717"/>
<path d="M182.264 332.065C178.59 332.363 174.609 334.818 174.83 338.972C174.936 340.929 176.106 342.492 177.449 343.835C178.792 345.178 180.24 346.204 181.967 346.799C185.132 347.902 188.71 346.703 190.801 344.132C192.892 341.562 193.228 338.089 191.271 335.375C189.209 332.497 185.372 330.991 181.947 332.113C180.489 332.593 181.113 334.905 182.58 334.425C186.724 333.073 191.971 337.303 189.602 341.658C188.537 343.605 186.321 345.005 184.067 344.823C182.753 344.717 181.506 344.084 180.461 343.307C179.415 342.53 178.245 341.427 177.602 340.219C176.96 339.01 177.209 337.456 178.111 336.372C179.118 335.154 180.729 334.588 182.264 334.463C183.799 334.339 183.808 331.941 182.264 332.065Z" fill="#171717"/>
<path d="M180.412 334.981C179.491 336.439 179.462 338.31 180.757 339.586C182.052 340.861 184.776 341.226 186.311 340.123C188.278 338.703 186.896 335.768 184.287 335.269C181.678 334.77 178.925 336.344 178.148 338.329C177.966 338.79 177.87 339.288 178.043 339.758C178.494 340.996 180.585 341.399 182.196 341.082C184.585 340.622 186.58 338.847 186.426 336.948C186.273 335.049 183.606 333.418 181.266 334.013" fill="#171717"/>
<path d="M179.377 334.377C178.255 336.19 178.274 338.473 179.645 340.152C180.787 341.533 182.84 342.137 184.585 341.955C186.437 341.754 188.221 340.66 188.413 338.655C188.566 337.025 187.473 335.461 186.091 334.684C184.317 333.677 182.12 333.85 180.307 334.655C178.494 335.461 176.912 337.063 176.758 339.049C176.586 341.284 178.888 342.262 180.749 342.377C182.609 342.492 184.7 341.734 186.101 340.411C187.655 338.933 188.163 336.641 186.801 334.866C185.439 333.092 183.06 332.363 180.94 332.871C180.307 333.025 179.933 333.735 180.106 334.348C180.278 334.991 180.95 335.336 181.583 335.183C182.13 335.049 182.609 335.068 183.214 335.231C183.367 335.269 183.521 335.327 183.664 335.384C183.482 335.308 183.712 335.404 183.751 335.432C183.818 335.471 183.885 335.499 183.962 335.538C184.096 335.615 184.23 335.691 184.355 335.778C184.384 335.797 184.566 335.941 184.461 335.854C184.355 335.768 184.576 335.96 184.595 335.979C184.71 336.085 184.825 336.209 184.931 336.334C184.835 336.19 185.046 336.468 184.931 336.334C184.969 336.392 185.007 336.449 185.046 336.507C185.084 336.564 185.113 336.622 185.142 336.679C185.228 336.833 185.084 336.497 185.142 336.67C185.161 336.727 185.18 336.794 185.199 336.852C185.209 336.89 185.257 337.197 185.247 337.025C185.228 336.871 185.238 337.284 185.247 337.322C185.276 337.485 185.295 337.149 185.247 337.312C185.228 337.38 185.218 337.447 185.199 337.514C185.18 337.581 185.161 337.648 185.142 337.715C185.132 337.744 185.046 337.955 185.103 337.821C185.17 337.658 185.017 337.974 185.027 337.965C184.979 338.041 184.931 338.118 184.883 338.195C184.864 338.224 184.739 338.406 184.816 338.3C184.892 338.195 184.748 338.377 184.729 338.396C184.633 338.511 184.518 338.627 184.413 338.732C184.355 338.79 184.298 338.838 184.24 338.886C184.211 338.914 184.01 339.068 184.154 338.962C184.01 339.077 183.847 339.173 183.693 339.269C183.07 339.643 182.59 339.816 181.823 339.96C181.794 339.96 181.554 339.998 181.698 339.979C181.842 339.96 181.602 339.979 181.573 339.979C181.401 339.989 181.228 339.998 181.046 339.998C180.892 339.998 180.739 339.989 180.576 339.969C180.537 339.969 180.336 339.941 180.547 339.969C180.451 339.95 180.365 339.941 180.269 339.921C180.106 339.883 179.943 339.845 179.789 339.787C179.722 339.768 179.655 339.739 179.588 339.71C179.645 339.73 179.77 339.816 179.588 339.71C179.473 339.643 179.358 339.586 179.252 339.509C179.511 339.691 179.089 339.298 179.195 339.432C179.31 339.586 179.147 339.336 179.147 339.327C179.204 339.423 179.175 339.576 179.147 339.308C179.147 339.346 179.147 339.144 179.156 339.087C179.175 338.991 179.214 338.895 179.243 338.799C179.252 338.751 179.358 338.54 179.252 338.751C179.329 338.588 179.415 338.435 179.511 338.281C179.549 338.224 179.597 338.157 179.636 338.099C179.607 338.137 179.502 338.252 179.655 338.08C179.751 337.965 179.856 337.85 179.962 337.744C180.067 337.639 180.192 337.533 180.307 337.427C180.326 337.408 180.49 337.293 180.346 337.399C180.442 337.332 180.547 337.255 180.643 337.197C180.921 337.025 181.209 336.862 181.506 336.737C181.362 336.794 181.736 336.66 181.804 336.641C182.005 336.574 182.206 336.526 182.418 336.478C182.504 336.459 182.581 336.449 182.667 336.43C182.609 336.43 182.475 336.449 182.724 336.43C182.897 336.411 183.06 336.401 183.233 336.401C183.406 336.401 183.578 336.401 183.751 336.42C184 336.44 183.876 336.44 183.818 336.42C183.933 336.44 184.048 336.459 184.163 336.487C184.307 336.526 184.441 336.574 184.576 336.612C184.624 336.631 184.777 336.708 184.576 336.612C184.643 336.641 184.7 336.67 184.768 336.708C184.892 336.775 184.998 336.852 185.123 336.919C185.161 336.948 185.305 337.025 185.123 336.919C185.199 336.977 185.276 337.044 185.343 337.111C185.439 337.197 185.525 337.293 185.612 337.389C185.765 337.543 185.631 337.408 185.602 337.37C185.64 337.418 185.669 337.475 185.708 337.523C185.775 337.629 185.832 337.734 185.89 337.84C185.995 338.022 185.89 337.84 185.88 337.802C185.909 337.888 185.938 337.965 185.967 338.051C186.005 338.185 186.015 338.425 186.005 338.157C186.005 338.272 186.005 338.377 186.005 338.492C186.005 338.694 186.005 338.463 186.024 338.425C186.015 338.483 186.005 338.531 185.986 338.588C185.967 338.646 185.957 338.694 185.938 338.751C185.871 338.991 186.053 338.588 185.919 338.78C185.861 338.866 185.679 339.077 185.851 338.905C185.765 339.001 185.679 339.087 185.583 339.173C185.765 339.01 185.477 339.24 185.401 339.279C185.324 339.317 185.247 339.365 185.161 339.403C185.046 339.461 185.305 339.365 185.094 339.423C184.911 339.471 184.739 339.519 184.557 339.567C184.518 339.576 184.326 339.605 184.537 339.567C184.441 339.576 184.346 339.586 184.25 339.595C184.058 339.605 183.866 339.605 183.674 339.595C183.597 339.595 183.521 339.586 183.444 339.576C183.31 339.567 183.588 339.605 183.358 339.567C183.166 339.528 182.983 339.49 182.801 339.442C182.724 339.423 182.657 339.394 182.581 339.375C182.561 339.375 182.226 339.24 182.446 339.336C182.293 339.269 182.149 339.192 182.005 339.116C181.948 339.087 181.583 338.828 181.765 338.972C181.42 338.694 181.286 338.521 181.113 338.204C181.075 338.137 181.036 338.061 181.007 337.984C181.075 338.137 181.007 337.936 180.979 337.878C180.95 337.782 180.931 337.686 180.902 337.591C180.844 337.38 180.902 337.629 180.883 337.495C180.873 337.312 180.883 337.14 180.883 336.957C180.883 336.727 180.883 336.862 180.883 336.919C180.902 336.804 180.931 336.679 180.96 336.564C180.979 336.487 180.998 336.411 181.027 336.334C181.027 336.334 181.161 335.989 181.084 336.161C181.171 335.97 181.276 335.787 181.382 335.615C181.717 335.068 181.497 334.291 180.95 333.974C180.403 333.658 179.645 333.85 179.31 334.406L179.377 334.377Z" fill="#171717"/>
</g>
<defs>
<clipPath id="clip0_6174_7987">
<rect width="280" height="364.55" fill="white" transform="translate(0 0.764648)"/>
</clipPath>
</defs>
</svg>
