<svg width="320" height="118" viewBox="0 0 320 118" fill="none" xmlns="http://www.w3.org/2000/svg">
<g clip-path="url(#clip0_6174_7984)">
<path d="M263.783 64.9058C281.266 71.1477 297.322 80.7677 313.242 90.3198L263.783 64.9058Z" fill="#BECBEB"/>
<path d="M263.133 67.2549C280.451 73.4676 296.293 83.0003 312.01 92.4263C314.698 94.0377 317.135 89.8441 314.456 88.2326C298.371 78.5737 282.149 68.9343 264.424 62.5662C263.191 62.1197 261.764 63.0613 261.434 64.265C261.065 65.6143 261.89 66.8083 263.133 67.2549Z" fill="#171717"/>
<path d="M255.551 89.2422C276.257 88.8539 296.953 88.4656 317.659 88.0773L255.551 89.2422Z" fill="#BECBEB"/>
<path d="M255.551 91.669C276.257 91.2807 296.953 90.8924 317.659 90.5041C320.775 90.4459 320.785 85.5922 317.659 85.6504C296.953 86.0387 276.257 86.427 255.551 86.8153C252.435 86.8736 252.425 91.7273 255.551 91.669Z" fill="#171717"/>
<path d="M31.5713 93.9987C28.8338 92.6397 25.708 91.2418 22.8346 92.2708C21.5533 92.727 20.4854 93.6201 19.3108 94.2996C15.8841 96.2605 11.7293 96.3091 7.77841 96.4353C4.75939 96.542 1.04145 97.241 0.15807 100.134C-0.395254 101.959 0.565782 103.997 2.08014 105.162C3.5945 106.327 5.54569 106.764 7.44835 106.929C11.2634 107.269 15.1658 106.657 18.8934 107.541C22.7278 108.443 26.0769 110.861 29.8919 111.831C34.2603 112.948 38.8519 112.103 43.3561 111.938C48.9088 111.734 54.4906 112.598 59.7229 114.452C62.4312 115.413 65.1105 116.656 67.9742 116.821C69.8671 116.937 71.7407 116.568 73.6239 116.345C79.9823 115.588 86.4086 116.403 92.7864 116.996C95.9316 117.287 99.203 117.52 102.164 116.394C104.998 115.316 107.328 113.054 110.269 112.317C112.852 111.666 115.57 112.258 118.162 112.88C120.754 113.501 123.452 114.122 126.054 113.54C128.655 112.957 131.102 110.734 130.985 108.074C130.878 105.502 128.568 103.59 126.267 102.434C120.744 99.6581 114.376 99.2116 108.211 98.8233C95.7569 98.037 83.3022 97.241 70.8476 96.4547C60.781 95.814 50.7144 95.183 40.6478 94.5423C38.2403 94.387 35.8232 94.2414 33.4351 94.5423" fill="#7796E0"/>
<path d="M81.3311 49.9076C91.6209 50.4318 101.367 45.2384 109.521 38.9382C117.676 32.6381 124.879 25.0857 133.606 19.601C143.362 13.4756 154.593 10.1945 165.65 6.99107C172.989 4.86514 180.415 2.72951 188.055 2.42858C195.626 2.12765 203.159 3.65171 210.44 5.76793C222.225 9.18495 233.699 14.2425 243.135 22.0764C252.57 29.9103 259.851 40.7341 261.909 52.8296C262.967 59.0714 262.627 65.4784 261.618 71.7299C260.482 78.7193 258.191 86.0484 252.628 90.4362C247.309 94.6492 240.096 95.3287 233.32 95.7947C168.921 100.241 104.095 100.454 39.9386 93.3872C36.9875 93.0669 33.92 92.6786 31.4446 91.0477C29.5225 89.7761 28.1246 87.8443 27.0762 85.7863C24.4164 80.5637 23.8534 74.3121 25.5425 68.7012C28.8139 57.858 39.8318 50.8007 50.9953 48.8786C62.1589 46.9566 70.2161 47.6846 81.3214 49.9173" fill="#BECBEB"/>
<path d="M81.331 52.3345C100.105 53.1596 113.657 38.2393 127.014 27.3767C134.004 21.6978 141.731 17.4751 150.186 14.3978C154.389 12.864 158.68 11.5633 162.971 10.3013C167.601 8.94225 172.231 7.55408 176.94 6.46685C181.648 5.37962 186.132 4.73893 190.831 4.82629C195.529 4.91366 200.402 5.69996 205.081 6.84544C213.692 8.95195 222.176 11.9418 229.981 16.1646C244.309 23.9208 256.657 36.754 259.54 53.2858C260.365 57.9939 260.268 62.8573 259.754 67.5946C259.317 71.6231 258.569 75.6711 257.201 79.4959C255.939 83.01 253.929 86.4367 250.92 88.7276C247.911 91.0186 243.95 92.1058 240.174 92.698C235.786 93.3872 231.301 93.5134 226.875 93.8046C221.846 94.125 216.827 94.4259 211.799 94.6977C201.742 95.2413 191.685 95.6685 181.619 95.9791C161.495 96.5907 141.352 96.7169 121.219 96.2509C101.183 95.7946 81.1466 94.756 61.1784 93.0474C56.1694 92.6203 51.1506 92.1447 46.1513 91.6302C43.6856 91.3778 41.2102 91.1448 38.7445 90.8342C36.8613 90.5915 34.8713 90.242 33.2016 89.281C29.8234 87.3298 28.1634 83.01 27.4159 79.3794C26.6102 75.4479 27.0179 71.264 28.5226 67.546C31.1727 61.0129 37.1234 56.2854 43.472 53.5964C50.9176 50.4318 59.6252 49.8202 67.6144 50.3542C72.0216 50.6454 76.3705 51.4026 80.6903 52.2665C81.9717 52.5189 83.3113 51.8976 83.6802 50.5677C84.0103 49.3737 83.2725 47.8399 81.9814 47.5778C65.2167 44.2288 45.297 43.3648 31.561 55.3632C25.3288 60.8091 21.5624 68.8468 22.2419 77.1855C22.6205 81.7965 24.1057 86.4561 26.9888 90.1255C29.8719 93.7949 34.2888 95.1443 38.9387 95.7073C59.5573 98.1827 80.3603 99.5611 101.095 100.445C122.005 101.338 142.944 101.571 163.873 101.241C184.735 100.91 205.576 100.027 226.389 98.6875C231.156 98.3768 235.941 98.173 240.669 97.4934C244.95 96.8819 249.318 95.7073 252.91 93.2319C260.142 88.252 262.899 79.5347 264.132 71.2348C265.549 61.6924 265.267 51.9753 261.598 42.9377C258.365 34.9873 253.25 27.9009 246.901 22.1444C240.067 15.9413 232.029 11.3206 223.535 7.77735C214.624 4.05941 205.072 1.22484 195.442 0.254093C185.298 -0.774895 175.551 1.61313 165.873 4.40887C156.738 7.0493 147.545 9.70913 138.964 13.8736C130.383 18.0478 123.199 24.1441 116.045 30.3568C109.318 36.2007 102.299 42.1611 93.8439 45.3354C89.8056 46.8498 85.6314 47.6749 81.3116 47.4808C78.1858 47.3448 78.1955 52.1986 81.3116 52.3345H81.331Z" fill="#171717"/>
<path d="M129.539 73.6327C148.653 80.6609 167.757 87.6988 186.871 94.727C190.006 95.8821 193.811 98.2022 193.006 101.445C192.598 103.085 191.016 104.211 189.375 104.59C187.735 104.968 186.016 104.745 184.347 104.531C175.969 103.493 167.533 102.949 159.088 102.91C150.419 102.871 141.741 103.357 133.101 102.706C124.462 102.056 115.744 100.192 108.279 95.7948" fill="#BECBEB"/>
<path d="M128.898 75.972C138.906 79.6511 148.915 83.34 158.923 87.0191L173.941 92.5426L181.444 95.3092C183.561 96.0858 185.803 96.7265 187.803 97.7749C188.521 98.1535 189.22 98.5612 189.812 99.1243C190.278 99.5708 190.676 100.056 190.696 100.551C190.744 101.833 188.706 102.347 187.55 102.357C184.988 102.386 182.376 101.852 179.823 101.59C177.27 101.328 174.591 101.105 171.97 100.93C161.408 100.241 150.866 100.775 140.295 100.59C129.704 100.415 118.802 99.1146 109.483 93.6978C106.775 92.1252 104.329 96.3188 107.037 97.8914C116.094 103.153 126.588 104.929 136.926 105.347C148.284 105.803 159.641 105.026 171.009 105.716C173.873 105.89 176.727 106.123 179.581 106.415C182.27 106.686 185.065 107.298 187.774 107.201C190.298 107.104 192.783 106.201 194.336 104.114C195.743 102.211 195.879 99.697 194.753 97.6196C192.472 93.4163 186.842 92.1349 182.726 90.6205L166.573 84.6796C154.438 80.2142 142.304 75.7488 130.17 71.2833C128.937 70.8271 127.51 71.7881 127.18 72.9821C126.811 74.3412 127.636 75.5158 128.879 75.972H128.898Z" fill="#171717"/>
<path d="M65.8384 81.6994C68.8574 83.505 72.0026 85.4173 73.8471 88.4169C74.3615 89.2518 74.779 90.2128 74.6819 91.2029C74.5848 92.1931 73.8568 93.1541 72.8763 93.2415C72.2259 93.2998 71.6143 92.9697 71.0416 92.6591C69.3913 91.7563 65.8093 88.5916 64.159 87.6889C66.3044 89.6109 70.032 94.1734 71.362 96.7265C71.7988 97.571 72.1968 98.4835 72.158 99.4348C72.1191 100.386 71.5173 101.376 70.5854 101.57C69.9155 101.706 69.236 101.425 68.6342 101.105C63.5281 98.3767 58.7035 93.9599 56.3154 88.6887" fill="#BECBEB"/>
<path d="M64.6157 83.7963C66.4601 84.8932 68.3337 85.9902 69.9063 87.456C70.6537 88.1549 71.3138 88.9024 71.838 89.7761C72.0516 90.1352 72.2166 90.4556 72.2749 90.8633C72.2458 90.6497 72.304 91.1157 72.2361 91.0768C72.1584 91.0283 72.3914 90.8827 72.3914 90.8827L72.4884 90.8439C72.9253 90.873 73.0029 90.8439 72.7214 90.7856C72.6632 90.7177 72.3428 90.6012 72.2555 90.5526C71.9934 90.407 71.741 90.242 71.4886 90.077C70.8576 89.6499 70.0713 89.048 69.5859 88.6694C68.3531 87.7181 66.8581 86.427 65.3729 85.5824C63.0334 84.2525 60.3444 87.4948 62.4315 89.3975C64.1595 90.9604 65.8 92.9116 67.1008 94.6686C67.7998 95.6102 68.4793 96.5713 69.052 97.5905C69.3141 98.0662 69.5762 98.5419 69.7024 99.0758C69.7024 99.4738 69.7024 99.5514 69.7121 99.299C69.6345 99.5903 69.615 99.6388 69.6539 99.4447C69.7121 99.4155 70.1878 98.8234 70.2072 99.1631C70.2072 99.0855 68.7705 98.406 68.5958 98.3089C67.9551 97.9303 67.3338 97.5323 66.7319 97.1149C65.5768 96.3189 64.4992 95.4258 63.4799 94.4647C61.354 92.4359 59.6067 90.1255 58.3738 87.456C57.8205 86.262 56.112 85.9707 55.0539 86.5823C53.8308 87.3007 53.6269 88.7082 54.1802 89.9022C56.6653 95.2705 61.2278 99.6194 66.2854 102.58C67.8289 103.483 69.4888 104.337 71.3236 103.862C72.935 103.444 74.129 101.91 74.4493 100.328C75.0221 97.4352 73.0903 94.6589 71.4595 92.4359C69.8286 90.2129 67.9648 87.8734 65.8583 85.961L62.9169 89.7761C64.9264 90.9215 66.2757 92.2417 68.1201 93.6105C69.0617 94.3094 70.0131 94.9501 71.1197 95.3578C72.8282 95.9985 74.7017 95.552 75.9055 94.1638C78.4682 91.2128 76.42 87.3783 74.2164 84.932C72.2166 82.7188 69.5956 81.1267 67.0523 79.6124C64.3633 78.0106 61.9171 82.2043 64.606 83.806L64.6157 83.7963Z" fill="#171717"/>
<path d="M47.1032 71.1087C46.6081 73.2443 48.802 75.5255 50.9473 75.1081C53.0927 74.6907 54.2867 71.7591 53.0247 69.9632C52.2773 68.8954 50.8406 68.342 49.5786 68.6527C48.3166 68.9633 47.2974 70.1282 47.1712 71.429C46.9964 73.2346 48.5593 74.9237 50.3552 75.2246C51.0541 75.3411 51.8987 75.2149 52.2676 74.6033C52.8306 73.6714 51.8404 72.5356 50.8309 72.1182C50.4717 71.9726 50.0834 71.8561 49.6951 71.9338C48.6564 72.1279 48.3555 73.6908 49.0932 74.4383C49.831 75.1858 51.1415 75.0984 51.9958 74.4868C52.85 73.8753 53.3257 72.856 53.6169 71.8464C53.6848 71.6037 53.7528 71.361 53.7043 71.1184C53.6363 70.7883 53.3839 70.5359 53.1412 70.3029C51.6366 68.8662 49.6563 67.3228 47.7051 68.0217C46.346 68.5071 45.55 70.0408 45.6374 71.4775C45.7247 72.9142 46.5693 74.2247 47.6468 75.1761C48.5011 75.9235 49.6563 76.5157 50.7435 76.1856C51.5201 75.9527 52.0928 75.2926 52.5297 74.613C53.2965 73.4287 53.811 72.0212 53.6751 70.6136C53.5392 69.206 52.6559 67.8275 51.3162 67.3713C49.9766 66.915 48.2778 67.6237 47.8798 68.973" fill="#BECBEB"/>
<path d="M44.7636 70.4583C44.3268 72.526 45.016 74.7393 46.676 76.0984C48.4719 77.5836 50.7434 78.001 52.8694 76.9623C56.3058 75.2829 57.1018 69.9341 54.0537 67.517C52.1995 66.0512 49.7144 65.6629 47.6079 66.8569C46.7051 67.3617 45.8703 68.1965 45.4043 69.1187C44.8122 70.2836 44.6569 71.4582 44.8607 72.7396C45.1519 74.5937 46.6275 76.3119 48.3069 77.0691C49.4717 77.5933 50.7046 77.836 51.9763 77.5448C53.2479 77.2536 54.3934 76.2149 54.7526 74.9044C55.5098 72.0989 52.7043 69.6817 50.1416 69.4779C47.5788 69.274 45.715 72.0892 46.4333 74.4772C46.8313 75.7974 47.8312 76.7294 49.1126 77.1662C50.2969 77.5642 51.588 77.3603 52.7043 76.8555C53.6848 76.409 54.4614 75.5839 55.0244 74.6908C55.335 74.2054 55.5486 73.6521 55.7622 73.1182C55.9757 72.5843 56.1602 71.963 56.1602 71.3805C56.1699 70.0021 55.4127 69.0216 54.442 68.148C53.6848 67.4588 52.8596 66.7889 51.9569 66.2939C50.957 65.7502 49.8212 65.3619 48.666 65.3814C47.3555 65.4105 46.2003 65.8861 45.2005 66.7113C43.492 68.1286 42.9872 70.4681 43.3561 72.5649C43.7249 74.6617 45.2005 76.4187 46.8702 77.5933C47.8021 78.2534 49.0349 78.7194 50.1901 78.6708C51.4812 78.6126 52.6655 78.069 53.5683 77.1565C55.0826 75.613 56.0534 73.3415 56.1116 71.1864C56.1699 69.0314 55.1021 66.8763 53.2965 65.6338C51.6268 64.4883 49.1999 64.4883 47.5303 65.6338C46.5595 66.2939 45.8897 67.1675 45.5305 68.2936C45.1422 69.507 45.9868 70.9923 47.2293 71.2835C48.5593 71.5844 49.8018 70.8855 50.2192 69.5847C50.3357 69.2255 49.9377 70.07 50.1416 69.7594C50.1707 69.7206 50.2095 69.6623 50.2289 69.6235C50.3066 69.3905 50.0251 69.9633 50.0057 69.8953C49.9959 69.8565 50.1998 69.6915 50.2289 69.6623C50.2872 69.6041 50.4813 69.4585 50.1513 69.7109C49.8018 69.973 50.0833 69.7691 50.1804 69.7109C50.2289 69.6818 50.4231 69.5361 50.4716 69.5556C50.5396 69.575 49.8989 69.74 50.1513 69.7012C50.1998 69.7012 50.2581 69.6623 50.3066 69.6526C50.3454 69.6429 50.6172 69.5556 50.6366 69.5847C50.6755 69.6332 50.0251 69.6138 50.2678 69.6429C50.3357 69.6429 50.4231 69.6429 50.491 69.6429C50.5007 69.6429 50.6561 69.6429 50.6561 69.6429C50.6561 69.6818 50.0736 69.5264 50.2872 69.5944C50.394 69.6235 50.5007 69.6429 50.6075 69.672C50.6269 69.672 50.7628 69.74 50.7725 69.7303C50.7531 69.74 50.2969 69.4876 50.4716 69.6138C50.5784 69.6817 51.0249 69.9827 50.6949 69.7206C50.3648 69.4585 50.6949 69.74 50.7725 69.8079C50.8599 69.8953 50.9376 69.9924 51.0249 70.0798C51.1803 70.2448 50.8211 69.8468 50.8308 69.8371C50.8308 69.8371 50.9279 69.9827 50.9376 69.9924C51.0152 70.1186 51.0832 70.2448 51.1511 70.371C51.3453 70.7302 50.9764 69.8662 51.1026 70.2545C51.1414 70.371 51.1803 70.4972 51.2094 70.6137C51.2288 70.6719 51.2385 70.9534 51.287 70.9825C51.2482 70.9534 51.2385 70.2933 51.2482 70.7399C51.2482 70.8369 51.2482 70.9437 51.2579 71.0408C51.2579 71.1961 51.2482 71.3417 51.2385 71.4873C51.2094 71.9339 51.3453 71.002 51.2385 71.4388C51.1608 71.7591 51.0832 72.0698 50.9667 72.3804C50.9376 72.4484 50.9084 72.526 50.889 72.594C50.889 72.594 51.1026 72.1377 50.9764 72.361C50.8987 72.4969 50.8405 72.6328 50.7725 72.7687C50.6075 73.0696 50.4134 73.3512 50.2289 73.6327C50.093 73.8462 50.4134 73.3997 50.4037 73.4094C50.3551 73.4482 50.3163 73.5162 50.2678 73.5647C50.1804 73.6618 50.0736 73.7492 49.9862 73.8559C49.8115 74.0598 50.2386 73.6424 50.2192 73.6909C50.2095 73.7298 50.0833 73.7783 50.0542 73.7977C50.0445 73.7977 49.8892 73.9045 49.8795 73.8948C49.8406 73.8657 50.4716 73.7492 50.093 73.7977C49.6562 73.8559 50.6269 73.8074 50.1901 73.7977C50.1221 73.7977 50.0445 73.7977 49.9862 73.7977C49.7144 73.8268 50.3357 73.8074 50.2872 73.8462C50.2386 73.8851 49.9377 73.7589 49.8795 73.7395C49.5106 73.6424 50.0154 73.788 50.0639 73.8268C49.996 73.7686 49.8892 73.7395 49.8115 73.7006C49.6853 73.6327 49.5688 73.5453 49.4426 73.4774C49.0737 73.2541 49.7921 73.788 49.4717 73.5065C49.2388 73.3026 49.0252 73.0988 48.8116 72.8755C48.7437 72.8075 48.4428 72.429 48.6854 72.7493C48.9281 73.0696 48.6369 72.6716 48.5884 72.594C48.501 72.4581 48.4136 72.3222 48.336 72.1766C48.2874 72.0795 48.0545 71.5844 48.2195 71.963C48.3845 72.3416 48.2001 71.895 48.171 71.798C48.1321 71.6621 48.0933 71.5359 48.0642 71.4C48.0642 71.3611 48.0059 71.2252 48.0253 71.1961C48.0448 71.1573 48.0739 71.7688 48.0739 71.497C48.0739 71.3514 48.0545 71.2058 48.0739 71.0602C48.0739 71.002 48.0836 70.934 48.0836 70.8758C48.0836 70.6428 48.0448 71.2058 48.035 71.2155C48.0642 71.1961 48.103 70.8952 48.1224 70.8466C48.1515 70.7399 48.3457 70.2545 48.171 70.6719C47.9962 71.0893 48.2098 70.6137 48.268 70.5166C48.2972 70.4681 48.336 70.4098 48.3651 70.3613C48.4719 70.1671 48.1904 70.6137 48.171 70.604C48.1904 70.604 48.3942 70.3613 48.4136 70.3322C48.4525 70.2933 48.5107 70.2545 48.5495 70.206C48.7049 70.0506 48.3069 70.4098 48.2972 70.4001C48.2972 70.4001 48.6272 70.206 48.666 70.1865C48.8796 70.0603 48.3554 70.3516 48.3651 70.3127C48.3651 70.2933 48.5495 70.2545 48.569 70.2448C48.5884 70.2448 48.7631 70.1768 48.7728 70.1962C48.7922 70.2157 48.2098 70.2351 48.4719 70.2351C48.6272 70.2351 48.7922 70.2351 48.9475 70.2351C49.0252 70.2351 49.2873 70.2739 48.899 70.2254C48.5107 70.1768 48.8214 70.2254 48.9087 70.2448C49.0446 70.2739 49.1708 70.3322 49.3067 70.3613C49.5494 70.4195 49.0543 70.2448 49.0543 70.2448C49.1126 70.2836 49.1902 70.303 49.2485 70.3322C49.5397 70.4681 49.8115 70.6331 50.0833 70.8078C50.2095 70.8952 50.326 70.9825 50.4522 71.0699C50.8114 71.3223 50.1027 70.7787 50.4425 71.0699C50.7046 71.3029 50.9764 71.5262 51.2288 71.7591C51.3356 71.8562 51.4327 71.9533 51.5297 72.0504C51.5783 72.0989 51.6171 72.1474 51.6656 72.1863C51.8501 72.3416 51.4715 71.9242 51.4812 71.9436C51.588 72.0892 51.6462 72.4095 51.4229 71.6329L51.3065 71.2155L51.3647 70.8661C51.3938 70.9825 51.2676 71.2349 51.2288 71.3514C51.19 71.4873 51.1414 71.6135 51.0929 71.7397C51.0735 71.8077 51.0346 71.8659 51.0152 71.9339C51.0152 71.9533 51.2482 71.4485 51.122 71.6718C51.0444 71.8077 50.9764 71.963 50.8987 72.0989C50.8405 72.1863 50.5299 72.6328 50.7823 72.3028C51.0346 71.9727 50.7337 72.3416 50.6561 72.4095C50.6172 72.4484 50.5396 72.4969 50.5104 72.5454C50.5104 72.5454 50.9279 72.2639 50.7337 72.3707C50.6269 72.429 50.5202 72.4969 50.4134 72.5552C50.2192 72.6716 50.6949 72.4095 50.7143 72.429C50.7143 72.429 50.5007 72.4969 50.4813 72.4969C50.1027 72.6231 51.0346 72.4775 50.6463 72.4872C50.5299 72.4872 50.0154 72.4484 50.491 72.5066C51.0638 72.5746 50.1416 72.3319 50.6463 72.5454C51.0152 72.7105 50.792 72.6134 50.724 72.5746C50.4328 72.3901 50.9084 72.7493 50.9279 72.7493C50.9084 72.7493 50.8211 72.6425 50.8017 72.6328C50.6366 72.4387 51.0735 72.992 51.0346 72.9337C50.9764 72.8561 50.9085 72.6619 51.0735 73.0502C51.2482 73.4676 51.1414 73.2444 51.122 73.157C51.122 73.1182 51.1026 73.0502 51.0832 73.0114C51.0152 72.8464 51.1608 73.3997 51.1414 73.4094C51.1511 73.4094 51.1414 73.2832 51.1414 73.2638C51.1608 73.0114 50.9958 73.8559 51.0832 73.6133C51.122 73.5065 51.2385 73.157 51.0638 73.5841C50.8987 73.9724 50.9764 73.7783 51.0249 73.7006C51.1997 73.4094 50.792 73.9724 50.8114 73.9627C51.0444 73.7103 50.2969 74.2831 50.5978 74.1083C50.6755 74.0598 50.8599 73.9821 50.4813 74.1569C50.3551 74.2345 50.2192 74.2734 50.0736 74.2734C49.8503 74.2928 49.8018 74.3025 49.9377 74.2928C50.2095 74.3025 49.6271 74.2442 49.6562 74.2345C49.6853 74.2151 49.8309 74.2831 49.8698 74.2928C49.9086 74.3025 50.0542 74.3316 50.0833 74.3607C50.1124 74.3996 49.5882 74.1083 49.8115 74.2442C49.9183 74.3122 50.0348 74.3801 50.1513 74.4384C50.3842 74.5549 49.8795 74.254 49.928 74.254C49.9765 74.254 50.093 74.3996 50.1221 74.4287C50.1707 74.4772 50.2095 74.5258 50.2581 74.5743C50.4522 74.7587 50.0348 74.3219 50.0736 74.3316C50.1124 74.3413 50.161 74.5452 50.1998 74.5452C50.1804 74.5452 50.0154 74.0307 50.0639 74.2442C50.1319 74.4966 50.0251 73.8268 50.0348 73.8754C50.0348 73.9821 50.0154 74.1666 50.0639 73.7783C50.1124 73.39 50.093 73.5841 50.0639 73.6812C50.1513 73.4191 50.2678 73.225 50.4425 73.0114C50.2095 73.2832 50.8987 72.7493 50.5687 72.9046C50.5493 72.9046 51.1026 72.7299 50.8793 72.7687C50.8599 72.7687 50.7143 72.8075 50.7046 72.8173C50.7046 72.8075 51.2773 72.7784 51.0541 72.7687C50.9958 72.7687 50.9279 72.7687 50.8696 72.7687C50.8114 72.7687 50.7434 72.7687 50.6852 72.7687C50.4134 72.7784 51.2385 72.8755 50.9667 72.8075C50.8502 72.7784 50.724 72.759 50.6075 72.7202C50.5299 72.7008 50.4522 72.6619 50.3745 72.6425C50.161 72.5843 50.6658 72.7493 50.6658 72.7687C50.6658 72.7687 50.3648 72.6134 50.3357 72.594C50.2386 72.5357 49.8309 72.2445 50.1707 72.5066C50.5104 72.7687 50.1513 72.4872 50.0833 72.4192C49.996 72.3319 49.9086 72.2445 49.8212 72.1571L49.7047 72.0115C49.7241 72.0018 50.0154 72.4484 49.8989 72.2542C49.8309 72.128 49.7436 72.0115 49.6756 71.8853C49.6465 71.8271 49.6271 71.7786 49.5979 71.7203C49.4912 71.5262 49.7339 72.0115 49.7241 72.0212C49.7339 72.0018 49.6174 71.6621 49.6077 71.6135C49.6077 71.5747 49.5979 71.4679 49.5785 71.4388C49.5785 71.4388 49.6174 72.0018 49.6368 71.7786C49.6368 71.73 49.6659 71.3708 49.6368 71.3514C49.6465 71.3611 49.53 71.895 49.5979 71.6815C49.6174 71.6232 49.6271 71.5553 49.6368 71.497C49.6465 71.4388 49.6756 71.3805 49.695 71.3126C49.7436 71.0893 49.5979 71.6135 49.5688 71.6038C49.5688 71.6038 49.7339 71.2932 49.7436 71.2738C49.7727 71.2155 49.8115 71.167 49.8503 71.1185C49.9862 70.8855 49.5106 71.497 49.7047 71.3126C49.8115 71.2155 49.9086 71.099 50.0154 71.002C50.3066 70.7302 49.5785 71.2738 49.928 71.0796C49.9571 71.0602 50.2581 70.8855 50.2581 70.8952C50.2581 70.9146 49.7436 71.0796 49.9668 71.0214C50.0445 71.002 50.1221 70.9631 50.2095 70.9437C50.3163 70.9146 50.7628 70.8369 50.3163 70.9049C49.8698 70.9728 50.3163 70.9243 50.4328 70.9243C50.4522 70.9243 50.6172 70.9437 50.6172 70.934C50.6172 70.9437 50.0639 70.8369 50.2872 70.8855C50.4328 70.9243 50.5687 70.9534 50.7143 70.9923C51.0929 71.0893 50.1707 70.7204 50.6561 70.9631C50.7725 71.0214 50.8696 71.099 50.9861 71.1573C51.2094 71.2641 50.7143 70.9825 50.7531 70.9631C50.7628 70.9631 50.889 71.0796 50.8987 71.0893C50.9279 71.1185 51.2191 71.3806 51.1997 71.4097C51.1706 71.4485 50.9182 70.9728 51.0055 71.167C51.0249 71.2155 51.0638 71.2544 51.0929 71.3029C51.1026 71.3223 51.2288 71.5844 51.2385 71.5844C51.2094 71.5844 51.0541 71.0505 51.0832 71.2446C51.0832 71.2932 51.1123 71.3417 51.1317 71.3903C51.1608 71.5067 51.2385 71.9533 51.1705 71.4679C51.1026 70.9825 51.1608 71.4291 51.1608 71.5553C51.1608 71.6621 51.1608 71.7591 51.1511 71.8659C51.1511 72.2445 51.2773 71.2641 51.1803 71.6329C51.1511 71.7494 51.1317 71.8756 51.0929 71.9921C51.0638 72.0892 51.0249 72.1863 50.9861 72.293C50.9279 72.4872 51.1123 71.9436 51.1317 71.9533C51.1317 71.9533 51.0638 72.0892 51.0638 72.0989C51.0152 72.1863 50.9667 72.2833 50.9084 72.3707C50.8793 72.4192 50.8502 72.4581 50.8211 72.5066C50.6463 72.7881 50.9958 72.2445 51.0152 72.2639C51.0541 72.3125 50.2678 72.9434 50.7434 72.5746C51.2191 72.2057 50.3745 72.7978 50.3745 72.759C50.3745 72.7299 50.9085 72.5843 50.7143 72.6037C50.6658 72.6037 50.6172 72.6328 50.5687 72.6522C50.5202 72.6716 50.4619 72.6716 50.4134 72.6911C50.2386 72.759 50.7531 72.6425 50.7628 72.6522C50.6949 72.6231 50.4813 72.6716 50.4037 72.6619C50.3454 72.6619 50.2872 72.6522 50.2289 72.6522C49.9571 72.6522 50.7823 72.7687 50.5202 72.6813C50.394 72.6425 50.2483 72.6134 50.1221 72.5649C49.7436 72.4484 50.6075 72.8173 50.2678 72.6231C50.161 72.5649 50.0639 72.4969 49.9571 72.4387C49.6465 72.2542 50.394 72.8173 50.0154 72.4872C49.928 72.4095 49.8406 72.3222 49.7533 72.2348C49.7436 72.2251 49.6368 72.0989 49.6368 72.0989C49.6368 72.0989 49.9474 72.5357 49.8309 72.3513C49.763 72.2542 49.695 72.1571 49.6368 72.0504C49.6077 72.0018 49.5785 71.9436 49.5494 71.895C49.3844 71.6135 49.6562 72.0989 49.6465 72.1474C49.6659 72.0698 49.5397 71.8368 49.5203 71.7494C49.5203 71.7203 49.5009 71.5941 49.4815 71.5747C49.4815 71.5747 49.53 72.1474 49.53 71.9242C49.53 71.8077 49.5106 71.6912 49.5203 71.565C49.5397 71.0505 49.4232 72.0601 49.5009 71.6718C49.763 70.4292 49.1417 68.9925 47.8021 68.6819C46.5886 68.4004 45.0937 69.0508 44.8122 70.3807L44.7636 70.4583Z" fill="#171717"/>
<path d="M41.0752 86.9608C40.1238 88.0092 39.8132 89.6013 40.2986 90.9312C40.7839 92.2611 42.0556 93.2707 43.4632 93.4454C45.4047 93.6881 47.5209 91.9407 47.1714 90.009C46.9579 88.815 45.958 87.9316 44.9581 87.2423C44.7154 87.0773 44.4533 86.9123 44.1524 86.8832C43.6185 86.8443 43.1817 87.2618 42.8128 87.6501C41.745 88.7858 40.6383 90.5138 41.6091 91.7272C42.1818 92.4552 43.3176 92.5523 44.1427 92.1155C44.9678 91.6786 45.492 90.8341 45.7833 89.9604C46.0939 89.0188 46.1618 87.9219 45.5988 87.0967C44.5116 85.5144 41.9488 86.058 40.551 87.3685C39.7938 88.0772 39.1725 89.0285 39.2404 90.0575C39.3084 91.0865 40.3277 92.0669 41.3178 91.7757" fill="#BECBEB"/>
<path d="M39.3661 85.2428C37.5702 87.2813 37.1334 90.1353 38.3954 92.5719C38.9293 93.6106 39.8709 94.5328 40.8902 95.0958C42.1424 95.785 43.4626 95.9986 44.8605 95.785C47.0253 95.455 49.19 93.5912 49.5395 91.3779C49.7531 90.0091 49.5201 88.6404 48.695 87.4949C47.9766 86.495 47.0447 85.6408 45.9866 85.0098C45.1323 84.505 44.1325 84.3206 43.1714 84.5924C42.3657 84.8156 41.6765 85.3495 41.1134 85.9417C40.2495 86.8639 39.5311 87.8832 39.104 89.0772C38.5992 90.4848 38.8128 92.0283 39.7156 93.2126C40.5795 94.3289 42.0259 94.9405 43.4432 94.7852C45.0547 94.6104 46.2972 93.795 47.2291 92.4845C47.9766 91.4361 48.3552 90.1353 48.4523 88.8636C48.5493 87.4949 48.0543 86.0679 47.0835 85.0972C46.2001 84.2041 45.0158 83.7964 43.7927 83.7187C41.327 83.5731 38.8322 85.1457 37.5994 87.2231C36.716 88.718 36.551 90.5527 37.4052 92.0962C38.308 93.7174 40.1815 94.5813 41.9871 94.1348C43.22 93.8338 44.0742 92.3777 43.6859 91.1449C43.2976 89.912 42.0259 89.1257 40.696 89.4461C40.6281 89.4655 40.5601 89.4849 40.4825 89.4849L41.1232 89.3975C41.0164 89.3975 40.9193 89.3975 40.8028 89.3975L41.4435 89.4849C41.2979 89.4655 41.1717 89.4267 41.0358 89.3684L41.6182 89.6111C41.5697 89.5917 41.3853 89.4558 41.3367 89.4558C41.4241 89.4558 41.8221 89.8829 41.5309 89.5917C41.3173 89.3781 41.5503 89.417 41.6668 89.7761C41.6376 89.6791 41.5503 89.5723 41.5017 89.4849L41.7444 90.0674C41.6668 89.8926 41.6182 89.7179 41.5891 89.5335L41.6765 90.1741C41.6571 89.9703 41.6571 89.7761 41.6765 89.5723L41.5891 90.213C41.6279 89.9703 41.6959 89.7373 41.7833 89.514L41.5406 90.0965C41.6571 89.8344 41.8609 89.6014 41.9677 89.3393C41.7153 89.6596 41.6668 89.7276 41.8221 89.5335C41.8803 89.4655 41.9289 89.4073 41.9871 89.349C42.0842 89.2422 42.1813 89.1452 42.288 89.0481C42.4531 88.8928 42.7831 88.7374 42.1424 89.1354C42.2395 89.0675 42.3366 88.9995 42.4337 88.9316C42.6569 88.7957 42.8802 88.6792 43.1229 88.5724L42.5404 88.8151C42.919 88.6598 43.3073 88.5433 43.715 88.485L43.0743 88.5724C43.3656 88.5336 43.6568 88.5336 43.948 88.5627L43.3073 88.4753C43.55 88.5142 43.7927 88.5724 44.016 88.6598L43.4335 88.4171C43.5403 88.4656 43.6471 88.5239 43.7539 88.5918C44.0839 88.7763 43.2782 88.1162 43.5888 88.4656C43.6277 88.4948 43.6568 88.5336 43.6859 88.5627C43.8412 88.7471 43.7733 88.6598 43.4821 88.3006C43.5306 88.4462 43.6471 88.5821 43.715 88.7277L43.4724 88.1453C43.5403 88.3394 43.5985 88.5336 43.6277 88.7277L43.5403 88.087C43.5791 88.4171 43.5791 88.7471 43.5403 89.0772L43.6277 88.4365C43.5694 88.8442 43.4529 89.2422 43.2976 89.6305L43.5403 89.0481C43.4626 89.2325 43.3753 89.417 43.2685 89.5917C43.22 89.6791 43.152 89.7567 43.1035 89.8538C42.987 90.0771 43.5209 89.3878 43.2297 89.6985C43.1714 89.7567 43.1229 89.815 43.0646 89.8732C43.0064 89.9315 42.6958 90.1838 43.0452 89.9217C43.3947 89.6596 43.0841 89.8829 42.9967 89.9412C42.8996 89.9994 42.8025 90.0479 42.6958 90.0868L43.2782 89.8441C43.1035 89.912 42.9384 89.9509 42.7637 89.9897L43.4044 89.9023C43.1908 89.9315 42.9773 89.9315 42.7637 89.9023L43.4044 89.9897C43.2297 89.9606 43.0646 89.9217 42.8996 89.8538L43.4821 90.0965C43.4044 90.0674 43.3267 89.9994 43.2491 89.98C43.1423 89.912 43.1811 89.9509 43.3656 90.0771C43.55 90.2324 43.5791 90.2518 43.4529 90.1353C43.2394 89.9023 43.618 90.3586 43.618 90.378C43.618 90.3489 43.4724 90.1159 43.4529 90.0868L43.6956 90.6692C43.6374 90.5333 43.6083 90.3974 43.5791 90.2518L43.6665 90.8925C43.6471 90.7081 43.6471 90.5333 43.6665 90.3489L43.5791 90.9896C43.618 90.7178 43.6956 90.4654 43.7927 90.213L43.55 90.7954C43.6568 90.543 43.783 90.31 43.9286 90.0771C44.0063 89.9509 44.0936 89.8344 44.181 89.7082C44.4237 89.349 43.8121 90.145 44.113 89.7955C44.2684 89.6111 44.4334 89.417 44.6081 89.2422C44.6858 89.1646 44.8314 89.0772 44.8799 88.9801C44.5499 89.2228 44.4819 89.2713 44.6858 89.1354C44.7537 89.0966 44.8217 89.0578 44.8993 89.0287L44.3169 89.2713C44.3946 89.2422 44.4625 89.2228 44.5402 89.2034L43.8995 89.2908C43.9771 89.2811 44.0548 89.2713 44.1422 89.2811L43.5015 89.1937C43.6374 89.2131 43.7345 89.2422 43.8607 89.2908L43.2782 89.0481C43.5403 89.1743 43.7733 89.349 44.016 89.514C44.3946 89.7761 43.5597 89.1257 43.9189 89.4364C44.0257 89.5335 44.1422 89.6208 44.2489 89.7179C44.3557 89.815 44.4528 89.912 44.5499 90.0188C44.7052 90.1838 44.8023 90.4848 44.4819 89.9023C44.6178 90.145 44.7829 90.3586 44.8993 90.6207L44.6567 90.0382C44.744 90.2615 44.8023 90.4848 44.8411 90.7178L44.7537 90.0771C44.7731 90.2809 44.7731 90.4848 44.7537 90.6983L44.8411 90.0577C44.8023 90.3003 44.744 90.5139 44.6567 90.7469L44.8993 90.1644C44.8702 90.2227 44.6178 90.7178 44.5984 90.6983C44.5693 90.6789 45.0644 90.1741 44.7537 90.4945C44.6761 90.5721 44.6081 90.6498 44.5305 90.7178C44.4625 90.776 44.3946 90.8342 44.3266 90.8925C44.7731 90.4362 44.6761 90.6304 44.4722 90.7663C44.2878 90.8828 44.1033 90.9799 43.8995 91.0672L44.4819 90.8245C44.181 90.941 43.8704 91.0284 43.55 91.0769L44.1907 90.9896C43.9383 91.0187 43.6956 91.0187 43.4432 90.9896L44.0839 91.0769C43.7442 91.0284 43.4141 90.941 43.0938 90.8051L43.6762 91.0478C43.4626 90.9507 43.2588 90.8537 43.0646 90.7275C42.9967 90.6886 42.9384 90.6401 42.8802 90.6013L43.1908 90.844C43.0938 90.8245 42.9579 90.6401 42.8899 90.5721C42.8122 90.4945 42.7346 90.4071 42.6569 90.3197C42.4919 90.1353 43.0355 90.8634 42.7637 90.446C42.6278 90.2421 42.5113 90.0188 42.4142 89.7858L42.6569 90.3683C42.5404 90.0771 42.4628 89.7761 42.424 89.4655L42.5113 90.1062C42.4725 89.747 42.4725 89.4073 42.5113 89.0481L42.424 89.6888C42.4725 89.3393 42.5696 88.9995 42.7055 88.6695L42.4628 89.2519C42.5404 89.0675 42.6278 88.8928 42.7346 88.7277C42.7734 88.6598 42.8317 88.6015 42.8608 88.5336C42.589 89.0481 42.6084 88.8539 42.7734 88.6598C43.6083 87.7085 43.783 86.1553 42.7734 85.2233C41.8512 84.3788 40.2398 84.2041 39.337 85.2233L39.3661 85.2428Z" fill="#171717"/>
<path d="M51.4138 77.2631C48.1035 76.9816 47.2881 81.5732 49.6373 83.3108C50.2683 83.7768 50.9478 83.8738 51.6759 84.0583C51.8506 84.1068 52.3845 84.1942 52.4331 84.4369C52.4428 84.4951 52.4039 84.5048 52.268 84.6407C51.9089 85.0096 51.3264 85.2038 50.9187 85.5435C50.4819 85.9027 50.1227 86.3589 49.948 86.9123C49.482 88.3587 50.3071 89.776 51.375 90.7079C51.938 91.2029 54.4425 92.397 53.7436 93.426C53.4718 93.8143 52.7534 94.0084 52.3651 94.2608C51.8409 94.6103 51.3944 95.0374 51.074 95.5907C50.3266 96.8915 50.4333 98.4156 51.0061 99.7455C51.6079 101.182 53.7047 99.9396 53.1029 98.5224C52.6078 97.3478 53.2679 96.5323 54.2289 95.9887C55.19 95.4451 55.9666 94.8529 56.2287 93.7851C56.5393 92.5523 55.9472 91.3583 55.0929 90.504C54.3551 89.7662 52.5787 89.1256 52.2972 88.048C52.0933 87.2326 53.3941 86.8734 53.9086 86.4366C54.7531 85.6988 55.0929 84.6407 54.6755 83.5632C54.2192 82.408 53.1417 81.9129 52.0059 81.6605C51.3847 81.5246 50.8605 81.4373 50.6954 80.7286C50.5595 80.1559 50.7925 79.6414 51.4138 79.6996C52.967 79.8258 52.9573 77.399 51.4138 77.2728V77.2631Z" fill="#7796E0"/>
<path d="M47.8798 93.8143C46.6275 93.8725 45.2102 94.4161 44.5307 95.5422C44.1521 96.1732 44.123 96.9595 44.453 97.6099C44.7637 98.2214 45.3655 98.6292 46.0159 98.8233C46.6663 99.0174 47.3167 98.9883 47.9574 98.9786C48.1127 98.9786 48.2681 98.9786 48.4234 98.9786C48.5107 98.9786 48.7631 98.9495 48.8408 98.998C48.8311 98.998 48.5496 98.9398 48.7728 98.998C48.8311 99.0077 48.8796 99.0174 48.9379 99.0369C48.9961 99.0563 49.0446 99.066 49.0932 99.0854C49.3262 99.1436 48.899 98.9495 49.0738 99.0854C49.2388 99.2019 48.9961 99.0175 48.9864 99.0077C49.1223 99.1339 48.9184 98.901 48.9087 98.8913L48.8311 98.7068C48.8117 98.4835 48.802 98.4253 48.802 98.5127C48.802 98.6486 48.8602 98.1729 48.8311 98.2991C48.7825 98.4932 49.0155 98.0079 48.8602 98.202C48.8602 98.202 49.0932 97.9593 48.967 98.0564C48.9379 98.0758 48.899 98.1244 48.8699 98.1535C48.7631 98.27 49.1514 97.9787 48.9184 98.1147C48.8505 98.1535 48.7825 98.202 48.7049 98.2409C48.5496 98.3282 48.3845 98.4059 48.2195 98.4835C47.2973 98.901 46.4333 99.2504 45.8024 100.076C45.6276 100.309 45.6082 100.745 45.6762 101.007C45.7538 101.289 45.9674 101.59 46.2295 101.736C46.8702 102.075 47.472 101.842 47.8895 101.299C47.6371 101.629 47.7924 101.435 47.8603 101.357C48.0642 101.153 47.6371 101.503 47.8506 101.357C47.9962 101.26 48.1419 101.172 48.2875 101.095C48.6175 100.92 48.9573 100.784 49.2873 100.629C50.0445 100.289 50.8891 99.8426 51.1414 98.9883C51.3259 98.3573 51.1414 97.6681 50.6367 97.241C50.1028 96.775 49.4135 96.6294 48.7243 96.5712C48.1419 96.5226 47.5497 96.5906 46.9575 96.5518C46.9187 96.5518 46.7052 96.5323 46.8799 96.5518C47.0546 96.5712 46.8508 96.5518 46.8119 96.5323C46.7537 96.5226 46.6954 96.5032 46.6372 96.4838H46.5984C46.4916 96.4353 46.4916 96.4353 46.5984 96.4741L46.6663 96.5032C46.6663 96.5032 46.5984 96.4644 46.5693 96.445C46.5207 96.4159 46.3751 96.3576 46.5401 96.4353C46.6857 96.5032 46.579 96.4644 46.5401 96.4159C46.4625 96.3285 46.6954 96.678 46.579 96.445C46.511 96.3091 46.6663 96.6974 46.6275 96.5615C46.5887 96.4256 46.6275 96.8721 46.6372 96.6682C46.6469 96.4644 46.6178 96.7944 46.6178 96.7944C46.6178 96.7653 46.6372 96.7265 46.6469 96.6974C46.676 96.61 46.6566 96.6488 46.5984 96.8236L46.6663 96.7071C46.6663 96.7847 46.4722 96.9206 46.6566 96.7362C46.6954 96.6974 46.7343 96.6682 46.7634 96.6294C46.9187 96.4741 46.6081 96.7265 46.7343 96.6488C46.8411 96.5809 46.9381 96.5129 47.0546 96.4547C47.074 96.445 47.1808 96.377 47.2099 96.377C47.0643 96.4353 47.0352 96.445 47.1226 96.4159C47.1614 96.3964 47.2099 96.3867 47.2488 96.3673C47.3944 96.3188 47.5303 96.2897 47.6759 96.2508C47.7536 96.2314 47.8603 96.1635 47.6177 96.2508C47.6953 96.2217 47.8021 96.2314 47.8798 96.2314C48.5107 96.2023 49.1223 95.6975 49.0932 95.018C49.0641 94.387 48.5593 93.7754 47.8798 93.8046V93.8143Z" fill="#7796E0"/>
</g>
<defs>
<clipPath id="clip0_6174_7984">
<rect width="320" height="117.225" fill="white" transform="translate(0 0.0102539)"/>
</clipPath>
</defs>
</svg>
