<svg width="280" height="409" viewBox="0 0 280 409" fill="none" xmlns="http://www.w3.org/2000/svg">
<g clip-path="url(#clip0_6174_7986)">
<path d="M46.9279 113.485C52.2745 106.286 58.6706 98.9391 62.77 93.5555C70.4997 83.4057 77.9947 75.2932 82.1929 63.2419C88.4285 45.3501 91.6019 24.3096 107.024 13.2955C119.545 4.35574 130.966 2.52828 146.327 3.59018C149.883 3.83713 158.86 6.61537 162.083 8.14648C164.861 9.46768 167.133 11.6285 169.158 13.9375C182.851 29.508 186.469 51.2399 189.531 71.7371C195.397 110.904 201.249 150.071 207.115 189.238C210.152 209.537 213.19 230.183 210.263 250.495C208.176 264.941 203.102 278.833 196.434 291.822C186.63 310.949 172.257 329.088 152.106 336.583C139.758 341.176 126.262 341.398 113.087 341.176C96.8867 340.892 80.526 339.991 64.9432 335.558C49.3604 331.125 38.7538 324.47 28.8139 311.677C23.2204 304.466 15.0462 294.44 12.0086 285.846C1.68598 256.582 0.624074 224.392 7.2054 194.066C13.7867 163.74 28.2953 138.316 46.9156 113.497" fill="#BECBEB"/>
<path d="M49.5946 115.041C58.0652 103.681 67.5852 93.0987 75.8335 81.5659C79.9082 75.8613 83.2298 69.7862 85.4894 63.1308C87.4774 57.2903 89.132 51.3264 91.0088 45.4489C94.4785 34.5706 98.9607 22.8773 108.58 15.9626C113.766 12.2336 119.483 9.3566 125.706 7.83783C131.929 6.31906 138.263 6.22028 144.585 6.57837C145.302 6.61541 146.018 6.65245 146.722 6.72654C147.277 6.78828 145.931 6.57837 146.981 6.76358C147.215 6.80062 147.45 6.85002 147.672 6.88706C148.969 7.13401 150.253 7.45505 151.525 7.80079C154.118 8.50461 156.699 9.30721 159.217 10.2703C161.28 11.0606 163.761 12.7275 165.688 14.7155C167.935 17.0369 169.898 19.6175 171.652 22.3217C178.875 33.5087 182.159 46.659 184.481 59.6241C187.234 74.9846 189.247 90.5056 191.556 105.94C194.026 122.412 196.483 138.872 198.952 155.343C201.422 171.815 204.064 187.978 206.2 204.351C208.337 220.724 209.571 236.529 206.855 252.409C204.348 267.078 198.854 281.166 191.692 294.169C185.518 305.356 177.825 315.876 167.861 323.976C163.119 327.828 157.723 331.1 152.019 333.323C145.018 336.027 137.597 337.311 130.139 337.805C122.681 338.299 114.716 338.163 107.011 337.929C99.3065 337.694 91.2804 337.25 83.4891 336.2C70.4746 334.447 57.0033 331.162 45.9397 323.803C41.0377 320.543 36.7777 316.444 33.0117 311.949C28.8258 306.961 24.8128 301.701 21.1826 296.305C19.2687 293.465 17.4659 290.538 16.0089 287.427C14.5519 284.315 13.6752 281.142 12.7244 277.968C10.5512 270.696 8.93368 263.262 7.83474 255.755C5.64919 240.789 5.68624 225.454 7.53839 210.464C9.39055 195.473 12.922 182.039 18.2438 168.63C23.3434 155.776 30.0853 143.601 37.6421 132.043C41.4328 126.24 45.4582 120.585 49.6193 115.041C50.6195 113.707 49.8293 111.596 48.508 110.818C46.9275 109.892 45.2853 110.583 44.2851 111.929C26.8378 135.217 12.107 160.764 5.17998 189.263C-2.21629 219.663 -1.93229 252.372 7.58778 282.278C9.77332 289.131 12.8479 295.181 16.972 301.071C21.0962 306.961 25.1339 312.32 29.6655 317.518C37.9878 327.075 48.5945 333.57 60.5964 337.46C75.8582 342.399 92.046 343.72 107.987 344.152C123.928 344.584 139.967 344.893 154.636 338.904C180.616 328.31 196.903 302.083 206.484 276.882C212.276 261.669 214.893 245.716 214.51 229.442C214.115 212.303 211.14 195.325 208.608 178.409C203.546 144.589 198.483 110.756 193.421 76.9355C191.309 62.8468 189.482 48.5111 184.629 35.0522C182.283 28.5326 179.258 22.2105 175.183 16.58C173.146 13.7647 170.923 10.9618 168.293 8.66513C165.947 6.62776 163.403 5.26951 160.514 4.18291C155.402 2.26902 150.055 0.688516 144.585 0.392171C137.893 0.0217402 131.102 0.243999 124.545 1.76277C111.876 4.70152 100.331 12.5053 93.5648 23.6676C86.7982 34.8299 84.1682 47.3505 80.2293 59.3771C78.0314 66.119 74.9074 72.2064 70.808 77.9974C66.7085 83.7885 62.4486 89.0857 58.1269 94.4939C53.4842 100.297 48.6933 105.977 44.2481 111.929C43.2479 113.262 44.0258 115.374 45.3594 116.152C46.9399 117.078 48.5821 116.386 49.5823 115.041H49.5946Z" fill="#171717"/>
<path d="M47.2859 133.994C41.6553 152.133 38.0745 171.148 39.5192 190.09C40.9639 209.019 47.7674 227.935 60.7819 241.765C62.9428 244.061 65.5358 246.346 68.6968 246.568C72.5122 246.84 75.8831 243.987 77.9576 240.789C82.2175 234.208 82.8349 225.91 82.2175 218.094C81.6001 210.278 79.8961 202.536 80.032 194.695C80.2048 184.237 83.761 173.852 90.0336 165.493" fill="#BECBEB"/>
<path d="M44.3104 133.167C35.4818 161.702 31.8763 193.103 43.9277 221.268C46.6318 227.59 50.1015 233.504 54.3244 238.925C58.5473 244.346 63.721 250.717 71.0926 249.47C77.8962 248.321 82.045 241.197 83.8848 235.171C85.9839 228.281 85.7123 220.934 84.885 213.871C83.8972 205.364 82.2426 196.77 83.6749 188.213C84.9591 180.496 88.046 173.309 92.7011 167.024C93.6889 165.678 92.9233 163.579 91.5898 162.801C90.0216 161.888 88.367 162.567 87.3669 163.913C78.9334 175.285 75.9329 189.151 77.3776 203.092C78.1184 210.216 79.5261 217.316 79.3162 224.515C79.1433 230.244 77.9209 236.888 73.7474 241.147C72.0804 242.851 69.8208 244.111 67.4377 243.135C64.6471 241.999 62.4986 239.159 60.6094 236.925C56.5841 232.171 53.2872 226.799 50.6201 221.169C45.0884 209.488 42.5571 196.511 42.3101 183.644C42.0014 167.024 45.3723 150.627 50.262 134.809C51.4351 131.006 45.4835 129.376 44.3104 133.167Z" fill="#171717"/>
<path d="M176.578 190.287C185.073 202.24 182.357 197.782 191.963 207.698C195.532 211.39 199.495 214.674 203.434 217.946C204.78 219.057 206.151 220.193 207.805 220.774C210.139 221.589 212.707 221.206 215.103 220.576C223.561 218.366 231.031 213.476 238.07 208.303C248.355 200.746 258.085 192.423 267.136 183.422C270.729 179.854 274.31 176.038 276.026 171.272C277.743 166.506 277.088 160.542 273.199 157.294C269.408 154.133 263.864 154.405 259.036 155.405C246.812 157.961 235.403 164.271 226.759 173.272C218.98 168.827 216.338 163.159 211.46 158.739C204.249 152.195 204.262 154.343 198.767 142.168" fill="#BECBEB"/>
<path d="M173.912 191.843C176.493 195.473 178.987 199.326 182.185 202.45C185.864 206.055 189.47 209.772 193.248 213.254C196.212 215.983 199.299 218.625 202.472 221.12C205.917 223.824 209.498 224.75 213.832 224.009C221.228 222.749 228.217 218.811 234.366 214.686C247.442 205.895 259.765 195.449 270.755 184.175C275.645 179.162 280.238 173.025 279.991 165.666C279.88 162.246 278.793 158.961 276.583 156.331C274.373 153.701 270.878 152.232 267.421 151.812C263.519 151.33 259.531 152.047 255.74 153.01C251.949 153.973 248.134 155.356 244.504 156.998C237.046 160.381 230.254 165.234 224.55 171.111L228.291 170.63C224.34 168.333 221.315 165.209 218.388 161.752C216.005 158.937 213.511 156.393 210.683 154.022C209.794 153.281 208.893 152.565 208.041 151.8C207.683 151.479 207.325 151.145 207.004 150.787C206.818 150.589 205.917 149.441 206.386 150.108C204.3 147.231 202.892 143.86 201.435 140.637C200.743 139.118 198.546 138.748 197.212 139.526C195.656 140.44 195.409 142.23 196.101 143.749C197.582 147.033 199.015 150.491 201.188 153.392C202.657 155.343 204.46 156.825 206.325 158.381C209.263 160.838 211.832 163.505 214.301 166.432C217.475 170.173 220.932 173.47 225.192 175.964C226.365 176.643 227.982 176.458 228.933 175.482C237.601 166.53 249.653 159.579 262.161 157.998C264.643 157.689 267.446 157.64 269.742 158.739C272.039 159.838 273.36 162.061 273.731 164.555C274.62 170.432 270.557 175.495 266.742 179.458C256.777 189.806 245.615 199.239 233.897 207.537C228.464 211.39 222.71 215.007 216.326 217.032C213.449 217.946 210.251 218.934 207.498 217.205C204.559 215.366 201.904 212.735 199.311 210.439C195.026 206.648 191.088 202.45 186.963 198.499C185.939 197.523 184.988 196.486 184.099 195.375C183.988 195.239 183.889 195.115 183.778 194.979C183.37 194.461 183.963 195.226 183.568 194.708C183.148 194.152 182.74 193.609 182.333 193.053C181.296 191.633 180.271 190.189 179.246 188.756C178.283 187.398 176.554 186.756 175.023 187.645C173.677 188.435 172.949 190.497 173.912 191.868V191.843Z" fill="#171717"/>
<path d="M154.439 92.1603C158.193 96.0868 164.132 96.7042 169.553 97.0746C177.085 97.5932 184.617 98.1242 192.149 98.6428C193.026 98.7045 193.927 98.7663 194.792 98.5934C197.2 98.1119 199.027 95.5929 198.731 93.1481C198.434 90.7032 196.076 87.4558 193.619 87.5669" fill="#BECBEB"/>
<path d="M152.266 94.3333C158.538 100.643 168.676 100.1 176.887 100.668C182.061 101.026 187.247 101.433 192.42 101.742C197.162 102.026 201.348 99.1612 201.805 94.2221C202.237 89.6782 198.248 84.5909 193.606 84.4798C189.63 84.381 189.63 90.5549 193.606 90.6537C193.803 90.6537 194.285 90.9994 194.643 91.4316C195.038 91.9008 195.347 92.4564 195.532 93.0244C195.828 93.9628 195.433 95.1235 194.384 95.5063C193.532 95.815 192.42 95.568 191.531 95.5063C190.309 95.4199 189.086 95.3334 187.864 95.247C185.32 95.0741 182.777 94.8889 180.233 94.716C175.578 94.395 170.898 94.1974 166.256 93.6912C162.798 93.3208 159.143 92.5058 156.612 89.9622C153.809 87.1346 149.438 91.5056 152.241 94.3333H152.266Z" fill="#171717"/>
<path d="M127.472 40.2012C129.213 42.3126 131.929 43.3251 134.51 44.2265C137.337 45.2143 140.214 46.2022 143.203 46.4491C146.191 46.6961 149.364 46.1157 151.71 44.2636" fill="#BECBEB"/>
<path d="M125.286 42.3867C126.928 44.2759 129.114 45.4242 131.386 46.3503C133.658 47.2763 136.029 48.0913 138.399 48.721C143.301 50.0052 149.018 50.1287 153.266 46.943C154.6 45.9428 155.279 44.2759 154.377 42.7201C153.612 41.4112 151.488 40.6086 150.154 41.6088C147.03 43.9548 143.289 43.6708 139.61 42.646C137.56 42.078 135.522 41.3865 133.547 40.6086C132.114 40.0529 130.682 39.2257 129.633 38.0156C128.583 36.8055 126.385 36.8919 125.262 38.0156C124.014 39.2627 124.163 41.1148 125.262 42.3867H125.286Z" fill="#171717"/>
<path d="M171.207 45.4984C176.344 47.5234 176.344 48.8075 181.48 46.8319L171.207 45.4984Z" fill="#BECBEB"/>
<path d="M170.38 48.4741C170.677 48.5976 170.973 48.7211 171.269 48.8446L170.529 48.5359C171.442 48.9187 172.319 49.3508 173.22 49.7583C174.048 50.1287 174.9 50.5362 175.789 50.7091C178.036 51.1536 180.172 50.6226 182.284 49.82C183.049 49.5237 183.703 49.1409 184.123 48.4001C184.506 47.7333 184.679 46.7578 184.432 46.0169C183.963 44.5476 182.246 43.2511 180.629 43.8561C179.604 44.2389 178.567 44.6093 177.493 44.7822L178.308 44.6711C177.814 44.7328 177.332 44.7451 176.838 44.6834L177.653 44.7945C177.085 44.7081 176.542 44.5229 175.999 44.3006L176.739 44.6093C175.147 43.9302 173.603 43.1646 171.986 42.5225C171.294 42.2509 170.232 42.4732 169.602 42.8312C168.973 43.1893 168.355 43.9425 168.182 44.6711C167.997 45.4613 168.047 46.3503 168.491 47.0542C168.936 47.758 169.553 48.1654 170.331 48.4741H170.38Z" fill="#171717"/>
<path d="M58.5714 335.583C55.9414 348.128 53.9658 360.797 52.6569 373.539C52.3359 376.626 52.0642 379.726 51.8173 382.825C51.6938 384.43 51.5827 386.023 51.4839 387.628C51.3851 389.233 51.2493 390.752 51.9531 392.197C53.2743 394.926 56.6082 395.778 59.1888 396.901C62.177 398.21 65.1528 399.519 68.1409 400.828C69.672 401.495 71.4501 401.272 72.3638 399.717C73.1294 398.408 72.796 396.16 71.2525 395.494C68.462 394.271 65.659 393.049 62.8684 391.814C61.5596 391.246 60.2631 390.678 58.9542 390.098C58.3862 389.851 57.8182 389.48 57.2379 389.27C57.7565 389.468 57.4231 390.024 57.5589 389.283C57.8553 387.801 57.7442 386.122 57.8553 384.615C57.9541 383.22 58.0652 381.812 58.1763 380.417C58.4233 377.515 58.6949 374.626 59.0036 371.737C60.2507 360.142 62.1152 348.622 64.5107 337.213C64.8564 335.583 64.0291 333.879 62.3498 333.409C60.8187 332.99 58.8925 333.928 58.5468 335.57L58.5714 335.583Z" fill="#171717"/>
<path d="M128.151 344.275C127.2 356.932 126.114 369.564 124.879 382.195C124.583 385.245 124.274 388.307 123.965 391.357C123.657 394.407 123.644 397.457 126.299 399.618C128.484 401.396 131.201 402.655 133.646 404.014C136.375 405.532 139.128 406.989 141.906 408.397C145.438 410.2 148.562 404.878 145.018 403.063C142.413 401.729 139.832 400.371 137.264 398.963C135.016 397.729 132.423 396.605 130.398 395.025C129.719 394.481 129.892 393.938 129.954 393.098C130.065 391.493 130.275 389.9 130.448 388.295C130.732 385.443 131.016 382.59 131.287 379.738C132.423 367.921 133.436 356.092 134.325 344.263C134.448 342.596 132.819 341.176 131.238 341.176C129.46 341.176 128.275 342.596 128.151 344.263V344.275Z" fill="#171717"/>
<path d="M147.414 75.5155C164.108 87.1347 185.778 87.9373 206.103 88.3201C208.054 88.3571 210.165 88.3448 211.746 87.2088C213.042 86.2827 213.771 84.7145 213.968 83.134C214.388 79.8002 212.647 76.4539 210.103 74.256C207.56 72.0582 204.337 70.811 201.102 69.8973C185.297 65.3657 168.059 67.2179 152.588 61.6737" fill="#BECBEB"/>
<path d="M145.857 78.1702C161.773 89.135 181.74 90.7649 200.483 91.2712C205.003 91.3946 210.917 92.4071 214.473 88.9127C218.03 85.4183 217.634 79.2445 214.992 75.2191C212.214 70.9592 207.62 68.6378 202.891 67.1808C198.162 65.7238 192.779 64.8347 187.642 64.1926C176.159 62.7603 164.441 62.5628 153.414 58.6732C151.846 58.1176 150.031 59.303 149.611 60.8341C149.142 62.5381 150.191 64.0692 151.772 64.6372C160.786 67.8105 170.367 68.6255 179.813 69.5392C184.382 69.9837 188.963 70.4406 193.482 71.2802C197.656 72.0581 202.15 72.9472 205.892 75.0463C208.633 76.5897 211.992 79.9607 210.757 83.4797C210.139 85.2331 208.485 85.2455 206.855 85.2331C204.731 85.2331 202.62 85.159 200.496 85.0973C192.05 84.875 183.555 84.4552 175.22 82.9611C165.873 81.2819 156.847 78.2567 148.981 72.836C147.611 71.8853 145.561 72.5767 144.758 73.9473C143.857 75.4784 144.487 77.2195 145.87 78.1702H145.857Z" fill="#171717"/>
</g>
<defs>
<clipPath id="clip0_6174_7986">
<rect width="280" height="408.529" fill="white" transform="translate(0 0.235596)"/>
</clipPath>
</defs>
</svg>
