<svg width="10" height="10" viewBox="0 0 10 10" fill="none" xmlns="http://www.w3.org/2000/svg">
<path d="M8.99967 5.66732H5.66634V9.00065C5.66634 9.36732 5.36634 9.66732 4.99967 9.66732C4.63301 9.66732 4.33301 9.36732 4.33301 9.00065V5.66732H0.999674C0.633008 5.66732 0.333008 5.36732 0.333008 5.00065C0.333008 4.63398 0.633008 4.33398 0.999674 4.33398H4.33301V1.00065C4.33301 0.633984 4.63301 0.333984 4.99967 0.333984C5.36634 0.333984 5.66634 0.633984 5.66634 1.00065V4.33398H8.99967C9.36634 4.33398 9.66634 4.63398 9.66634 5.00065C9.66634 5.36732 9.36634 5.66732 8.99967 5.66732Z" fill="#FEFFFF"/>
</svg>
