<svg width="40" height="40" viewBox="0 0 40 40" fill="none" xmlns="http://www.w3.org/2000/svg">
<path d="M21.7704 13.2413C21.3518 13.6599 21.3698 14.3439 21.8098 14.7399L25.2258 17.8141C25.4982 18.0593 25.3248 18.5114 24.9582 18.5114L12.4971 18.5134C11.9444 18.5134 11.4965 18.9617 11.4968 19.5143C11.4972 20.0666 11.945 20.5142 12.4973 20.5141L24.9573 20.5128C25.3239 20.5128 25.4974 20.9649 25.2249 21.2102L21.8071 24.2856C21.3673 24.6814 21.3493 25.3652 21.7677 25.7836C22.171 26.1869 22.8248 26.187 23.2282 25.7837L28.5117 20.5017C29.0586 19.9549 29.0586 19.0684 28.5119 18.5216L23.2316 13.2413C22.8281 12.8378 22.1739 12.8378 21.7704 13.2413Z" fill="#434343"/>
</svg>
