<svg width="40" height="40" viewBox="0 0 40 40" fill="none" xmlns="http://www.w3.org/2000/svg">
<path d="M18.2277 25.7782C18.6463 25.3596 18.6283 24.6756 18.1882 24.2796L14.7723 21.2054C14.4998 20.9602 14.6732 20.5081 15.0398 20.5081L27.501 20.5062C28.0536 20.5061 28.5015 20.0579 28.5012 19.5052C28.5009 18.9529 28.053 18.5053 27.5007 18.5054L15.0407 18.5067C14.6741 18.5068 14.5006 18.0546 14.7731 17.8094L18.1909 14.7339C18.6308 14.3381 18.6488 13.6543 18.2304 13.2359C17.8271 12.8326 17.1732 12.8326 16.7699 13.2358L11.4863 18.5179C10.9395 19.0646 10.9394 19.9511 11.4862 20.4979L16.7665 25.7782C17.17 26.1817 17.8242 26.1817 18.2277 25.7782Z" fill="#8A8B8B"/>
</svg>
