<svg width="16" height="16" viewBox="0 0 16 16" fill="none" xmlns="http://www.w3.org/2000/svg">
<g id="calendar_month">
<path id="Vector" d="M11.3333 1.33331C10.9667 1.33331 10.6667 1.63331 10.6667 1.99998V2.66665H5.33333V1.99998C5.33333 1.63331 5.03333 1.33331 4.66667 1.33331C4.3 1.33331 4 1.63331 4 1.99998V2.66665H3.33333C2.59333 2.66665 2.00667 3.26665 2.00667 3.99998L2 13.3333C2 14.0666 2.59333 14.6666 3.33333 14.6666H12.6667C13.4 14.6666 14 14.0666 14 13.3333V3.99998C14 3.26665 13.4 2.66665 12.6667 2.66665H12V1.99998C12 1.63331 11.7 1.33331 11.3333 1.33331ZM12.6667 13.3333H3.33333V6.66665H12.6667V13.3333ZM7.33333 8.66665C7.33333 8.29998 7.63333 7.99998 8 7.99998C8.36667 7.99998 8.66667 8.29998 8.66667 8.66665C8.66667 9.03331 8.36667 9.33331 8 9.33331C7.63333 9.33331 7.33333 9.03331 7.33333 8.66665ZM4.66667 8.66665C4.66667 8.29998 4.96667 7.99998 5.33333 7.99998C5.7 7.99998 6 8.29998 6 8.66665C6 9.03331 5.7 9.33331 5.33333 9.33331C4.96667 9.33331 4.66667 9.03331 4.66667 8.66665ZM10 8.66665C10 8.29998 10.3 7.99998 10.6667 7.99998C11.0333 7.99998 11.3333 8.29998 11.3333 8.66665C11.3333 9.03331 11.0333 9.33331 10.6667 9.33331C10.3 9.33331 10 9.03331 10 8.66665ZM7.33333 11.3333C7.33333 10.9666 7.63333 10.6666 8 10.6666C8.36667 10.6666 8.66667 10.9666 8.66667 11.3333C8.66667 11.7 8.36667 12 8 12C7.63333 12 7.33333 11.7 7.33333 11.3333ZM4.66667 11.3333C4.66667 10.9666 4.96667 10.6666 5.33333 10.6666C5.7 10.6666 6 10.9666 6 11.3333C6 11.7 5.7 12 5.33333 12C4.96667 12 4.66667 11.7 4.66667 11.3333ZM10 11.3333C10 10.9666 10.3 10.6666 10.6667 10.6666C11.0333 10.6666 11.3333 10.9666 11.3333 11.3333C11.3333 11.7 11.0333 12 10.6667 12C10.3 12 10 11.7 10 11.3333Z" fill="#171717"/>
</g>
</svg>
