<svg width="21" height="20" viewBox="0 0 21 20" fill="none" xmlns="http://www.w3.org/2000/svg">
<path d="M16.3333 3.33496H4.66667C3.75 3.33496 3 4.08496 3 5.00163V16.1999C3 17.0478 3.98886 17.5109 4.64018 16.9681L6.88746 15.0954C7.60632 14.4964 8.51245 14.1683 9.4482 14.1683H16.3333C17.25 14.1683 18 13.4183 18 12.5016V5.00163C18 4.08496 17.25 3.33496 16.3333 3.33496ZM16.3333 11.5016C16.3333 12.0539 15.8856 12.5016 15.3333 12.5016H8.82352C7.76266 12.5016 6.74524 12.9231 5.99509 13.6732L5.60557 14.0627C5.25909 14.4092 4.66667 14.1638 4.66667 13.6738V6.00163C4.66667 5.44934 5.11438 5.00163 5.66667 5.00163H15.3333C15.8856 5.00163 16.3333 5.44934 16.3333 6.00163V11.5016Z" fill="#434343"/>
</svg>
