<svg width="280" height="400" viewBox="0 0 280 400" fill="none" xmlns="http://www.w3.org/2000/svg">
<path d="M6.1875 249.637L188.101 233.7L196.887 37.2406L162.915 22.4512L114.201 64.9885L49.8722 132.594V158.786L38.5168 173.434L20.6548 202.926L11.5862 227.586L6.1875 249.637Z" fill="#BECBEB" stroke="#171717" stroke-width="0.785837" stroke-miterlimit="10"/>
<path d="M153.933 29.7833C157.862 22.3493 170.404 19.2295 178.804 19.4967C187.205 19.7639 195.158 23.1509 202.843 26.5614C207.495 28.6281 212.187 30.7499 216.226 33.8461C227.581 42.5532 232.147 57.9949 231.039 72.2578C229.931 86.5207 223.966 99.9271 217.554 112.721C216.289 115.251 214.992 117.781 214.01 120.43C212.289 125.058 211.519 129.985 210.764 134.865C210.34 137.624 208.36 146.409 207.927 149.168" fill="#BECBEB"/>
<path d="M155.629 30.7733C157.845 26.6869 162.56 24.3923 166.993 23.0642C172.124 21.524 177.601 20.9896 182.922 21.8462C189.955 22.9699 196.532 25.8775 202.992 28.7615C209.035 31.4648 214.921 34.4589 219.392 39.4646C227.038 48.0224 229.828 60.1557 229.137 71.3853C228.272 85.499 222.331 98.7718 216.1 111.251C214.434 114.591 212.72 117.923 211.565 121.482C210.41 125.042 209.766 128.673 209.184 132.327C208.446 136.956 207.416 141.521 206.504 146.118C206.339 146.959 206.174 147.8 206.041 148.649C205.876 149.694 206.308 150.763 207.416 151.069C208.351 151.329 209.664 150.755 209.836 149.694C210.544 145.23 211.683 140.845 212.493 136.405C213.09 133.144 213.498 129.867 214.245 126.63C215.102 122.913 216.43 119.439 218.111 116.029C224.697 102.646 231.258 89.0745 232.854 74.0415C234.142 61.9003 231.596 48.7847 224.052 38.9617C219.832 33.4766 214.276 29.7203 208.06 26.7812C201.349 23.6064 194.387 20.4002 187.134 18.6871C181.098 17.2647 175 17.2019 168.941 18.5142C163.739 19.638 158.199 21.7676 154.49 25.7282C153.626 26.6555 152.855 27.6849 152.25 28.8008C151.048 31.0247 154.435 33.0129 155.645 30.7811L155.629 30.7733Z" fill="#171717"/>
<path d="M158.678 65.5543C159.535 53.5074 156.722 41.5391 153.932 29.783C152.14 22.2311 150.317 14.6006 146.789 7.68527C145.885 5.90928 144.793 4.10971 143.08 3.09598C139.724 1.10781 135.15 2.95453 132.848 6.10574C130.545 9.25694 129.956 13.304 129.477 17.1782C127.355 34.3409 126.09 51.6214 126.05 68.9098C126.05 71.3066 126.058 73.727 125.524 76.0688C125.084 78.002 124.282 79.833 123.465 81.6404C117.171 95.6362 109.925 109.475 107.332 124.602C107.183 125.459 107.104 126.488 107.756 127.07C108.11 127.384 108.597 127.486 109.069 127.557C114.577 128.358 120.196 126.229 124.683 122.928C129.17 119.628 132.707 115.227 136.18 110.874C143.362 101.868 150.545 92.7521 155.881 82.5441" fill="#BECBEB"/>
<path d="M160.643 65.5545C161.311 55.7158 159.622 45.9086 157.476 36.3371C155.331 26.7656 153.516 17.8621 149.72 9.28074C148.078 5.57159 145.933 1.21805 141.5 0.455788C137.587 -0.220031 133.65 1.80743 131.324 4.90363C128.738 8.33773 128.086 12.707 127.56 16.8562C126.931 21.8306 126.397 26.8128 125.933 31.8028C125.014 41.6965 124.408 51.6216 124.188 61.5546C124.133 64.0064 124.102 66.4582 124.094 68.91C124.086 71.3619 124.126 73.6094 123.56 75.8883C123.033 78.0022 122.09 79.9746 121.194 81.9471C120.236 84.061 119.253 86.1749 118.279 88.2888C114.42 96.6422 110.57 105.059 107.89 113.883C107.222 116.092 106.625 118.323 106.13 120.579C105.706 122.512 104.849 124.995 105.462 126.96C106.224 129.388 108.896 129.632 111.065 129.679C113.234 129.726 115.411 129.388 117.47 128.767C126.279 126.111 132.275 118.905 137.799 111.974C143.591 104.713 149.367 97.4045 154.215 89.4675C155.402 87.5265 156.526 85.5462 157.587 83.5266C158.757 81.287 155.37 79.2988 154.192 81.5463C150.137 89.2711 145.06 96.3908 139.717 103.259C137.092 106.63 134.467 110.001 131.725 113.271C128.982 116.54 126.2 119.573 122.743 121.899C119.489 124.092 115.701 125.687 111.733 125.75C110.9 125.765 109.996 125.522 109.187 125.577C108.755 125.6 109.226 125.53 109.21 125.671C109.25 125.239 109.289 124.846 109.368 124.422C109.745 122.323 110.216 120.241 110.766 118.174C112.959 109.884 116.33 101.97 119.882 94.1826C121.689 90.2219 123.544 86.2849 125.32 82.3164C126.2 80.3518 127.08 78.3479 127.513 76.2262C127.976 73.9473 128.015 71.6133 128.023 69.2951C128.055 59.8729 128.416 50.4664 129.092 41.0678C129.43 36.4314 129.839 31.8028 130.318 27.1821C130.766 22.8364 131.127 18.4357 131.898 14.1372C132.51 10.7267 133.626 7.00181 136.817 5.16295C138.011 4.47142 139.473 4.0392 140.84 4.32211C142.467 4.65216 143.52 5.94093 144.337 7.30043C146.467 10.8603 147.874 14.9073 149.068 18.8601C150.341 23.0643 151.339 27.3471 152.353 31.6142C154.467 40.5256 156.526 49.5313 156.832 58.7256C156.911 61.0045 156.871 63.2834 156.714 65.5624C156.644 66.6233 157.665 67.527 158.679 67.527C159.803 67.527 160.573 66.6233 160.643 65.5624V65.5545Z" fill="#171717"/>
<path d="M152.533 67.0871C153.351 61.822 153.374 56.5019 153.052 51.1817C152.863 48.1484 152.313 45.1622 151.763 42.1761C150.718 36.5259 149.673 30.8679 148.243 25.3041C146.938 20.2276 145.036 14.8368 140.667 11.937C139.583 11.2141 138.317 10.664 137.021 10.7661C135.583 10.8762 134.31 11.7877 133.398 12.8958C131.19 15.5833 130.836 19.2925 130.569 22.7659C130.027 29.8463 129.485 36.9267 128.942 44.0071C128.243 53.1228 127.544 62.2542 127.567 71.4013C127.567 74.026 127.63 76.6979 126.97 79.2361C126.066 82.7095 123.889 85.68 121.933 88.6897C116.911 96.3988 113.076 104.886 110.609 113.75C109.517 117.656 108.691 121.718 109.163 125.75C112.22 126.811 115.662 125.349 118.011 123.125C120.361 120.901 121.941 118.001 123.834 115.377C127.772 109.915 133.099 105.64 137.594 100.627C146.647 90.5286 152.203 77.3501 153.099 63.818" fill="#171717"/>
<path d="M154.427 67.6053C155.402 61.1536 155.551 54.4425 154.694 47.9672C153.838 41.4919 152.518 35.0324 151.072 28.6828C149.854 23.3234 148.533 17.6811 145.029 13.304C143.363 11.2215 140.95 9.24905 138.239 8.86399C135.096 8.42392 132.424 10.4514 130.891 13.0525C129.445 15.5122 128.997 18.3726 128.73 21.1702C128.432 24.3371 128.235 27.5119 127.992 30.6788C127.481 37.3034 126.954 43.928 126.483 50.5605C126.011 57.193 125.626 63.6761 125.595 70.2457C125.579 73.4048 125.791 76.6424 124.777 79.6836C123.889 82.3397 122.216 84.6815 120.683 86.9998C117.312 92.1156 114.467 97.53 112.141 103.196C109.815 108.862 107.756 114.881 107.159 120.987C107.002 122.575 107.01 124.162 107.175 125.749C107.277 126.653 107.725 127.36 108.621 127.643C114.318 129.466 119.292 125.254 122.389 120.94C123.968 118.74 125.351 116.421 127.096 114.339C128.927 112.154 130.946 110.135 132.974 108.131C136.919 104.241 140.738 100.312 143.913 95.7461C147.087 91.1804 149.437 86.5047 151.307 81.4596C153.406 75.7937 154.639 69.8371 155.056 63.8176C155.127 62.7567 154.097 61.853 153.091 61.853C151.967 61.853 151.197 62.7567 151.127 63.8176C150.443 73.7663 147.166 83.4714 141.791 91.8719C139.056 96.139 135.748 99.8718 132.156 103.432C128.314 107.243 124.424 110.984 121.359 115.486C118.837 119.188 115.167 125.616 109.674 123.856L111.12 125.749C110.483 119.895 112.377 114.001 114.302 108.54C116.228 103.078 118.656 97.9307 121.571 92.9957C124.424 88.1707 128.392 83.6521 129.225 77.9312C129.665 74.8743 129.508 71.7781 129.548 68.7055C129.587 65.6329 129.697 62.5288 129.862 59.4405C130.506 46.8985 131.544 34.3408 132.612 21.8224C132.817 19.4649 133.115 16.9738 134.373 14.9149C134.907 14.0427 135.653 13.1782 136.644 12.8403C137.807 12.4395 138.993 13.1468 139.913 13.799C143.645 16.4709 145.162 21.3116 146.27 25.5394C148.03 32.2819 149.319 39.1894 150.474 46.0655C151.63 52.9416 151.653 59.8648 150.647 66.5759C150.49 67.621 150.914 68.6898 152.022 68.9962C152.95 69.2477 154.278 68.6819 154.443 67.621L154.427 67.6053Z" fill="#171717"/>
<path d="M173.295 60.2897L173.885 54.7888C174.183 52.0305 174.545 49.1072 176.282 46.9383C178.034 44.7458 180.942 43.7321 183.755 43.6378C186.568 43.5435 189.327 44.2586 192.046 44.9659C193.413 45.3195 194.78 45.681 196.148 46.0346C196.886 46.2232 197.633 46.4197 198.277 46.8204C199.095 47.3234 199.7 48.1092 200.281 48.8715C201.664 50.6946 203.118 52.7692 202.882 55.0403C202.67 57.0678 201.153 58.7023 199.566 59.9754C195.291 63.4095 189.885 65.4055 184.399 65.5705C181.743 65.6491 178.977 65.2798 176.737 63.8495C174.498 62.4193 172.918 59.7396 173.366 57.1228" fill="#BECBEB"/>
<path d="M175.259 60.2893C175.542 57.6724 175.699 55.0085 176.171 52.4231C176.564 50.2384 177.302 48.1088 179.283 46.8751C183.738 44.1168 189.538 46.3485 194.135 47.543C195.172 47.8102 196.508 47.9438 197.404 48.5803C198.363 49.2561 199.117 50.5135 199.746 51.4879C200.319 52.3681 200.877 53.3268 200.94 54.4034C201.003 55.48 200.437 56.3837 199.762 57.1224C196.54 60.6508 191.479 62.7647 186.827 63.4248C184.241 63.7863 181.334 63.8413 178.89 62.7961C176.98 61.9788 174.937 59.9357 175.267 57.6567C175.416 56.6116 175.008 55.5428 173.892 55.2364C172.972 54.9849 171.629 55.5507 171.471 56.6116C171.023 59.7078 172.194 62.7254 174.623 64.7293C177.169 66.8353 180.485 67.5583 183.73 67.5583C190.017 67.5583 196.217 65.2479 201.066 61.2794C203.573 59.2284 205.325 56.4308 204.704 53.091C204.414 51.5351 203.565 50.0891 202.661 48.8161C201.758 47.543 200.767 46.1128 199.4 45.2169C198.033 44.3211 196.335 44.0618 194.803 43.661C193.105 43.2209 191.424 42.7494 189.711 42.3722C186.52 41.665 183.125 41.2956 179.951 42.3015C176.485 43.4017 173.978 45.8928 172.87 49.3504C172.344 51.0007 172.147 52.7531 171.959 54.4662C171.746 56.4073 171.542 58.3483 171.33 60.2893C171.22 61.3423 172.312 62.2539 173.295 62.2539C174.45 62.2539 175.141 61.3502 175.259 60.2893Z" fill="#171717"/>
<path d="M174.435 54.6391C175.676 52.761 175.637 50.2384 176.973 48.431C178.725 46.0421 182.112 45.7356 185.075 45.657C189.397 45.5391 193.931 45.492 197.766 47.488C199.189 48.2267 200.579 49.4212 200.744 51.0164C200.917 52.6902 199.676 54.199 198.269 55.1263C195.857 56.7059 192.894 57.1538 190.034 57.5546C184.768 58.2854 179.362 58.9926 174.167 57.8532C173.9 57.7982 173.625 57.7196 173.452 57.5153C173.209 57.2167 173.295 56.7687 173.397 56.3915C173.947 54.3405 174.513 52.2502 175.723 50.5056C176.934 48.761 178.93 47.4173 181.044 47.5666" fill="#171717"/>
<path d="M176.132 55.6296C177.122 54.0344 177.342 52.2191 178.042 50.5138C178.599 49.1465 179.7 48.4392 181.083 48.0699C182.654 47.6455 184.297 47.6298 185.916 47.5984C187.92 47.5512 189.939 47.5277 191.927 47.7791C193.578 47.9834 200.257 49.3587 198.473 52.2348C197.632 53.5865 195.888 54.278 194.426 54.7102C192.525 55.2681 190.544 55.5118 188.58 55.7789C186.23 56.1011 183.872 56.3762 181.507 56.4548C180.273 56.4941 179.04 56.4862 177.814 56.3998C177.287 56.3605 176.761 56.3133 176.242 56.2426C175.967 56.2033 175.684 56.1561 175.409 56.1011L175.048 56.0304C174.568 55.8654 174.56 55.944 175.016 56.2662L175.283 57.2563C175.189 56.4548 175.684 55.4096 175.928 54.6395C176.234 53.6808 176.603 52.7613 177.138 51.9048C177.994 50.5296 179.362 49.453 181.036 49.5237C183.566 49.6258 183.558 45.6967 181.036 45.5945C177.979 45.4766 175.307 47.4098 173.743 49.9245C172.949 51.1975 172.423 52.6435 171.991 54.0815C171.558 55.5196 170.835 57.3428 171.904 58.6944C172.973 60.046 175.181 60.0539 176.713 60.2268C178.246 60.3997 179.912 60.439 181.507 60.3839C184.815 60.2739 188.1 59.8024 191.369 59.3231C194.222 58.9066 197.24 58.3015 199.613 56.5569C201.986 54.8124 203.668 51.6376 201.994 48.7221C200.556 46.2232 197.46 44.9501 194.788 44.3214C191.77 43.6142 188.65 43.5985 185.57 43.6771C182.725 43.7478 179.519 43.8814 177.114 45.5945C175.715 46.5925 174.827 47.9206 174.23 49.5158C173.712 50.891 173.515 52.3763 172.729 53.6415C171.393 55.7947 174.788 57.7671 176.124 55.6218L176.132 55.6296Z" fill="#171717"/>
<path d="M170.985 57.4054C170.505 60.313 170.175 63.2913 170.836 66.1989C171.448 68.9101 173.052 71.1811 175.275 72.8157C179.346 75.8097 185.263 76.4227 190.144 75.7783C193.185 75.3775 196.124 74.3009 198.277 72.0299C200.014 70.1989 197.24 67.4091 195.495 69.248C193.648 71.1969 190.992 71.8727 188.383 72.0141C185.774 72.1556 183.173 71.9277 180.698 71.1497C178.466 70.4425 176.423 69.1694 175.291 67.0634C173.908 64.4937 174.317 61.201 174.773 58.4427C174.945 57.3976 174.498 56.3288 173.397 56.0224C172.462 55.763 171.15 56.3445 170.977 57.3976L170.985 57.4054Z" fill="#171717"/>
<path d="M172.611 59.7393C172.643 63.6449 171.896 68.3442 171.928 72.2498C171.959 75.7625 172.14 79.6681 174.615 82.1592" fill="#BECBEB"/>
<path d="M170.646 59.7396C170.662 64.0224 169.916 68.2659 169.971 72.5487C170.018 76.4622 170.403 80.5878 173.232 83.5583C174.976 85.3893 177.758 82.6153 176.014 80.7764C173.782 78.4347 173.868 74.6391 173.9 71.6136C173.947 67.6451 174.591 63.7081 174.584 59.7396C174.576 57.2092 170.646 57.2092 170.654 59.7396H170.646Z" fill="#171717"/>
<path d="M41.5887 164.963C36.5515 156.46 33.9426 146.402 35.0034 136.571C36.6458 121.318 46.7988 108.131 58.885 98.6855C70.9633 89.2397 85.0612 82.7959 98.3812 75.189C101.281 73.5308 104.251 71.7863 107.56 71.3305C110.868 70.8747 114.656 72.077 116.188 75.0475C117.886 78.3323 116.157 82.5758 113.218 84.8312C110.279 87.0865 106.467 87.7938 102.805 88.281C99.1434 88.7682 95.3479 89.1218 92.0631 90.8271" fill="#BECBEB"/>
<path d="M43.286 163.973C37.5651 154.244 35.1368 142.583 37.8873 131.51C40.3784 121.499 46.4765 112.768 53.8162 105.672C62.1225 97.6405 72.1733 91.731 82.2556 86.2223C87.4893 83.3619 92.778 80.5957 97.9802 77.6645C102.035 75.3856 107.324 71.5665 112.157 73.869C116.534 75.9514 114.931 81.358 111.559 83.5976C106.789 86.7645 100.581 86.1516 95.2376 87.5425C93.7917 87.9197 92.3929 88.4541 91.0648 89.1299C88.8095 90.2694 90.7977 93.6642 93.0452 92.5247C98.4989 89.7664 105.013 90.7566 110.648 88.4698C113.375 87.3618 115.795 85.6644 117.32 83.0947C118.703 80.7607 119.324 77.751 118.357 75.1499C116.251 69.4447 109.351 68.3367 104.204 70.1362C101.186 71.1893 98.4596 72.8945 95.6934 74.4505C92.9273 76.0064 90.1061 77.531 87.2928 79.0398C76.1339 85.0436 64.8179 91.0395 55.0814 99.2436C46.5079 106.473 39.176 115.589 35.3726 126.237C31.1919 137.938 32.41 150.7 37.6987 161.843C38.3666 163.25 39.0974 164.617 39.8911 165.953C41.1721 168.13 44.5669 166.158 43.286 163.973Z" fill="#171717"/>
<path d="M107.561 71.3307C113.376 66.4035 120.755 58.0658 125.344 51.9834L107.561 71.3307Z" fill="#BECBEB"/>
<path d="M108.943 72.7213C115.717 66.9533 121.681 60.0536 127.041 52.9732C127.685 52.1245 127.174 50.7729 126.334 50.2857C125.328 49.6963 124.29 50.1442 123.646 50.9929C118.499 57.7983 112.676 64.4071 106.169 69.9473C105.36 70.6388 105.462 72.014 106.169 72.7292C106.971 73.5307 108.134 73.4207 108.951 72.7292L108.943 72.7213Z" fill="#171717"/>
<path d="M92.0628 90.8271C85.0295 106.803 75.5209 123.785 64.8885 137.624C55.8435 149.396 45.5176 160.342 38.5237 173.434C35.5768 178.943 33.2429 184.798 29.8245 190.023C26.9405 194.44 23.3099 198.361 20.6616 202.927C18.0605 207.406 16.4574 212.388 14.8779 217.323C12.4811 224.805 10.0843 232.286 7.69531 239.767" fill="#BECBEB"/>
<path d="M90.3659 89.8292C85.8552 100.069 80.6844 110.025 74.8378 119.573C71.9538 124.28 68.9047 128.885 65.6514 133.341C62.4766 137.687 59.0582 141.859 55.6634 146.032C48.7637 154.504 41.7855 163.053 36.654 172.759C34.0136 177.749 31.8525 182.99 28.8978 187.815C25.943 192.64 22.1946 196.601 19.3184 201.332C15.9393 206.903 14.1083 213.261 12.1359 219.422C10.022 226.03 7.90808 232.639 5.78632 239.248C5.0162 241.661 8.80393 242.698 9.57405 240.293C11.4522 234.431 13.3304 228.577 15.2006 222.714C16.9452 217.26 18.4697 211.634 20.9923 206.471C23.5148 201.308 27.1218 197.285 30.3201 192.758C33.5185 188.232 35.9153 183.006 38.4064 177.953C43.2472 168.122 49.7932 159.454 56.6771 150.975C63.5768 142.48 70.3743 133.985 76.2523 124.728C82.9241 114.229 88.7393 103.188 93.7608 91.8095C94.1851 90.8429 94.0437 89.7034 93.0535 89.1219C92.2205 88.6347 90.7981 88.8547 90.3659 89.8292Z" fill="#171717"/>
<path d="M7.68068 239.767C-1.5529 262.642 1.14252 288.261 9.95175 311.301C13.2916 320.032 17.6687 328.511 24.0497 335.348C35.0435 347.128 50.8939 352.99 66.4613 357.147C80.9521 361.021 95.7416 363.779 110.657 365.375C123.505 366.75 136.487 367.276 149.343 366.019C160.502 364.927 171.488 362.514 182.443 360.102C193.012 357.776 203.574 355.45 214.144 353.124C225.31 350.664 236.579 348.173 246.937 343.332C257.294 338.491 266.81 331.034 272.013 320.857C275.596 313.847 276.963 305.918 277.631 298.076C278.716 285.298 277.922 271.939 272.115 260.505C262.457 241.495 246.968 231.46 234.143 214.431" fill="#BECBEB"/>
<path d="M5.78618 239.24C-0.304061 254.47 -1.23135 271.153 1.35406 287.239C2.65854 295.317 4.84317 303.246 7.71148 310.908C10.5798 318.57 13.8331 325.446 18.5403 331.757C27.6482 343.976 41.141 351.143 55.3411 355.89C71.4428 361.273 88.3698 364.573 105.195 366.703C123.009 368.958 140.927 369.524 158.718 366.789C167.566 365.43 176.297 363.465 185.036 361.54C193.782 359.615 202.528 357.689 211.275 355.764C227.054 352.29 243.565 349.045 257.168 339.796C263.085 335.772 268.374 330.727 272.146 324.605C276.421 317.674 278.291 309.682 279.226 301.683C280.161 293.683 280.342 285.549 279.25 277.557C278.157 269.565 275.564 262.186 271.478 255.295C263.965 242.611 252.838 232.914 243.046 222.093C240.524 219.303 238.087 216.435 235.824 213.441C235.18 212.592 234.135 212.168 233.137 212.734C232.296 213.213 231.793 214.58 232.429 215.421C241.129 226.926 252.193 236.285 261.238 247.476C265.788 253.102 269.953 259.405 272.468 266.226C275.148 273.518 276.083 281.282 276.067 289.023C276.051 296.763 275.36 305.125 273.096 312.755C271.03 319.718 267.258 325.824 262.032 330.861C250.991 341.493 235.95 346.098 221.373 349.493C204.509 353.422 187.558 357.171 170.592 360.652C162.168 362.381 153.689 363.827 145.099 364.416C136.447 365.005 127.756 364.84 119.104 364.196C101.855 362.915 84.7078 359.937 67.9852 355.528C54.2409 351.905 40.0487 347.151 29.1963 337.611C17.7466 327.544 11.6642 312.7 7.75863 298.288C3.62512 283.043 2.3835 266.776 6.06122 251.31C6.95707 247.554 8.13583 243.876 9.56605 240.293C9.96683 239.303 9.13384 238.148 8.19084 237.873C7.07495 237.55 6.16338 238.266 5.77046 239.248L5.78618 239.24Z" fill="#171717"/>
<path d="M58.6498 314.201C53.3925 317.942 48.0724 321.596 42.9016 325.454C38.1158 329.022 33.7466 332.982 29.8488 337.509C25.9511 342.035 22.7291 346.577 19.6251 351.434C16.5289 356.283 13.5349 361.257 10.8709 366.349C9.47994 369.005 8.2226 371.779 7.45248 374.687C6.76094 377.312 6.0694 380.691 7.72752 383.103C8.61551 384.384 9.99073 385.154 11.3267 385.893C12.6626 386.632 13.9513 387.252 15.3108 387.842C18.132 389.076 21.0239 390.097 23.9865 390.922C36.3084 394.341 49.3533 394.796 62.021 395.881C74.6887 396.965 88.3308 398.128 101.486 399.252C103.105 399.394 104.723 399.527 106.342 399.669C107.403 399.763 108.307 398.702 108.307 397.704C108.307 396.565 107.403 395.834 106.342 395.739C93.6431 394.655 80.9439 393.571 68.2448 392.486C62.0367 391.952 55.8286 391.433 49.6205 390.891C43.4752 390.356 37.33 389.783 31.2712 388.596C25.6367 387.496 20.0337 385.901 14.8865 383.323C13.7863 382.773 12.5683 382.215 11.5703 381.476C10.5722 380.738 10.5722 379.693 10.6823 378.553C10.9337 375.96 11.8689 373.359 12.9455 371.001C15.2716 365.917 18.2813 361.068 21.2046 356.306C24.1279 351.544 27.1298 347.033 30.5718 342.758C34.4145 337.98 38.7131 333.595 43.5695 329.847C49.1018 325.572 54.9327 321.651 60.6301 317.604C61.4945 316.991 61.9031 315.891 61.3373 314.916C60.8344 314.06 59.522 313.596 58.6498 314.209V314.201Z" fill="#171717"/>
<path d="M131.779 324.307C130.216 337.077 129.524 349.957 129.744 362.821C129.854 369.257 130.192 375.685 130.75 382.09C131.017 385.162 131.276 388.251 131.724 391.307C131.929 392.691 132.361 394.019 133.296 395.087C134.231 396.156 135.575 396.73 136.895 397.138C142.789 398.977 149.091 397.963 154.985 396.675C157.979 396.015 160.95 395.268 163.959 394.718C166.969 394.168 170.089 393.83 173.185 393.618C179.362 393.178 185.554 393.201 191.747 393.013C197.939 392.824 204.359 392.266 210.614 391.268C224.422 389.052 237.891 385.091 251.714 382.954C252.767 382.789 253.34 381.477 253.089 380.534C252.782 379.41 251.722 379.001 250.669 379.158C238.692 381.005 226.983 384.219 215.086 386.49C209.184 387.622 203.235 388.478 197.232 388.832C191.11 389.194 184.973 389.17 178.851 389.39C172.729 389.61 166.71 390.105 160.753 391.347C155.024 392.549 149.288 394.349 143.37 394.199C142.129 394.168 140.895 394.05 139.677 393.791C138.616 393.563 137.068 393.343 136.274 392.51C135.622 391.826 135.567 390.655 135.465 389.759C135.268 388.101 135.096 386.435 134.931 384.769C134.333 378.624 133.94 372.455 133.76 366.279C133.343 352.259 134.003 338.208 135.709 324.291C135.834 323.238 134.71 322.327 133.744 322.327C132.573 322.327 131.913 323.23 131.779 324.291V324.307Z" fill="#171717"/>
<path d="M181.649 260.261C168.652 253.715 154.719 246.226 148.723 232.961C146.499 228.034 145.548 222.643 144.841 217.284C139.324 175.8 147.065 132.775 165.948 95.4321C169.516 88.3753 174.836 80.6348 182.742 80.3676C187.252 80.2183 191.551 82.7409 194.474 86.1828C197.398 89.6248 199.15 93.8997 200.58 98.1825C209.397 124.477 208.054 152.908 207.755 180.64C207.723 183.886 207.723 187.257 209.107 190.196C210.199 192.522 212.069 194.377 213.916 196.153C220.47 202.447 227.307 208.435 234.143 214.424" fill="#BECBEB"/>
<path d="M182.639 258.564C173.602 254.014 164.274 249.236 157.186 241.849C153.595 238.109 150.797 233.7 149.194 228.749C147.324 222.989 146.648 216.86 146.051 210.856C144.856 198.919 144.746 186.872 145.674 174.912C146.601 162.951 148.558 151.179 151.505 139.596C154.459 127.958 158.381 116.548 163.284 105.577C165.524 100.556 167.803 95.4164 170.86 90.8272C173.304 87.1573 176.604 83.4953 181.091 82.5287C186.034 81.4678 190.851 84.5405 193.712 88.3596C197.232 93.0589 198.938 99.0313 200.486 104.611C203.826 116.665 205.217 129.137 205.743 141.6C206.27 154.063 205.947 166.77 205.798 179.352C205.759 182.432 205.664 185.591 206.45 188.593C207.236 191.595 208.981 193.968 211.087 196.114C215.613 200.75 220.548 205.033 225.397 209.331C227.841 211.492 230.293 213.646 232.752 215.799C233.554 216.498 234.748 216.585 235.534 215.799C236.249 215.084 236.336 213.724 235.534 213.017C230.434 208.546 225.326 204.082 220.344 199.485C217.955 197.284 215.503 195.108 213.295 192.727C211.291 190.566 210.104 188.129 209.837 185.175C209.57 182.22 209.743 178.967 209.782 175.878C209.829 172.641 209.877 169.403 209.916 166.165C209.994 159.682 210.018 153.199 209.861 146.716C209.539 133.891 208.47 121.003 205.547 108.477C204.124 102.395 202.419 96.1708 199.645 90.5521C197.067 85.3499 192.902 80.682 187.189 78.9846C181.971 77.4286 176.761 79.1575 172.754 82.6152C168.746 86.0728 166.16 90.6385 163.874 95.2043C158.318 106.3 153.721 117.891 150.161 129.773C146.609 141.616 144.118 153.757 142.64 166.024C141.179 178.228 140.778 190.558 141.509 202.825C141.878 209.08 142.499 215.351 143.513 221.535C144.526 227.72 146.2 233.331 149.509 238.431C155.316 247.374 164.526 253.378 173.744 258.344C176.038 259.578 178.357 260.764 180.683 261.935C183.009 263.106 184.926 259.68 182.663 258.54L182.639 258.564Z" fill="#171717"/>
</svg>
