<svg width="20" height="20" viewBox="0 0 20 20" fill="none" xmlns="http://www.w3.org/2000/svg">
<path d="M14.9997 11.667C15.458 11.667 15.833 12.042 15.833 12.5003V15.0003C15.833 15.4587 15.458 15.8337 14.9997 15.8337H12.4997C12.0413 15.8337 11.6663 15.4587 11.6663 15.0003C11.6663 14.542 12.0413 14.167 12.4997 14.167H14.1663V12.5003C14.1663 12.042 14.5413 11.667 14.9997 11.667ZM14.9997 8.33366C14.5413 8.33366 14.1663 7.95866 14.1663 7.50033V5.83366H12.4997C12.0413 5.83366 11.6663 5.45866 11.6663 5.00033C11.6663 4.54199 12.0413 4.16699 12.4997 4.16699H14.9997C15.458 4.16699 15.833 4.54199 15.833 5.00033V7.50033C15.833 7.95866 15.458 8.33366 14.9997 8.33366ZM5.83301 14.167H7.49967C7.95801 14.167 8.33301 14.542 8.33301 15.0003C8.33301 15.4587 7.95801 15.8337 7.49967 15.8337H4.99967C4.54134 15.8337 4.16634 15.4587 4.16634 15.0003V12.5003C4.16634 12.042 4.54134 11.667 4.99967 11.667C5.45801 11.667 5.83301 12.042 5.83301 12.5003V14.167ZM8.33301 5.00033C8.33301 5.45866 7.95801 5.83366 7.49967 5.83366H5.83301V7.50033C5.83301 7.95866 5.45801 8.33366 4.99967 8.33366C4.54134 8.33366 4.16634 7.95866 4.16634 7.50033V5.00033C4.16634 4.54199 4.54134 4.16699 4.99967 4.16699H7.49967C7.95801 4.16699 8.33301 4.54199 8.33301 5.00033Z" fill="#FEFFFF"/>
</svg>
