<svg width="16" height="16" viewBox="0 0 16 16" fill="none" xmlns="http://www.w3.org/2000/svg">
<g id="history">
<g id="Vector">
<path d="M7.33333 5.33333V8.66667L10.1667 10.3467L10.68 9.49333L8.33333 8.1V5.33333H7.33333Z" fill="#171717"/>
<path fill-rule="evenodd" clip-rule="evenodd" d="M8 12.6667C10.5773 12.6667 12.6667 10.5773 12.6667 8C12.6667 5.42267 10.5773 3.33333 8 3.33333C5.42267 3.33333 3.33333 5.42267 3.33333 8C3.33333 10.5773 5.42267 12.6667 8 12.6667ZM8 14C11.3137 14 14 11.3137 14 8C14 4.68629 11.3137 2 8 2C4.68629 2 2 4.68629 2 8C2 11.3137 4.68629 14 8 14Z" fill="#171717"/>
</g>
</g>
</svg>
