<svg width="82" height="30" viewBox="0 0 82 30" fill="none" xmlns="http://www.w3.org/2000/svg">
<rect width="82" height="30" rx="15" fill="white"/>
<path d="M19.9941 7V22H17.1816V7H19.9941ZM19.5938 16.3457H18.8223C18.8288 15.61 18.9264 14.9329 19.1152 14.3145C19.304 13.6895 19.5742 13.1491 19.9258 12.6934C20.2773 12.2311 20.6973 11.873 21.1855 11.6191C21.6803 11.3652 22.2272 11.2383 22.8262 11.2383C23.347 11.2383 23.819 11.3132 24.2422 11.4629C24.6719 11.6061 25.0397 11.8405 25.3457 12.166C25.6582 12.485 25.8991 12.9049 26.0684 13.4258C26.2376 13.9466 26.3223 14.5781 26.3223 15.3203V22H23.4902V15.3008C23.4902 14.832 23.4219 14.4642 23.2852 14.1973C23.1549 13.9238 22.9629 13.7318 22.709 13.6211C22.4616 13.5039 22.1556 13.4453 21.791 13.4453C21.3874 13.4453 21.0423 13.5202 20.7559 13.6699C20.4759 13.8197 20.2513 14.028 20.082 14.2949C19.9128 14.5553 19.7891 14.8613 19.7109 15.2129C19.6328 15.5645 19.5938 15.9421 19.5938 16.3457ZM31.4297 11.4336V22H28.6074V11.4336H31.4297ZM28.4316 8.67969C28.4316 8.26953 28.5749 7.93099 28.8613 7.66406C29.1478 7.39714 29.5319 7.26367 30.0137 7.26367C30.4889 7.26367 30.8698 7.39714 31.1562 7.66406C31.4492 7.93099 31.5957 8.26953 31.5957 8.67969C31.5957 9.08984 31.4492 9.42839 31.1562 9.69531C30.8698 9.96224 30.4889 10.0957 30.0137 10.0957C29.5319 10.0957 29.1478 9.96224 28.8613 9.69531C28.5749 9.42839 28.4316 9.08984 28.4316 8.67969ZM36.5078 13.6895V22H33.6953V11.4336H36.332L36.5078 13.6895ZM36.0977 16.3457H35.3359C35.3359 15.5645 35.4368 14.8613 35.6387 14.2363C35.8405 13.6048 36.1237 13.0677 36.4883 12.625C36.8529 12.1758 37.2858 11.834 37.7871 11.5996C38.2949 11.3587 38.8613 11.2383 39.4863 11.2383C39.9811 11.2383 40.4336 11.3099 40.8438 11.4531C41.2539 11.5964 41.6055 11.8242 41.8984 12.1367C42.1979 12.4492 42.4258 12.8626 42.582 13.377C42.7448 13.8913 42.8262 14.5195 42.8262 15.2617V22H39.9941V15.252C39.9941 14.7832 39.929 14.4186 39.7988 14.1582C39.6686 13.8978 39.4766 13.7155 39.2227 13.6113C38.9753 13.5007 38.6693 13.4453 38.3047 13.4453C37.9271 13.4453 37.5983 13.5202 37.3184 13.6699C37.0449 13.8197 36.8171 14.028 36.6348 14.2949C36.459 14.5553 36.3255 14.8613 36.2344 15.2129C36.1432 15.5645 36.0977 15.9421 36.0977 16.3457ZM47.7773 6.99023V22H44.9648V6.99023H47.7773ZM54.4375 11.4336L49.8477 16.668L47.3867 19.1582L46.3613 17.127L48.3145 14.6465L51.0586 11.4336H54.4375ZM51.5176 22L48.3926 17.1172L50.3359 15.418L54.7598 22H51.5176ZM55.1992 16.8242V16.6191C55.1992 15.8444 55.3099 15.1315 55.5312 14.4805C55.7526 13.8229 56.0749 13.2533 56.498 12.7715C56.9212 12.2897 57.4421 11.9154 58.0605 11.6484C58.679 11.375 59.3887 11.2383 60.1895 11.2383C60.9902 11.2383 61.7031 11.375 62.3281 11.6484C62.9531 11.9154 63.4772 12.2897 63.9004 12.7715C64.3301 13.2533 64.6556 13.8229 64.877 14.4805C65.0983 15.1315 65.209 15.8444 65.209 16.6191V16.8242C65.209 17.5924 65.0983 18.3053 64.877 18.9629C64.6556 19.6139 64.3301 20.1836 63.9004 20.6719C63.4772 21.1536 62.9564 21.528 62.3379 21.7949C61.7194 22.0618 61.0098 22.1953 60.209 22.1953C59.4082 22.1953 58.6953 22.0618 58.0703 21.7949C57.4518 21.528 56.9277 21.1536 56.498 20.6719C56.0749 20.1836 55.7526 19.6139 55.5312 18.9629C55.3099 18.3053 55.1992 17.5924 55.1992 16.8242ZM58.0117 16.6191V16.8242C58.0117 17.2669 58.0508 17.6803 58.1289 18.0645C58.207 18.4486 58.3307 18.7871 58.5 19.0801C58.6758 19.3665 58.9036 19.5911 59.1836 19.7539C59.4635 19.9167 59.8053 19.998 60.209 19.998C60.5996 19.998 60.9349 19.9167 61.2148 19.7539C61.4948 19.5911 61.7194 19.3665 61.8887 19.0801C62.0579 18.7871 62.1816 18.4486 62.2598 18.0645C62.3444 17.6803 62.3867 17.2669 62.3867 16.8242V16.6191C62.3867 16.1895 62.3444 15.7858 62.2598 15.4082C62.1816 15.0241 62.0547 14.6855 61.8789 14.3926C61.7096 14.0931 61.485 13.8587 61.2051 13.6895C60.9251 13.5202 60.5866 13.4355 60.1895 13.4355C59.7923 13.4355 59.4538 13.5202 59.1738 13.6895C58.9004 13.8587 58.6758 14.0931 58.5 14.3926C58.3307 14.6855 58.207 15.0241 58.1289 15.4082C58.0508 15.7858 58.0117 16.1895 58.0117 16.6191Z" fill="#171717"/>
</svg>
