<svg width="16" height="16" viewBox="0 0 16 16" fill="none" xmlns="http://www.w3.org/2000/svg">
<path d="M5.9987 4.00016C5.9987 4.36835 6.29717 4.66683 6.66536 4.66683H9.42786C9.7851 4.66683 9.96317 5.09948 9.70943 5.35094L3.50336 11.5013C3.22573 11.7765 3.22472 12.2249 3.5011 12.5013C3.77663 12.7768 4.22335 12.7768 4.49885 12.5012L10.6492 6.34982C10.9011 6.0978 11.332 6.27626 11.332 6.63264V9.33346C11.332 9.70167 11.6305 10.0002 11.9987 10.0002C12.3669 10.0002 12.6654 9.70171 12.6654 9.33353L12.6658 5.53373C12.666 4.31861 11.681 3.3335 10.4658 3.3335L6.66536 3.3335C6.29717 3.3335 5.9987 3.63197 5.9987 4.00016Z" fill="#FEFFFF"/>
</svg>
