<svg width="16" height="16" viewBox="0 0 16 16" fill="none" xmlns="http://www.w3.org/2000/svg">
<path d="M12.667 9.33366V4.00033C12.667 3.26699 12.067 2.66699 11.3337 2.66699H2.00033C1.26699 2.66699 0.666992 3.26699 0.666992 4.00033V9.33366C0.666992 10.067 1.26699 10.667 2.00033 10.667H11.3337C12.067 10.667 12.667 10.067 12.667 9.33366ZM11.3337 9.33366H2.00033V4.00033H11.3337V9.33366ZM6.66699 4.66699C5.56033 4.66699 4.66699 5.56033 4.66699 6.66699C4.66699 7.77366 5.56033 8.66699 6.66699 8.66699C7.77366 8.66699 8.66699 7.77366 8.66699 6.66699C8.66699 5.56033 7.77366 4.66699 6.66699 4.66699ZM15.3337 4.66699V12.0003C15.3337 12.7337 14.7337 13.3337 14.0003 13.3337H2.66699V12.0003H14.0003V4.66699H15.3337Z" fill="#434343"/>
</svg>
