<svg width="25" height="24" viewBox="0 0 25 24" fill="none" xmlns="http://www.w3.org/2000/svg">
<path d="M11.5691 12.35C12.3391 10.96 13.8191 10.14 14.6791 8.91C15.5891 7.62 15.0791 5.21 12.4991 5.21C10.8091 5.21 9.97906 6.49 9.62906 7.55L7.03906 6.46C7.74906 4.33 9.67906 2.5 12.4891 2.5C14.8391 2.5 16.4491 3.57 17.2691 4.91C17.9691 6.06 18.3791 8.21 17.2991 9.81C16.0991 11.58 14.9491 12.12 14.3291 13.26C14.0791 13.72 13.9791 14.02 13.9791 15.5H11.0891C11.0791 14.72 10.9591 13.45 11.5691 12.35ZM14.4991 19.5C14.4991 20.6 13.5991 21.5 12.4991 21.5C11.3991 21.5 10.4991 20.6 10.4991 19.5C10.4991 18.4 11.3991 17.5 12.4991 17.5C13.5991 17.5 14.4991 18.4 14.4991 19.5Z" fill="#434343"/>
</svg>
