<svg width="25" height="24" viewBox="0 0 25 24" fill="none" xmlns="http://www.w3.org/2000/svg">
<path d="M12.5 2C6.98 2 2.5 6.48 2.5 12C2.5 17.52 6.98 22 12.5 22C18.02 22 22.5 17.52 22.5 12C22.5 6.48 18.02 2 12.5 2ZM7.85 18.5C9.16 17.56 10.76 17 12.5 17C14.24 17 15.84 17.56 17.15 18.5C15.84 19.44 14.24 20 12.5 20C10.76 20 9.16 19.44 7.85 18.5ZM18.64 17.12C16.95 15.8 14.82 15 12.5 15C10.18 15 8.05 15.8 6.36 17.12C5.2 15.73 4.5 13.95 4.5 12C4.5 7.58 8.08 4 12.5 4C16.92 4 20.5 7.58 20.5 12C20.5 13.95 19.8 15.73 18.64 17.12Z" fill="#434343"/>
<path d="M12.5 6C10.57 6 9 7.57 9 9.5C9 11.43 10.57 13 12.5 13C14.43 13 16 11.43 16 9.5C16 7.57 14.43 6 12.5 6ZM12.5 11C11.67 11 11 10.33 11 9.5C11 8.67 11.67 8 12.5 8C13.33 8 14 8.67 14 9.5C14 10.33 13.33 11 12.5 11Z" fill="#434343"/>
</svg>
