<svg width="20" height="20" viewBox="0 0 20 20" fill="none" xmlns="http://www.w3.org/2000/svg">
<path d="M14.9993 10.8332H10.8327V14.9998C10.8327 15.4582 10.4577 15.8332 9.99935 15.8332C9.54102 15.8332 9.16602 15.4582 9.16602 14.9998V10.8332H4.99935C4.54102 10.8332 4.16602 10.4582 4.16602 9.99984C4.16602 9.5415 4.54102 9.1665 4.99935 9.1665H9.16602V4.99984C9.16602 4.5415 9.54102 4.1665 9.99935 4.1665C10.4577 4.1665 10.8327 4.5415 10.8327 4.99984V9.1665H14.9993C15.4577 9.1665 15.8327 9.5415 15.8327 9.99984C15.8327 10.4582 15.4577 10.8332 14.9993 10.8332Z" fill="#FEFFFF"/>
</svg>
