<svg width="25" height="24" viewBox="0 0 25 24" fill="none" xmlns="http://www.w3.org/2000/svg">
<path d="M14.2704 5.23156C13.8518 5.65015 13.8698 6.33415 14.3098 6.73015L17.7258 9.80436C17.9982 10.0496 17.8248 10.5016 17.4582 10.5017L4.99708 10.5036C4.44441 10.5037 3.99652 10.9519 3.99685 11.5046C3.99718 12.0569 4.44503 12.5044 4.99734 12.5044L17.4573 12.503C17.8239 12.503 17.9974 12.9551 17.7249 13.2004L14.3071 16.2758C13.8673 16.6717 13.8493 17.3554 14.2677 17.7739C14.671 18.1772 15.3248 18.1772 15.7282 17.774L21.0117 12.4919C21.5586 11.9452 21.5586 11.0586 21.0119 10.5119L15.7316 5.23156C15.3281 4.82807 14.6739 4.82807 14.2704 5.23156Z" fill="#FEFFFF"/>
</svg>
