<svg width="33" height="32" viewBox="0 0 33 32" fill="none" xmlns="http://www.w3.org/2000/svg">
<path d="M20.3359 20.6667H12.3359C11.9693 20.6667 11.6693 20.3667 11.6693 20V12C11.6693 11.6333 11.9693 11.3333 12.3359 11.3333H20.3359C20.7026 11.3333 21.0026 11.6333 21.0026 12V20C21.0026 20.3667 20.7026 20.6667 20.3359 20.6667ZM21.0026 10H11.6693C10.9359 10 10.3359 10.6 10.3359 11.3333V20.6667C10.3359 21.4 10.9359 22 11.6693 22H21.0026C21.7359 22 22.3359 21.4 22.3359 20.6667V11.3333C22.3359 10.6 21.7359 10 21.0026 10Z" fill="#171717"/>
</svg>
