<svg width="33" height="32" viewBox="0 0 33 32" fill="none" xmlns="http://www.w3.org/2000/svg">
<path d="M22.3359 12C22.3359 10.8954 21.4411 10 20.3365 10C17.7891 10 14.8826 9.99998 12.3352 10.0001C11.2307 10.0001 10.3359 10.8955 10.3359 12V20C10.3359 21.1046 11.2314 22 12.3359 22L20.3359 22.0001C21.4405 22.0001 22.3359 21.1047 22.3359 20.0001V12ZM16.4166 18.2529C15.6355 19.0338 14.3694 19.0335 13.5884 18.2525L12.1633 16.8274C11.8905 16.5545 11.8905 16.1121 12.1633 15.8393C12.4408 15.5618 12.8923 15.5672 13.1631 15.8511L14.2884 17.0311C14.6788 17.4405 15.3308 17.4448 15.7266 17.0406L19.8385 12.8412C20.1124 12.5615 20.5619 12.5592 20.8387 12.836C21.1134 13.1106 21.1139 13.5555 20.8393 13.8303C19.504 15.1668 17.8625 16.8075 16.4166 18.2529Z" fill="#171717"/>
</svg>
