<svg width="17" height="16" viewBox="0 0 17 16" fill="none" xmlns="http://www.w3.org/2000/svg">
<path d="M13.1664 4.50032C13.4425 4.22418 13.4425 3.77647 13.1664 3.50034C12.8902 3.22419 12.4425 3.22419 12.1663 3.50035L9.37346 6.29335C8.98293 6.68389 8.34975 6.68389 7.95922 6.29335L4.83301 3.16701C4.55687 2.89086 4.10914 2.89086 3.833 3.167C3.55686 3.44314 3.55685 3.89085 3.83299 4.16699L6.95925 7.29338C7.34977 7.68391 7.34975 8.31707 6.95922 8.70759L3.83303 11.8337C3.55688 12.1098 3.55687 12.5575 3.83302 12.8337C4.10916 13.1098 4.55686 13.1098 4.83301 12.8337L7.95925 9.70756C8.34977 9.31706 8.98291 9.31706 9.37343 9.70756L12.4997 12.8337C12.7758 13.1098 13.2235 13.1098 13.4997 12.8337C13.7758 12.5575 13.7758 12.1098 13.4997 11.8337L10.3735 8.70759C9.98293 8.31707 9.98292 7.68391 10.3734 7.29338L13.1664 4.50032Z" fill="#434343"/>
</svg>
