<svg width="16" height="17" viewBox="0 0 16 17" fill="none" xmlns="http://www.w3.org/2000/svg">
<g id="fuel">
<g id="Vector">
<path d="M2.1731 2.48088C2.1731 2.12331 2.46297 1.83344 2.82054 1.83344H4.11543C4.47301 1.83344 4.76288 2.12331 4.76288 2.48088C4.76288 2.83846 4.47301 3.12833 4.11543 3.12833H2.82054C2.46297 3.12833 2.1731 2.83846 2.1731 2.48088Z" fill="#646464"/>
<path d="M3.68327 2.10362C3.95791 1.80914 4.41928 1.79305 4.71376 2.06769L6.3563 3.59957L5.36173 4.66598L3.71919 3.13411C3.42471 2.85947 3.40863 2.3981 3.68327 2.10362Z" fill="#646464"/>
<path d="M12.5322 2.21786H8.42538C7.73853 2.21786 7.07981 2.49071 6.59413 2.97639L4.22652 5.344C3.74084 5.82968 3.46799 6.4884 3.46799 7.17525V13.8719C3.46799 14.5841 4.05069 15.1668 4.76288 15.1668H12.5322C13.2444 15.1668 13.8271 14.5841 13.8271 13.8719V3.51275C13.8271 2.80056 13.2444 2.21786 12.5322 2.21786ZM12.5322 11.2821C12.5322 12.7124 11.3727 13.8719 9.94244 13.8719H7.35266C5.92236 13.8719 4.76288 12.7124 4.76288 11.2821V7.71263C4.76288 7.02578 5.03573 6.36706 5.52141 5.88138L7.13151 4.27128C7.61719 3.7856 8.27591 3.51275 8.96276 3.51275H9.94244C11.3727 3.51275 12.5322 4.67223 12.5322 6.10253V11.2821Z" fill="#646464"/>
</g>
</g>
</svg>
