<svg width="25" height="24" viewBox="0 0 25 24" fill="none" xmlns="http://www.w3.org/2000/svg">
<path d="M23.0015 12.2336C23.0015 11.3702 22.93 10.7402 22.7753 10.0869H12.7158V13.9835H18.6205C18.5015 14.9519 17.8587 16.4102 16.4301 17.3902L16.41 17.5206L19.5907 19.9354L19.811 19.9569C21.8348 18.1252 23.0015 15.4302 23.0015 12.2336Z" fill="#4285F4"/>
<path d="M12.715 22.4996C15.6078 22.4996 18.0363 21.5662 19.8102 19.9562L16.4292 17.3895C15.5245 18.0078 14.3102 18.4395 12.715 18.4395C9.88167 18.4395 7.47693 16.6079 6.61971 14.0762L6.49406 14.0866L3.18681 16.595L3.14355 16.7128C4.90543 20.1428 8.52448 22.4996 12.715 22.4996Z" fill="#34A853"/>
<path d="M6.61997 14.0765C6.39379 13.4232 6.26289 12.7231 6.26289 11.9998C6.26289 11.2764 6.39379 10.5765 6.60807 9.92313L6.60208 9.78398L3.25337 7.23535L3.14381 7.28642C2.41765 8.70977 2.00098 10.3081 2.00098 11.9998C2.00098 13.6915 2.41765 15.2897 3.14381 16.7131L6.61997 14.0765Z" fill="#FBBC05"/>
<path d="M12.715 5.55997C14.7269 5.55997 16.084 6.41163 16.8579 7.12335L19.8817 4.23C18.0246 2.53834 15.6078 1.5 12.715 1.5C8.52451 1.5 4.90544 3.85665 3.14355 7.28662L6.60783 9.92332C7.47696 7.39166 9.88171 5.55997 12.715 5.55997Z" fill="#EB4335"/>
</svg>
