<svg width="16" height="16" viewBox="0 0 16 16" fill="none" xmlns="http://www.w3.org/2000/svg">
<path d="M8.00033 7.99967C7.26699 7.99967 6.66699 7.39967 6.66699 6.66634C6.66699 5.93301 7.26699 5.33301 8.00033 5.33301C8.73366 5.33301 9.33366 5.93301 9.33366 6.66634C9.33366 7.39967 8.73366 7.99967 8.00033 7.99967ZM12.0003 6.79967C12.0003 4.37967 10.2337 2.66634 8.00033 2.66634C5.76699 2.66634 4.00033 4.37967 4.00033 6.79967C4.00033 8.35967 5.30033 10.4263 8.00033 12.893C10.7003 10.4263 12.0003 8.35967 12.0003 6.79967ZM8.00033 1.33301C10.8003 1.33301 13.3337 3.47967 13.3337 6.79967C13.3337 9.01301 11.5537 11.633 8.00033 14.6663C4.44699 11.633 2.66699 9.01301 2.66699 6.79967C2.66699 3.47967 5.20033 1.33301 8.00033 1.33301Z" fill="#434343"/>
</svg>
