<svg width="60" height="32" viewBox="0 0 60 32" fill="none" xmlns="http://www.w3.org/2000/svg">
<path d="M8.62305 21.2178V12.377H11.7168V24H8.80566L8.62305 21.2178ZM8.9668 18.833L9.87988 18.8115C9.87988 19.585 9.79036 20.3047 9.61133 20.9707C9.43229 21.6296 9.16374 22.2025 8.80566 22.6895C8.44759 23.1693 7.99642 23.5452 7.45215 23.8174C6.90788 24.0824 6.26693 24.2148 5.5293 24.2148C4.96354 24.2148 4.44076 24.1361 3.96094 23.9785C3.48828 23.8138 3.08008 23.5596 2.73633 23.2158C2.39974 22.8649 2.13477 22.4173 1.94141 21.873C1.75521 21.3216 1.66211 20.6592 1.66211 19.8857V12.377H4.75586V19.9072C4.75586 20.251 4.79525 20.541 4.87402 20.7773C4.95996 21.0137 5.07812 21.207 5.22852 21.3574C5.37891 21.5078 5.55436 21.6152 5.75488 21.6797C5.96257 21.7441 6.19173 21.7764 6.44238 21.7764C7.07975 21.7764 7.58105 21.6475 7.94629 21.3896C8.31868 21.1318 8.58008 20.7809 8.73047 20.3369C8.88802 19.8857 8.9668 19.3844 8.9668 18.833ZM20.6328 11.0342L16.3789 24H12.9521L18.7637 8.35938H20.9443L20.6328 11.0342ZM24.167 24L19.9023 11.0342L19.5586 8.35938H21.7607L27.6045 24H24.167ZM23.9736 18.1777V20.7021H15.7129V18.1777H23.9736ZM35.6074 21.2178V12.377H38.7012V24H35.79L35.6074 21.2178ZM35.9512 18.833L36.8643 18.8115C36.8643 19.585 36.7747 20.3047 36.5957 20.9707C36.4167 21.6296 36.1481 22.2025 35.79 22.6895C35.432 23.1693 34.9808 23.5452 34.4365 23.8174C33.8923 24.0824 33.2513 24.2148 32.5137 24.2148C31.9479 24.2148 31.4251 24.1361 30.9453 23.9785C30.4727 23.8138 30.0645 23.5596 29.7207 23.2158C29.3841 22.8649 29.1191 22.4173 28.9258 21.873C28.7396 21.3216 28.6465 20.6592 28.6465 19.8857V12.377H31.7402V19.9072C31.7402 20.251 31.7796 20.541 31.8584 20.7773C31.9443 21.0137 32.0625 21.207 32.2129 21.3574C32.3633 21.5078 32.5387 21.6152 32.7393 21.6797C32.9469 21.7441 33.1761 21.7764 33.4268 21.7764C34.0641 21.7764 34.5654 21.6475 34.9307 21.3896C35.3031 21.1318 35.5645 20.7809 35.7148 20.3369C35.8724 19.8857 35.9512 19.3844 35.9512 18.833ZM46.7578 12.377V14.5684H39.9902V12.377H46.7578ZM41.666 9.50879H44.7598V20.498C44.7598 20.8346 44.8027 21.0924 44.8887 21.2715C44.9818 21.4505 45.1178 21.5758 45.2969 21.6475C45.4759 21.7119 45.7015 21.7441 45.9736 21.7441C46.167 21.7441 46.3389 21.737 46.4893 21.7227C46.6468 21.7012 46.7793 21.6797 46.8867 21.6582L46.8975 23.9355C46.6325 24.0215 46.346 24.0895 46.0381 24.1396C45.7301 24.1898 45.39 24.2148 45.0176 24.2148C44.3372 24.2148 43.7428 24.1038 43.2344 23.8818C42.7331 23.6527 42.3464 23.2874 42.0742 22.7861C41.8021 22.2848 41.666 21.626 41.666 20.8096V9.50879ZM47.7461 18.3066V18.0811C47.7461 17.2288 47.8678 16.4447 48.1113 15.7285C48.3548 15.0052 48.7093 14.3786 49.1748 13.8486C49.6403 13.3187 50.2132 12.9069 50.8936 12.6133C51.5739 12.3125 52.3545 12.1621 53.2354 12.1621C54.1162 12.1621 54.9004 12.3125 55.5879 12.6133C56.2754 12.9069 56.8519 13.3187 57.3174 13.8486C57.79 14.3786 58.1481 15.0052 58.3916 15.7285C58.6351 16.4447 58.7568 17.2288 58.7568 18.0811V18.3066C58.7568 19.1517 58.6351 19.9359 58.3916 20.6592C58.1481 21.3753 57.79 22.002 57.3174 22.5391C56.8519 23.069 56.279 23.4808 55.5986 23.7744C54.9183 24.068 54.1377 24.2148 53.2568 24.2148C52.376 24.2148 51.5918 24.068 50.9043 23.7744C50.224 23.4808 49.6475 23.069 49.1748 22.5391C48.7093 22.002 48.3548 21.3753 48.1113 20.6592C47.8678 19.9359 47.7461 19.1517 47.7461 18.3066ZM50.8398 18.0811V18.3066C50.8398 18.7936 50.8828 19.2484 50.9688 19.6709C51.0547 20.0934 51.1908 20.4658 51.377 20.7881C51.5703 21.1032 51.821 21.3503 52.1289 21.5293C52.4368 21.7083 52.8128 21.7979 53.2568 21.7979C53.6865 21.7979 54.0553 21.7083 54.3633 21.5293C54.6712 21.3503 54.9183 21.1032 55.1045 20.7881C55.2907 20.4658 55.4268 20.0934 55.5127 19.6709C55.6058 19.2484 55.6523 18.7936 55.6523 18.3066V18.0811C55.6523 17.6084 55.6058 17.1644 55.5127 16.749C55.4268 16.3265 55.2871 15.9541 55.0938 15.6318C54.9076 15.3024 54.6605 15.0446 54.3525 14.8584C54.0446 14.6722 53.6722 14.5791 53.2354 14.5791C52.7985 14.5791 52.4261 14.6722 52.1182 14.8584C51.8174 15.0446 51.5703 15.3024 51.377 15.6318C51.1908 15.9541 51.0547 16.3265 50.9688 16.749C50.8828 17.1644 50.8398 17.6084 50.8398 18.0811Z" fill="#434343"/>
</svg>
