<svg width="16" height="16" viewBox="0 0 16 16" fill="none" xmlns="http://www.w3.org/2000/svg">
<path d="M13.565 5.68835L12.745 6.92168C13.1404 7.7104 13.334 8.5849 13.3084 9.46683C13.2828 10.3488 13.0388 11.2106 12.5983 11.975H3.35831C2.78575 10.9818 2.5485 9.83043 2.68173 8.69173C2.81496 7.55303 3.31158 6.48757 4.09796 5.6533C4.88434 4.81904 5.91862 4.26038 7.04746 4.06015C8.17631 3.85992 9.33964 4.02877 10.365 4.54168L11.5983 3.72168C10.3426 2.91649 8.85319 2.55569 7.36823 2.69697C5.88327 2.83826 4.4886 3.47348 3.4073 4.50102C2.326 5.52857 1.62055 6.88906 1.40378 8.36489C1.18702 9.84072 1.47147 11.3466 2.21164 12.6417C2.32798 12.8432 2.49503 13.0108 2.69619 13.1277C2.89735 13.2447 3.12562 13.3069 3.35831 13.3083H12.5916C12.8266 13.3093 13.0576 13.2481 13.2613 13.131C13.465 13.014 13.6342 12.8452 13.7516 12.6417C14.3659 11.5776 14.6742 10.3645 14.6424 9.13632C14.6106 7.90811 14.2401 6.71256 13.5716 5.68168L13.565 5.68835Z" fill="#434343"/>
<path d="M7.03831 10.2483C7.16214 10.3723 7.30919 10.4707 7.47105 10.5378C7.63292 10.6049 7.80642 10.6394 7.98164 10.6394C8.15686 10.6394 8.33036 10.6049 8.49223 10.5378C8.65409 10.4707 8.80114 10.3723 8.92497 10.2483L12.6983 4.58835L7.03831 8.36168C6.91434 8.48551 6.81599 8.63256 6.74889 8.79443C6.68179 8.95629 6.64726 9.12979 6.64726 9.30502C6.64726 9.48024 6.68179 9.65374 6.74889 9.8156C6.81599 9.97747 6.91434 10.1245 7.03831 10.2483Z" fill="#434343"/>
</svg>
