<svg width="21" height="20" viewBox="0 0 21 20" fill="none" xmlns="http://www.w3.org/2000/svg">
<path d="M17.1667 12.9186C16.125 12.9186 15.125 12.752 14.1917 12.4436C14.1083 12.4186 14.0167 12.402 13.9333 12.402C13.7167 12.402 13.5083 12.4853 13.3417 12.6436L11.5083 14.477C9.15 13.277 7.21667 11.352 6.01667 8.99362L7.85 7.15195C8.08333 6.92695 8.15 6.60195 8.05833 6.31029C7.75 5.37695 7.58333 4.37695 7.58333 3.33529C7.58333 2.87695 7.20833 2.50195 6.75 2.50195H3.83333C3.375 2.50195 3 2.87695 3 3.33529C3 11.1603 9.34167 17.502 17.1667 17.502C17.625 17.502 18 17.127 18 16.6686V13.752C18 13.2936 17.625 12.9186 17.1667 12.9186ZM4.69167 4.16862H5.94167C6 4.90195 6.125 5.62695 6.325 6.32695L5.325 7.33529C4.98333 6.32695 4.76667 5.26862 4.69167 4.16862ZM16.3333 15.8103C15.2333 15.7353 14.1667 15.5186 13.1667 15.177L14.1667 14.177C14.875 14.377 15.6 14.502 16.3333 14.552V15.8103Z" fill="#434343"/>
</svg>
