<svg width="280" height="452" viewBox="0 0 280 452" fill="none" xmlns="http://www.w3.org/2000/svg">
<g clip-path="url(#clip0_6174_7985)">
<path d="M30.1722 438.461C40.7819 436.626 74.715 396.453 95.5927 373.472C95.3409 384.028 96.0602 394.601 97.7506 405.013C99.8725 418.122 104.368 432.185 115.661 439.198C121.649 442.92 128.824 444.143 135.802 445.294C142.923 446.463 150.493 447.596 157.165 444.827C165.581 441.338 170.436 432.598 174.015 424.237C181.064 407.764 185.757 390.268 187.879 372.465C193.867 381.51 199.873 390.555 205.862 399.582C212.192 409.113 218.557 418.716 226.596 426.862C232.494 432.85 239.507 438.119 247.707 439.971C255.907 441.823 265.402 439.612 270.491 432.94C274.267 427.977 275.148 421.413 275.4 415.173C275.94 401.65 274.141 388.02 270.095 375.09C265.959 361.891 259.54 349.537 254.468 336.662C236.558 291.31 235.659 240.922 220.212 194.671C215.285 179.926 208.721 165.396 198.291 153.887C187.843 142.36 173.044 134.106 157.489 134.286C144.092 134.448 131.288 140.814 121.344 149.787C111.399 158.76 103.973 170.197 97.5168 181.922C90.9712 193.808 85.2707 206.18 80.4694 218.876C61.6776 268.652 56.6785 323.768 30.4419 370.055C20.5335 387.534 7.46023 404.186 4.78083 424.093C4.42118 426.79 4.25934 429.631 5.21241 432.185C8.50322 441.014 21.0191 440.547 30.1902 438.425" fill="#BECBEB"/>
<path d="M31.3591 442.794C35.1534 442.075 38.5881 439.251 41.5372 436.932C45.871 433.497 49.8811 429.649 53.8013 425.747C64.0694 415.515 73.726 404.671 83.3646 393.864C88.4897 388.127 93.5967 382.355 98.7757 376.654L91.0971 373.471C90.7914 387.678 91.7625 402.513 95.5568 416.252C98.7037 427.617 104.8 438.946 115.769 444.395C122.045 447.523 128.914 448.71 135.784 449.807C142.653 450.904 150.601 452.001 157.597 449.448C170.023 444.916 175.705 432.202 180.255 420.765C186.405 405.247 190.343 389.008 192.375 372.464L183.995 374.73C192.555 387.624 200.845 400.751 209.8 413.357C218.036 424.955 227.746 437.04 241.269 442.614C253.03 447.452 268.297 445.204 275.382 433.749C279.015 427.869 279.752 420.694 279.95 413.932C280.184 406.182 279.59 398.449 278.385 390.807C275.958 375.485 270.005 361.423 263.801 347.307C257.598 333.19 252.886 319.722 249.2 305.246C241.935 276.689 238.428 247.342 231.631 218.678C228.286 204.615 224.204 190.661 218.36 177.426C212.803 164.892 205.142 152.844 194.461 144.05C183.779 135.257 171.407 129.79 157.884 129.844C144.361 129.898 130.749 136.12 120.175 144.949C109.601 153.779 101.401 165.881 94.6037 178.019C87.087 191.434 80.6673 205.496 75.3444 219.936C65.5619 246.497 59.5917 274.208 52.093 301.451C48.3706 314.992 44.2526 328.443 39.0916 341.498C33.9666 354.5 27.4749 366.692 20.174 378.578C11.3086 393.018 -17.6073 439.575 15.4626 443.945C20.7854 444.646 26.1981 443.981 31.4131 442.812C37.0596 441.535 34.6679 432.868 29.0214 434.144C24.8315 435.08 19.9222 435.781 15.9121 434.99C11.3446 434.091 8.84498 432.166 9.04279 427.023C9.49235 414.633 16.2358 402.621 22.4038 392.245C29.1473 380.88 36.2504 369.839 41.825 357.827C47.3996 345.814 52.0211 333.137 55.9592 320.369C63.9255 294.618 69.5001 268.184 77.3225 242.397C81.2966 229.323 85.8822 216.43 91.5287 203.968C97.2651 191.344 103.739 178.774 111.795 167.463C119.15 157.141 128.447 148.114 140.082 142.827C151.105 137.81 163.459 137.63 174.644 142.27C198.902 152.358 210.555 178.199 217.766 201.756C225.966 228.532 229.796 256.351 235.209 283.738C237.925 297.459 241.054 311.144 245.351 324.469C249.649 337.794 255.907 350.831 261.284 364.013C266.661 377.194 270.365 391.382 270.923 405.894C271.336 416.629 271.768 431.699 259.072 435.349C247.383 438.694 236.612 430.836 228.933 422.833C219.115 412.619 211.724 400.301 203.92 388.541C199.874 382.427 195.809 376.331 191.763 370.217C189.138 366.26 183.923 368.131 183.384 372.482C181.765 385.699 178.654 398.755 174.248 411.325C172.252 417.025 170.076 422.762 167.253 428.102C165.059 432.256 162.362 436.482 158.37 439.126C153.299 442.488 147.239 442.398 141.412 441.661C135.586 440.924 129.004 439.917 123.196 437.867C113.378 434.414 107.875 425.657 104.908 416.126C100.664 402.531 99.8007 387.66 100.106 373.489C100.196 369.695 95.0533 367.411 92.4278 370.306C83.0589 380.628 73.8878 391.148 64.483 401.434C55.9233 410.821 47.2917 420.37 37.5991 428.606C37.1135 429.019 36.628 429.415 36.1425 429.829C35.9627 429.973 34.4521 431.159 35.2074 430.584C34.3442 431.249 33.4451 431.879 32.528 432.472C31.7727 432.958 30.9815 433.389 30.1903 433.803C29.1653 434.36 31.0354 433.677 29.9745 433.875C29.6508 433.929 29.3451 434.055 29.0214 434.126C26.6297 434.576 25.281 437.453 25.8744 439.665C26.5578 442.165 29.0034 443.262 31.4131 442.812L31.3591 442.794Z" fill="#171717"/>
<path d="M121.992 149.661C121.075 110.459 104.98 73.1272 87.3035 38.7805C86.0807 36.4248 84.4083 34.3748 81.8008 33.5476C79.1933 32.7204 76.1183 33.062 73.4209 33.062C67.5227 33.062 61.6244 33.062 55.7261 33.062C49.8278 33.062 49.9357 42.0533 55.7261 42.0533C60.7432 42.0533 65.7604 42.0533 70.7595 42.0533C72.9714 42.0533 75.1832 42.0533 77.3951 42.0533C79.3192 42.0533 78.9955 42.2331 79.9126 44.0494C83.9767 52.1595 87.9149 60.3236 91.6373 68.5956C99.0461 85.0676 105.43 102.097 109.314 119.774C111.472 129.61 112.749 139.591 113.001 149.661C113.126 155.433 122.136 155.451 121.992 149.661Z" fill="#171717"/>
<path d="M190.882 143.457C202.625 98.0331 218.216 48.9228 234.814 5.02737L190.882 143.457Z" fill="#BECBEB"/>
<path d="M195.216 144.662C204.729 107.942 215.842 71.6168 228.394 35.8136C231.865 25.9052 235.443 16.0508 239.165 6.2323C240.029 3.9665 238.212 1.30508 236.018 0.693675C233.501 -0.00764382 231.343 1.55684 230.48 3.84062C217.065 39.3202 205.214 75.4111 194.802 111.898C191.925 121.986 189.174 132.11 186.531 142.27C185.074 147.881 193.742 150.272 195.198 144.662H195.216Z" fill="#171717"/>
<path d="M111.453 406.182L118.79 405.75C120.535 405.642 122.297 405.553 123.969 406.038C128.195 407.279 130.569 411.972 130.695 416.378C130.767 418.644 130.353 420.946 129.328 422.978C128.968 423.679 128.537 424.362 127.908 424.83C127.404 425.225 126.793 425.459 126.163 425.621C121.757 426.808 116.974 424.272 114.403 420.514C111.831 416.756 111.094 412.026 111.004 407.477" fill="#BECBEB"/>
<path d="M111.453 408.43C113.773 408.304 116.075 408.16 118.395 408.034C120.247 407.926 122.477 407.711 124.095 408.484C126.685 409.743 128.141 412.818 128.411 415.551C128.591 417.421 128.411 419.363 127.71 421.126C127.476 421.719 127.206 422.384 126.756 422.834C126.253 423.373 125.39 423.535 124.724 423.625C121.649 424.021 118.377 422.115 116.542 419.633C113.971 416.162 113.377 411.667 113.288 407.477C113.216 404.582 108.72 404.582 108.792 407.477C108.9 412.368 109.673 417.529 112.496 421.647C115.086 425.423 119.474 428.283 124.167 428.157C126.72 428.085 129.166 427.24 130.677 425.118C132.187 422.996 132.799 420.262 132.942 417.745C133.176 413.555 131.738 408.861 128.483 406.056C126.307 404.186 123.699 403.413 120.858 403.431C117.729 403.431 114.582 403.754 111.471 403.934C110.266 404.006 109.223 404.923 109.223 406.182C109.223 407.351 110.248 408.502 111.471 408.43H111.453Z" fill="#171717"/>
<path d="M120.678 422.708C121.092 421.863 120.067 421.018 119.905 420.083C119.725 419.13 120.535 418.23 121.452 417.943C122.369 417.655 123.358 417.817 124.311 417.997C124.814 418.087 125.336 418.194 125.713 418.536C126.145 418.95 126.235 419.615 126.163 420.208C125.875 422.51 123.124 424.147 120.966 423.266" fill="#BECBEB"/>
<path d="M124.563 424.992C124.743 424.578 124.976 424.147 125.102 423.697C125.192 423.337 125.246 422.798 125.282 422.42C125.282 422.366 125.282 422.312 125.282 422.276C125.282 422.24 125.282 422.168 125.282 422.133C125.246 421.737 125.192 421.251 125.102 420.856C125.03 420.568 124.905 420.298 124.779 420.011C124.527 419.399 124.185 418.842 123.915 418.23L124.365 419.309C124.293 419.147 124.257 418.986 124.221 418.824L124.383 420.011C124.383 419.885 124.383 419.777 124.383 419.669L124.221 420.856C124.239 420.712 124.275 420.568 124.329 420.442L123.88 421.521C123.951 421.359 124.041 421.215 124.149 421.054L123.448 421.971C123.592 421.809 123.736 421.665 123.898 421.521L122.98 422.222C123.16 422.097 123.34 421.989 123.538 421.899L122.459 422.348C122.693 422.258 122.944 422.204 123.196 422.168L122.009 422.33C122.477 422.276 122.926 422.294 123.394 422.348L122.207 422.186C122.819 422.276 123.484 422.348 124.059 422.582L122.98 422.133C123.088 422.186 123.196 422.24 123.304 422.312L122.387 421.611C122.477 421.683 122.567 421.773 122.657 421.863L121.955 420.946C122.045 421.072 122.117 421.197 122.171 421.323L121.722 420.244C121.776 420.388 121.812 420.532 121.83 420.676L121.668 419.489C121.704 419.741 121.704 419.975 121.668 420.208L121.83 419.022C121.794 419.309 121.722 419.579 121.614 419.867L122.063 418.788C121.937 419.075 121.776 419.345 121.596 419.597L122.297 418.68C122.063 418.968 121.812 419.237 121.524 419.453L122.441 418.752C122.135 418.968 121.83 419.165 121.488 419.309L122.567 418.86C122.243 418.986 121.919 419.075 121.578 419.129L122.765 418.968C122.423 419.022 122.081 419.022 121.758 418.968L122.944 419.129C122.675 419.093 122.423 419.022 122.189 418.932C121.596 418.752 121.002 418.716 120.391 418.86C119.797 418.896 119.24 419.057 118.719 419.399C118.197 419.687 117.765 420.065 117.46 420.55C117.064 420.982 116.794 421.485 116.651 422.079C116.381 423.229 116.453 424.524 117.1 425.549L117.801 426.466C118.359 427.024 119.024 427.401 119.779 427.617C120.409 427.851 121.074 427.905 121.74 427.977C122.027 428.013 122.315 428.013 122.603 427.977C123.232 427.905 123.88 427.851 124.491 427.689C125.102 427.527 125.75 427.24 126.343 426.934C126.937 426.628 127.404 426.215 127.89 425.819C128.123 425.639 128.339 425.441 128.519 425.226C128.933 424.758 129.346 424.254 129.652 423.697C129.724 423.571 129.778 423.445 129.832 423.301C130.03 422.834 130.281 422.348 130.407 421.863C130.749 420.604 130.803 419.075 130.389 417.853C130.048 416.882 129.562 415.911 128.753 415.227C127.944 414.544 127.062 414.004 125.983 413.735C125.642 413.645 125.282 413.591 124.94 413.537C124.149 413.411 123.34 413.267 122.531 413.267C121.776 413.267 120.984 413.357 120.265 413.591C119.15 413.95 118.449 414.4 117.55 415.119C116.183 416.234 115.356 418.14 115.392 419.885C115.428 421.054 115.751 421.935 116.255 422.978C116.417 423.319 116.633 423.625 116.776 423.985L116.327 422.906C116.381 423.032 116.417 423.158 116.435 423.283L116.273 422.097C116.273 422.204 116.273 422.294 116.273 422.402L116.435 421.215C116.435 421.215 116.399 421.359 116.381 421.431L116.83 420.352L116.794 420.424C116.471 420.946 116.291 421.503 116.255 422.097C116.129 422.69 116.147 423.283 116.327 423.895C116.471 424.488 116.74 424.992 117.136 425.423C117.46 425.909 117.873 426.304 118.395 426.574C119.438 427.132 120.697 427.401 121.865 427.024L122.944 426.574C123.628 426.179 124.149 425.639 124.563 424.956V424.992Z" fill="#171717"/>
<path d="M153.19 416.306C154.521 415.551 155.402 414.22 156.337 413.015C157.704 411.217 159.233 409.563 160.923 408.07C161.301 407.747 161.678 407.423 162.128 407.243C162.613 407.045 163.171 407.027 163.692 407.063C166.875 407.351 169.429 410.192 170.094 413.321C170.759 416.45 169.824 419.723 168.26 422.51C167.576 423.733 166.749 424.902 165.598 425.657C164.304 426.502 162.739 426.736 161.211 426.916C159.7 427.096 158.172 427.222 156.643 427.294C155.888 427.33 155.115 427.348 154.431 427.042C153.784 426.736 153.316 426.179 152.939 425.585C151.05 422.654 151.176 418.572 153.244 415.749" fill="#BECBEB"/>
<path d="M154.324 418.248C156.032 417.188 157.111 415.641 158.316 414.095C159.521 412.548 160.834 411.181 162.254 409.887C162.758 409.419 162.991 409.203 163.711 409.293C164.196 409.347 164.808 409.617 165.311 409.923C166.354 410.552 167.199 411.685 167.649 412.818C168.872 416.019 167.505 420.137 165.491 422.744C164.502 424.021 163.171 424.399 161.625 424.632C160.744 424.758 159.845 424.83 158.963 424.902C157.938 424.992 156.716 425.244 155.709 425.082C154.576 424.902 154.054 422.834 153.928 421.863C153.677 420.083 154.18 418.356 155.205 416.9C155.906 415.911 155.385 414.4 154.396 413.825C153.281 413.159 152.022 413.627 151.321 414.634C148.641 418.446 148.641 424.434 151.914 427.923C153.856 429.973 156.59 429.613 159.143 429.398C161.697 429.182 164.268 429.038 166.48 427.797C168.692 426.556 170.041 424.291 171.03 422.079C172.109 419.669 172.792 417.044 172.54 414.382C172.127 410.03 169.142 405.679 164.61 404.941C163.081 404.69 161.571 404.834 160.276 405.769C159.197 406.542 158.226 407.513 157.309 408.484C156.266 409.563 155.331 410.714 154.414 411.919C153.73 412.818 153.065 413.807 152.076 414.418C149.612 415.929 151.878 419.813 154.342 418.302L154.324 418.248Z" fill="#171717"/>
<path d="M156.752 426.053C156.464 423.967 156.824 421.791 157.777 419.903C157.921 419.597 158.1 419.309 158.37 419.094C158.676 418.86 159.054 418.77 159.449 418.77C160.798 418.77 162.075 419.885 162.201 421.234C162.326 422.582 161.337 423.949 160.007 424.201" fill="#BECBEB"/>
<path d="M161.247 426.053C161.121 425.118 161.121 424.165 161.247 423.212L161.085 424.398C161.211 423.499 161.445 422.618 161.787 421.791L161.337 422.87C161.517 422.42 161.715 421.971 162.02 421.593L161.319 422.51C161.319 422.51 161.463 422.348 161.553 422.276L160.636 422.978C160.726 422.906 160.816 422.852 160.923 422.798L159.845 423.248C159.988 423.194 160.132 423.158 160.276 423.122L159.089 423.284C159.305 423.248 159.521 423.248 159.737 423.284L158.55 423.122C158.784 423.158 158.999 423.212 159.233 423.302L158.154 422.852C158.406 422.96 158.64 423.086 158.855 423.248L157.938 422.546C158.118 422.69 158.28 422.852 158.442 423.05L157.741 422.133C157.902 422.348 158.046 422.582 158.154 422.816L157.705 421.737C157.777 421.935 157.83 422.115 157.866 422.312L157.705 421.126C157.741 421.359 157.741 421.593 157.705 421.827L157.866 420.64C157.83 420.874 157.759 421.09 157.687 421.323L158.136 420.244C158.028 420.496 157.884 420.73 157.723 420.946L158.424 420.029C158.28 420.208 158.118 420.37 157.92 420.532L158.837 419.831C158.64 419.975 158.442 420.083 158.226 420.191L159.305 419.741C159.143 419.813 158.981 419.849 158.82 419.885C157.759 420.119 156.68 421.018 156.14 421.953C155.601 422.888 155.331 424.344 155.691 425.423C156.05 426.502 156.716 427.563 157.759 428.103C158.855 428.678 159.988 428.822 161.229 428.552C162.47 428.283 163.531 427.581 164.448 426.754C164.898 426.341 165.275 425.819 165.617 425.316C165.959 424.812 166.21 424.165 166.39 423.625C166.606 423.032 166.66 422.366 166.714 421.755C166.768 421.144 166.642 420.46 166.516 419.849C166.39 419.237 166.102 418.662 165.833 418.105C165.563 417.547 165.113 417.026 164.7 416.576C163.009 414.67 160.168 413.897 157.741 414.508C156.769 414.76 155.942 415.281 155.205 415.929C154.827 416.252 154.558 416.684 154.27 417.08C154.162 417.223 154.072 417.349 154 417.511C153.515 418.41 153.119 419.381 152.813 420.352C152.472 421.431 152.328 422.582 152.22 423.697C152.148 424.488 152.166 425.298 152.274 426.089C152.256 426.7 152.382 427.294 152.669 427.815C152.849 428.373 153.155 428.858 153.605 429.254C154.378 430.027 155.673 430.62 156.787 430.566C157.902 430.512 159.161 430.135 159.97 429.254L160.672 428.337C161.085 427.635 161.283 426.88 161.283 426.071L161.247 426.053Z" fill="#171717"/>
<path d="M129.615 360.74C127.44 378.057 131.791 396.129 141.61 410.569C148.569 401.992 155.33 392.659 157.255 381.779C158.675 373.777 155.025 364.462 153.712 356.442" fill="#171717"/>
<path d="M125.121 360.74C122.945 378.866 127.531 397.694 137.727 412.835C139.183 414.993 142.852 416.144 144.794 413.752C151.411 405.57 157.849 396.903 160.744 386.635C163.801 375.827 159.845 365.883 158.029 355.273C157.615 352.882 154.666 351.533 152.49 352.126C149.955 352.828 148.948 355.255 149.343 357.665C150.872 366.548 154.594 375.216 152.059 384.261C149.523 393.306 144.021 400.481 138.41 407.423L145.477 408.34C136.054 394.331 132.098 377.536 134.112 360.776C134.4 358.366 131.846 356.28 129.617 356.28C126.937 356.28 125.409 358.348 125.121 360.776V360.74Z" fill="#171717"/>
<path d="M130.083 360.147C130.389 366.656 132.763 373.058 136.773 378.201C138.067 379.856 139.668 381.474 141.718 381.852C143.786 382.247 145.944 381.294 147.436 379.82C148.929 378.345 149.882 376.403 150.691 374.461C152.795 369.336 154.09 363.833 154.072 358.295C154.072 357.665 155.241 356.317 154.899 355.795C154.288 354.86 151.77 355.399 150.637 355.399C146.627 355.363 142.635 355.309 138.625 355.274C135.406 355.238 130.101 356.55 128.249 359.176" fill="#BECBEB"/>
<path d="M126.703 360.147C127.08 367.106 129.382 373.957 133.59 379.55C135.802 382.481 138.625 385.268 142.545 385.322C146.465 385.376 149.684 382.913 151.77 379.802C153.73 376.87 154.917 373.202 155.852 369.821C156.32 368.095 156.697 366.333 156.949 364.552C157.093 363.617 157.201 362.664 157.291 361.711C157.327 361.226 157.363 360.74 157.399 360.255C157.399 359.931 157.435 359.607 157.435 359.283C157.507 358.762 157.489 358.636 157.399 358.906C157.453 359.014 156.949 359.769 157.327 359.104C157.471 358.852 157.597 358.582 157.722 358.33C158.082 357.557 158.352 356.838 158.334 355.975C158.28 353.475 156.104 352.144 153.874 351.929C152.867 351.839 151.878 352.001 150.871 352.036C148.893 352.108 146.879 352.001 144.901 351.983C138.139 351.911 129.903 351.407 125.354 357.485C124.257 358.942 125.12 361.244 126.559 362.107C128.285 363.114 130.083 362.358 131.18 360.902C130.803 361.423 131.486 360.65 131.666 360.506C131.252 360.83 132.169 360.219 132.349 360.129C133.212 359.661 133.59 359.535 134.705 359.23C135.172 359.104 135.64 358.996 136.107 358.888C136.341 358.834 136.575 358.798 136.809 358.762C137.384 358.672 136.377 358.798 136.935 358.762C138.032 358.654 139.11 358.672 140.207 358.69C142.995 358.726 145.782 358.744 148.551 358.78C149.648 358.78 150.745 358.816 151.842 358.726C152.274 358.69 152.687 358.672 153.119 358.654C153.353 358.654 153.658 358.798 153.407 358.654C153.137 358.474 152.777 358.528 152.525 358.222L151.662 356.73C151.518 356.19 151.554 355.687 151.788 355.219C151.698 355.399 151.608 355.561 151.518 355.741C151.267 356.226 151.015 356.73 150.871 357.251C150.583 358.366 150.727 359.643 150.655 360.776C150.511 363.078 150.098 365.344 149.504 367.573C148.911 369.803 148.228 371.979 147.275 374.029C146.501 375.719 145.494 377.662 143.696 378.399C143.139 378.633 142.779 378.669 142.239 378.525C141.502 378.327 140.891 377.752 140.279 377.122C138.877 375.648 137.762 373.849 136.809 372.051C134.849 368.383 133.716 364.265 133.482 360.165C133.374 358.348 132.007 356.784 130.101 356.784C128.357 356.784 126.631 358.33 126.721 360.165L126.703 360.147Z" fill="#171717"/>
<path d="M141.288 415.785C139.975 411.559 136.846 400.985 132.477 397.622C139.652 397.263 146.881 397.281 154.056 397.658C148.643 402.837 144.885 410.048 141.288 415.785Z" fill="#BECBEB"/>
<path d="M142.384 415.497C141.359 412.242 140.334 408.969 139.003 405.822C137.673 402.675 136.054 399.043 133.285 396.849L132.494 398.773C139.687 398.431 146.88 398.431 154.073 398.809L153.281 396.885C147.851 402.154 144.308 408.897 140.334 415.245C139.561 416.468 141.503 417.601 142.276 416.378C146.142 410.192 149.577 403.61 154.882 398.467C155.619 397.766 155.026 396.597 154.091 396.543C146.898 396.183 139.705 396.165 132.512 396.507C131.648 396.543 130.893 397.766 131.72 398.431C134.346 400.517 135.838 403.934 137.079 406.955C138.32 409.976 139.273 413.015 140.226 416.09C140.658 417.475 142.834 416.881 142.402 415.497H142.384Z" fill="#171717"/>
</g>
<defs>
<clipPath id="clip0_6174_7985">
<rect width="280" height="450.485" fill="white" transform="translate(0 0.524902)"/>
</clipPath>
</defs>
</svg>
