<svg width="280" height="502" viewBox="0 0 280 502" fill="none" xmlns="http://www.w3.org/2000/svg">
<g clip-path="url(#clip0_6174_7983)">
<path d="M62.0348 142.339C61.9899 119.13 59.9494 107.717 62.573 84.6881C65.1965 61.6593 73.1568 38.2269 90.0192 22.2838C106.859 6.34082 133.991 -0.027422 154.016 11.6776C167.156 19.3464 175.407 33.2265 181.394 47.2187C195.813 80.9434 200.14 117.964 209.626 153.371C217.698 183.441 229.515 212.457 236.152 242.885C242.79 273.291 243.844 306.186 230.883 334.485C219.312 359.756 196.598 379.668 170.048 387.875C153.029 393.122 134.933 393.705 117.129 393.144C97.1498 392.539 76.4306 390.319 59.2991 380.027C51.4061 375.295 44.567 368.972 38.4902 362.065C1.26741 319.82 -4.8766 253.447 23.0181 204.541C35.1716 183.239 52.9533 165.121 62.0348 142.339Z" fill="#BECBEB"/>
<path d="M67.641 142.339C67.5961 126.822 66.2507 111.305 67.1925 95.81C68.1343 80.3379 70.7354 64.5743 77.2157 50.3578C83.2925 37.0159 92.4861 25.0642 105.492 17.956C117.241 11.5429 131.57 9.14364 144.441 13.4041C158.456 18.0682 167.425 30.8943 173.614 43.6084C181.171 59.0805 185.902 75.9429 189.938 92.6259C194.131 109.982 197.45 127.539 201.666 144.895C205.881 162.251 211.711 180.055 217.34 197.455C228.192 230.889 238.619 265.645 234.336 301.186C230.681 331.457 213.998 358.545 187.539 374.039C173.547 382.224 157.85 386.103 141.75 387.224C124.753 388.413 106.837 388.144 90.0195 385.072C82.0144 383.614 74.0316 381.394 66.7216 377.717C59.4116 374.039 53.0433 369.084 47.2805 363.299C37.1003 353.051 29.0279 340.92 23.0633 327.802C11.5152 302.464 8.33111 272.977 13.7351 245.71C16.4932 231.785 21.3815 218.376 28.5346 206.111C36.8088 191.939 47.3478 179.292 56.1602 165.479C60.5552 158.573 64.3447 151.398 67.4167 143.818C68.5603 141.016 66.1834 137.652 63.4926 136.912C60.2861 136.038 57.7298 138.011 56.5862 140.836C50.218 156.577 39.4323 170.121 29.723 183.867C20.0137 197.612 12.3225 210.932 7.20994 226.404C-2.34243 255.263 -2.32 287.418 6.78389 316.389C11.3134 330.83 18.0853 344.687 27.1219 356.886C37.3245 370.654 49.9265 382.852 65.8695 389.646C81.8125 396.44 100.76 398.346 118.654 398.817C137.423 399.311 156.796 398.481 174.69 392.247C204.917 381.731 229.134 357.536 239.718 327.376C252.006 292.396 245.884 254.029 235.861 219.34C230.502 200.819 224.022 182.633 218.483 164.157C212.945 145.68 209.177 127.674 205.164 109.242C201.15 90.8096 197.001 72.7812 190.544 55.2686C184.826 39.7516 177.538 23.4498 164.667 12.5072C139.329 -9.10899 101.343 -0.139637 80.8483 23.7861C58.851 49.4609 54.7924 85.0244 55.8014 117.583C56.0705 125.835 56.3844 134.087 56.4293 142.339C56.4517 149.559 67.6634 149.559 67.641 142.339Z" fill="#171717"/>
<path d="M124.014 188.889C129.373 162.744 158.321 143.998 184.355 149.783C186.597 150.276 188.885 150.927 191.127 150.501C194.513 149.85 196.89 146.935 199.289 144.469C209.066 134.423 222.834 129.49 236.063 124.893C226.04 120.274 214.873 114.376 212.16 103.681C208.438 89.1053 225.098 75.2925 239.965 77.5797C254.832 79.8669 265.842 93.2088 270.909 107.38C274.945 118.659 276.022 131.553 270.909 142.361C269.407 145.523 267.389 148.55 267.052 152.025C266.739 155.052 267.77 158.035 268.488 160.995C273.286 180.548 264.205 202.725 247.051 213.264C240.481 217.322 232.924 219.766 226.847 224.543C220.165 229.79 215.793 237.391 210.164 243.759C192.27 264.008 160.205 270.062 136.167 257.707" fill="#BECBEB"/>
<path d="M129.418 190.37C132.692 175.099 144.486 162.497 159.106 157.183C166.17 154.627 173.928 153.483 181.373 154.873C186.844 155.882 191.979 157.25 197.047 154.021C201.24 151.331 204.177 147.07 208.124 144.065C216.802 137.45 227.363 133.84 237.566 130.297C241.669 128.862 243.62 122.225 238.911 120.05C230.794 116.305 218.461 110.991 217.273 100.743C216.286 92.1776 225.166 84.9348 233.238 83.2755C243.037 81.2574 252.612 88.1862 258.285 95.6084C265.393 104.892 269.385 117.157 268.667 128.84C268.488 131.777 267.86 134.648 266.918 137.428C265.842 140.567 264.003 143.393 262.747 146.487C259.944 153.483 262.949 159.515 263.846 166.466C265.191 176.736 262.456 187.275 256.895 195.908C254.249 200.034 250.84 203.779 246.894 206.671C241.602 210.573 235.346 212.86 229.65 216.044C223.955 219.229 219.336 223.354 215.277 228.355C211.218 233.355 207.9 238.333 203.46 242.683C186.911 258.895 159.712 263.335 138.97 252.864C132.535 249.612 126.862 259.299 133.319 262.551C155.922 273.964 184.624 271.453 204.873 256.137C209.985 252.281 214.245 247.841 218.17 242.773C222.318 237.414 226.287 231.517 232.027 227.705C238.126 223.646 245.167 221.314 251.244 217.255C256.76 213.578 261.402 208.914 265.236 203.532C272.501 193.374 276.291 180.212 275.215 167.722C274.946 164.605 274.43 161.533 273.667 158.506C272.726 154.739 272.255 152.138 274.049 148.595C277.569 141.644 279.834 134.782 279.991 126.911C280.26 112.785 274.946 98.4113 266.111 87.4463C258.33 77.8042 246.042 70.3372 233.261 71.9517C219.672 73.6559 206.195 84.8003 206.061 99.3082C205.926 115.005 220.771 123.929 233.283 129.692L234.628 119.444C224.695 122.898 214.537 126.441 205.657 132.181C201.173 135.096 197.316 138.549 193.571 142.361C192.315 143.639 191.127 145.007 189.243 145.007C186.934 145.007 184.467 144.02 182.158 143.707C164.196 141.173 145.742 148.169 133.118 161.062C126.009 168.305 120.785 177.431 118.655 187.387C117.152 194.428 127.96 197.433 129.463 190.37H129.418Z" fill="#171717"/>
<path d="M120.09 65.561L133.589 82.0422C134.104 82.67 134.643 83.3203 135.405 83.5669C136.369 83.8809 137.401 83.4772 138.342 83.1185C155.182 76.6157 174.489 76.9072 191.037 71.7722C193.437 71.0323 195.657 68.6554 195.275 66.1664C195.006 64.4846 193.504 63.2738 191.979 62.489C185.275 59.103 177.74 64.1483 170.229 63.9913C162.022 63.8344 151.909 64.6192 144.442 65.5161" fill="#BECBEB"/>
<path d="M117.106 68.5429L128.475 82.423C130.067 84.3738 131.681 86.9301 134.282 87.6252C137.085 88.3876 139.642 87.0422 142.22 86.1677C152.401 82.7145 163.164 81.4588 173.725 79.7771C178.838 78.9698 183.928 78.0729 188.928 76.7275C193.547 75.4942 198.144 73.5433 199.265 68.386C200.387 63.2286 196.261 59.4615 191.821 57.9367C187.157 56.3222 182.201 57.4882 177.582 58.6318C172.156 59.9548 166.886 59.7081 161.347 59.9324C155.809 60.1566 150.024 60.6499 144.395 61.3226C142.131 61.5917 140.18 63.0716 140.18 65.5382C140.18 67.6012 142.108 70.0229 144.395 69.7538C153.297 68.6999 162.132 68.5654 171.079 68.229C175.766 68.0496 180.071 66.3006 184.645 65.6952C186.35 65.4709 188.188 65.4261 189.803 66.1661C190.094 66.3006 190.902 66.6369 191.103 66.9957C191.171 66.4351 191.126 66.3903 190.969 66.906C190.789 67.1527 190.543 67.3769 190.274 67.5339C188.861 68.5429 186.036 68.8344 184.376 69.2381C182.179 69.7538 179.981 70.2247 177.761 70.6283C172.918 71.5252 168.03 72.2204 163.164 72.9828C158.589 73.7003 154.015 74.4403 149.486 75.4493C147.243 75.9651 145.001 76.5257 142.781 77.1759C140.561 77.8262 137.601 79.6201 135.381 79.3734L137.511 79.9564C136.233 79.2837 135.314 77.602 134.417 76.4808L130.515 71.7046L123.071 62.6007C121.613 60.8293 118.631 61.1208 117.129 62.6007C115.38 64.3273 115.693 66.7939 117.129 68.5429H117.106Z" fill="#171717"/>
<path d="M149.193 92.7606L176.931 86.0785C181.999 84.8676 188.12 82.5131 188.636 77.3109" fill="#BECBEB"/>
<path d="M150.315 96.8191C159.307 94.644 168.299 92.4914 177.291 90.3163C183.547 88.8139 191.664 85.8092 192.673 78.4319C192.987 76.1895 192.135 73.9248 189.736 73.2521C187.785 72.7139 184.87 73.9248 184.556 76.1895C184.242 78.4543 183.121 79.3064 180.766 80.4051C178.143 81.6384 174.936 82.2214 172.044 82.9166L148.051 88.7018C142.781 89.9575 145.024 98.0748 150.293 96.8191H150.315Z" fill="#171717"/>
<path d="M111.254 46.9269C121.322 43.5633 131.928 41.8367 142.557 41.8816C143.588 41.8816 144.777 41.9713 145.427 42.8009C146.145 43.7203 145.808 45.0433 145.293 46.0748C142.176 52.3533 134.215 45.4245 133.834 42.2628" fill="#BECBEB"/>
<path d="M112.733 52.3308C117.465 50.7612 122.308 49.5279 127.219 48.6982C129.775 48.2497 131.121 48.0928 133.789 47.8461C136.278 47.6219 138.767 47.5098 141.256 47.4873C141.839 47.4873 142.422 47.4873 143.005 47.4873L142.422 47.3752C143.498 47.734 143.207 47.2183 141.525 45.8056C140.494 45.2674 140.068 44.5275 140.225 43.6305C140.449 43.1821 140.471 43.1148 140.314 43.4287C140.381 44.0566 139.664 43.9893 140.404 43.4287C139.462 44.1463 141.391 42.8905 140.471 43.3614C141.301 43.0475 141.503 42.9578 141.077 43.0699C140.651 43.1821 140.875 43.1596 141.817 42.9802C140.494 43.1596 142.22 42.8905 142.041 43.0699C141.974 43.1372 141.077 42.8009 141.077 42.7784C141.077 42.8233 142.31 43.4736 141.323 42.8233C141.032 42.6439 140.718 42.3972 140.404 42.2627C139.821 42.016 141.256 43.0475 140.538 42.3748C140.292 42.1282 140.023 41.9039 139.776 41.6573C139.642 41.5227 139.148 41.0967 139.103 40.8949C139.619 41.5676 139.754 41.7245 139.507 41.3882C139.417 41.2761 139.35 41.1415 139.26 41.007C139.036 40.6034 138.408 39.8185 139.35 41.3882C139.238 41.2088 139.215 40.9397 139.193 40.7379C138.722 37.8453 134.955 35.9617 132.287 36.8138C129.147 37.8229 127.869 40.6034 128.363 43.7202C129.103 48.2946 134.193 52.4653 138.386 53.721C141.189 54.5507 144.171 54.2816 146.638 52.6896C149.934 50.5593 152.086 46.0522 151.145 42.1506C150.001 37.3968 145.472 36.2308 141.211 36.2756C137.736 36.3205 134.282 36.5447 130.852 36.9483C123.654 37.8004 116.613 39.258 109.729 41.5451C106.948 42.4645 104.84 45.4468 105.805 48.4515C106.702 51.232 109.729 53.3623 112.711 52.3756L112.733 52.3308Z" fill="#171717"/>
<path d="M169.396 42.0166C170.518 42.0166 179.151 39.1913 180.272 39.1913L169.396 42.0166Z" fill="#BECBEB"/>
<path d="M169.398 47.6219C171.596 47.577 173.883 46.7249 175.968 46.1195C177.089 45.8056 178.188 45.4692 179.309 45.1553C180.049 44.9535 180.812 44.7068 181.597 44.6171L180.117 44.8189C180.117 44.8189 180.229 44.8189 180.274 44.8189C181.731 44.7965 183.211 44.2135 184.242 43.182C185.207 42.2178 185.947 40.6033 185.879 39.2131C185.812 37.8228 185.341 36.2532 184.242 35.2442C183.144 34.2351 181.776 33.5848 180.274 33.6073C178.076 33.6521 175.789 34.5042 173.703 35.1096C172.582 35.4235 171.484 35.7599 170.362 36.0738C169.622 36.2756 168.86 36.5223 168.075 36.612L169.555 36.4102C169.555 36.4102 169.443 36.4102 169.398 36.4102C167.941 36.4326 166.461 37.0156 165.429 38.0471C164.465 39.0113 163.725 40.6258 163.792 42.016C163.86 43.4063 164.331 44.9759 165.429 45.985C166.528 46.994 167.896 47.6443 169.398 47.6219Z" fill="#171717"/>
<path d="M77.4846 394.714C66.8783 427.788 58.7386 461.513 53.1104 495.596L77.4846 394.714Z" fill="#BECBEB"/>
<path d="M72.0805 393.211C61.5415 426.196 53.3794 459.921 47.7063 494.094C47.213 497.077 48.4911 500.126 51.6304 501.001C54.3212 501.741 58.0211 500.081 58.5368 497.077C64.2099 462.903 72.3496 429.178 82.911 396.194C85.1085 389.31 74.3004 386.35 72.103 393.211H72.0805Z" fill="#171717"/>
<path d="M173.905 390.005C175.542 420.994 177.202 451.961 178.838 482.95L173.905 390.005Z" fill="#BECBEB"/>
<path d="M168.299 390.005C169.935 420.994 171.595 451.961 173.232 482.95C173.613 490.125 184.825 490.17 184.443 482.95C182.806 451.961 181.147 420.994 179.51 390.005C179.129 382.83 167.917 382.785 168.299 390.005Z" fill="#171717"/>
</g>
<defs>
<clipPath id="clip0_6174_7983">
<rect width="280" height="500.931" fill="white" transform="translate(0 0.244873)"/>
</clipPath>
</defs>
</svg>
