<svg width="20" height="20" viewBox="0 0 20 20" fill="none" xmlns="http://www.w3.org/2000/svg">
<path d="M9.63056 7.22296C9.76915 6.89863 10.2292 6.89937 10.3667 7.22414L11.1058 8.96913C11.1637 9.10597 11.2928 9.19941 11.4409 9.21175L12.2 9.27501L13.3148 9.36979C13.6672 9.39975 13.8102 9.83877 13.543 10.0705L12.1147 11.3093C12.0031 11.4062 11.9539 11.5567 11.9869 11.7007L12.1584 12.45L12.4107 13.5359C12.4907 13.8804 12.1171 14.1517 11.8143 13.9689L10.8584 13.3917L10.2078 12.9875C10.0803 12.9082 9.91908 12.9071 9.79042 12.9845L9.14169 13.375L8.18573 13.9522C7.88295 14.135 7.50931 13.8637 7.58937 13.5192L7.84169 12.4333L8.01313 11.6841C8.04609 11.54 7.99694 11.3895 7.8853 11.2927L6.45707 10.0539C6.18989 9.8221 6.33286 9.38308 6.68527 9.35312L7.80002 9.25834L8.55914 9.19508C8.70726 9.18274 8.83632 9.08929 8.89427 8.95243L9.19169 8.25001L9.63056 7.22296ZM10.3683 2.95229C10.2305 2.62708 9.76957 2.62708 9.63173 2.95229L7.75248 7.38626C7.69459 7.52286 7.56584 7.61619 7.41801 7.62873L2.61134 8.03653C2.25877 8.06644 2.11581 8.50575 2.38324 8.73743L6.03421 11.9003C6.14643 11.9975 6.19557 12.1489 6.16184 12.2935L5.06539 16.9935C4.985 17.3381 5.35869 17.6097 5.66162 17.4268L9.79333 14.9331C9.92044 14.8564 10.0796 14.8564 10.2067 14.9331L14.3384 17.4268C14.6413 17.6097 15.015 17.3381 14.9347 16.9935L13.8382 12.2935C13.8045 12.1489 13.8536 11.9975 13.9658 11.9003L17.6168 8.73743C17.8842 8.50575 17.7413 8.06644 17.3887 8.03653L12.582 7.62873C12.4342 7.61619 12.3055 7.52286 12.2476 7.38626L10.3683 2.95229Z" fill="#171717"/>
</svg>
