<svg width="16" height="16" viewBox="0 0 16 16" fill="none" xmlns="http://www.w3.org/2000/svg">
<path d="M4 1.4C4 1.95229 3.55228 2.4 3 2.4H1C0.447715 2.4 0 1.95228 0 1.4V0.999999C0 0.447715 0.447715 0 1 0H3C3.55228 0 4 0.447715 4 1V1.4ZM0 15C0 15.5523 0.447715 16 1 16H3C3.55228 16 4 15.5523 4 15V14.6C4 14.0477 3.55228 13.6 3 13.6H1C0.447715 13.6 0 14.0477 0 14.6V15ZM10 0.999999C10 0.447715 9.55229 0 9 0H7C6.44772 0 6 0.447715 6 1V1.4C6 1.95229 6.44772 2.4 7 2.4H9C9.55229 2.4 10 1.95228 10 1.4V0.999999ZM6 15C6 15.5523 6.44772 16 7 16H9C9.55229 16 10 15.5523 10 15V14.6C10 14.0477 9.55229 13.6 9 13.6H8H7C6.44772 13.6 6 14.0477 6 14.6V15ZM13 0C12.4477 0 12 0.447715 12 1V1.4C12 1.95229 12.4477 2.4 13 2.4H15C15.5523 2.4 16 1.95228 16 1.4V0.999999C16 0.447715 15.5523 0 15 0H13ZM13 6.2C13 6.75229 12.5523 7.2 12 7.2H10C9.44771 7.2 9 6.75229 9 6.2V2.4H7V6.2C7 6.75229 6.55228 7.2 6 7.2H4C3.44772 7.2 3 6.75229 3 6.2V4.4V2.4H1V13.6H3V11.2V9.8C3 9.24771 3.44772 8.8 4 8.8H6C6.55228 8.8 7 9.24772 7 9.8V13.6H9V9.8C9 9.24771 9.44772 8.8 10 8.8H14C14.5523 8.8 15 8.35229 15 7.8V2.4H13V6.2Z" fill="#434343"/>
</svg>
