<svg width="21" height="20" viewBox="0 0 21 20" fill="none" xmlns="http://www.w3.org/2000/svg">
<path d="M16.333 6.67611L12.9997 10.0094H15.4997C15.4997 12.7678 13.258 15.0094 10.4997 15.0094C9.65801 15.0094 8.85801 14.8011 8.16634 14.4261L6.94967 15.6428C7.97467 16.2928 9.19134 16.6761 10.4997 16.6761C14.183 16.6761 17.1663 13.6928 17.1663 10.0094H19.6663L16.333 6.67611ZM5.49967 10.0094C5.49967 7.25111 7.74134 5.00944 10.4997 5.00944C11.3413 5.00944 12.1413 5.21777 12.833 5.59277L14.0497 4.37611C13.0247 3.72611 11.808 3.34277 10.4997 3.34277C6.81634 3.34277 3.83301 6.32611 3.83301 10.0094H1.33301L4.66634 13.3428L7.99967 10.0094H5.49967Z" fill="#0093B3"/>
</svg>
