<svg width="20" height="20" viewBox="0 0 20 20" fill="none" xmlns="http://www.w3.org/2000/svg">
<g id="update">
<path id="Vector" d="M15.8333 6.66707L12.5 10.0004H15C15 12.7587 12.7583 15.0004 9.99998 15.0004C9.15831 15.0004 8.35831 14.7921 7.66665 14.4171L6.44998 15.6337C7.47498 16.2837 8.69165 16.6671 9.99998 16.6671C13.6833 16.6671 16.6666 13.6837 16.6666 10.0004H19.1666L15.8333 6.66707ZM4.99998 10.0004C4.99998 7.24207 7.24165 5.00041 9.99998 5.00041C10.8416 5.00041 11.6416 5.20874 12.3333 5.58374L13.55 4.36707C12.525 3.71707 11.3083 3.33374 9.99998 3.33374C6.31665 3.33374 3.33331 6.31707 3.33331 10.0004H0.833313L4.16665 13.3337L7.49998 10.0004H4.99998Z" fill="#0093B3"/>
</g>
</svg>
