<svg width="24" height="24" viewBox="0 0 24 24" fill="none" xmlns="http://www.w3.org/2000/svg">
<path d="M7.96485 6.20395C7.779 6.1769 7.58948 6.21431 7.42785 6.30995H7.41385C7.03885 6.52995 6.70085 6.80695 6.41285 7.13295C6.17285 7.40995 6.04285 7.68995 6.00885 7.95995C5.98885 8.11995 6.00285 8.28195 6.04985 8.43495L6.06785 8.44495C6.33785 9.23795 6.68985 10.001 7.11985 10.719C7.6743 11.7274 8.3566 12.6601 9.14985 13.494L9.17385 13.528L9.21185 13.556L9.23485 13.583L9.26285 13.607C10.0996 14.4026 11.0345 15.0881 12.0448 15.647C13.1998 16.276 13.9008 16.573 14.3218 16.697V16.703C14.4448 16.741 14.5568 16.758 14.6698 16.758C15.0284 16.7315 15.3678 16.5857 15.6338 16.344C15.9588 16.056 16.2338 15.717 16.4478 15.34V15.333C16.6488 14.953 16.5808 14.595 16.2908 14.352C15.7083 13.843 15.0785 13.3909 14.4098 13.002C13.9618 12.759 13.5068 12.906 13.3228 13.152L12.9298 13.648C12.7278 13.894 12.3618 13.86 12.3618 13.86L12.3518 13.866C9.62085 13.169 8.89185 10.404 8.89185 10.404C8.89185 10.404 8.85785 10.028 9.11085 9.83595L9.60285 9.43995C9.83885 9.24795 10.0028 8.79395 9.74985 8.34595C9.36345 7.67672 8.91229 7.04703 8.40285 6.46595C8.29174 6.3292 8.13591 6.23606 7.96285 6.20295L7.96485 6.20395ZM12.5798 5.00195C12.4472 5.00195 12.3201 5.05463 12.2263 5.1484C12.1325 5.24217 12.0798 5.36934 12.0798 5.50195C12.0798 5.63456 12.1325 5.76174 12.2263 5.85551C12.3201 5.94927 12.4472 6.00195 12.5798 6.00195C13.8438 6.00195 14.8938 6.41495 15.7248 7.20695C16.1518 7.63995 16.4848 8.15295 16.7028 8.71495C16.9218 9.27795 17.0218 9.87895 16.9958 10.481C16.9903 10.6136 17.0376 10.743 17.1274 10.8407C17.2173 10.9384 17.3422 10.9964 17.4748 11.002C17.6075 11.0075 17.7368 10.9602 17.8346 10.8704C17.9323 10.7805 17.9903 10.6556 17.9958 10.523C18.0269 9.78244 17.9039 9.04354 17.6348 8.35295C17.3646 7.65909 16.9548 7.02807 16.4308 6.49895L16.4208 6.48895C15.3898 5.50395 14.0858 5.00195 12.5798 5.00195Z" fill="#434343"/>
<path d="M12.5449 6.64553C12.4123 6.64553 12.2851 6.69821 12.1914 6.79198C12.0976 6.88575 12.0449 7.01292 12.0449 7.14553C12.0449 7.27814 12.0976 7.40532 12.1914 7.49908C12.2851 7.59285 12.4123 7.64553 12.5449 7.64553H12.5619C13.4739 7.71053 14.1379 8.01453 14.6029 8.51353C15.0799 9.02753 15.3269 9.66653 15.3079 10.4565C15.3049 10.5891 15.3546 10.7175 15.4462 10.8135C15.5378 10.9094 15.6638 10.965 15.7964 10.968C15.929 10.9711 16.0574 10.9213 16.1533 10.8297C16.2493 10.7381 16.3049 10.6121 16.3079 10.4795C16.3319 9.44253 15.9979 8.54753 15.3359 7.83353V7.83153C14.6589 7.10553 13.7299 6.72153 12.6119 6.64653L12.5949 6.64453L12.5449 6.64553Z" fill="#434343"/>
<path d="M12.5264 8.32127C12.4595 8.31537 12.392 8.32301 12.3281 8.34373C12.2642 8.36446 12.2052 8.39785 12.1545 8.44191C12.1038 8.48597 12.0625 8.53979 12.033 8.60017C12.0036 8.66055 11.9866 8.72624 11.9831 8.79332C11.9796 8.8604 11.9897 8.9275 12.0127 8.99061C12.0357 9.05372 12.0712 9.11155 12.117 9.16064C12.1629 9.20973 12.2182 9.24907 12.2795 9.27633C12.3409 9.30358 12.4072 9.31819 12.4744 9.31927C12.8924 9.34127 13.1594 9.46727 13.3274 9.63627C13.4964 9.80627 13.6224 10.0793 13.6454 10.5063C13.6466 10.5734 13.6614 10.6395 13.6887 10.7008C13.7161 10.7621 13.7555 10.8172 13.8046 10.863C13.8537 10.9087 13.9116 10.9441 13.9747 10.967C14.0377 10.9899 14.1048 10.9998 14.1718 10.9963C14.2388 10.9927 14.3044 10.9757 14.3647 10.9462C14.425 10.9168 14.4788 10.8755 14.5228 10.8248C14.5668 10.7742 14.6002 10.7151 14.6209 10.6513C14.6416 10.5875 14.6492 10.5201 14.6434 10.4533C14.6114 9.85327 14.4234 9.32327 14.0384 8.93327C13.6514 8.54327 13.1244 8.35327 12.5264 8.32127Z" fill="#434343"/>
<path fill-rule="evenodd" clip-rule="evenodd" d="M7.06681 2.38601C10.2489 1.67472 13.5487 1.67472 16.7308 2.38601L17.0698 2.46101C18 2.66896 18.8543 3.13074 19.5379 3.79503C20.2214 4.45933 20.7074 5.30013 20.9418 6.22401C21.7495 9.4069 21.7495 12.7411 20.9418 15.924C20.7074 16.8479 20.2214 17.6887 19.5379 18.353C18.8543 19.0173 18 19.4791 17.0698 19.687L16.7298 19.762C14.7368 20.2077 12.6918 20.3756 10.6528 20.261L7.99981 22.635C7.89979 22.7246 7.77757 22.7856 7.6459 22.8118C7.51423 22.838 7.37794 22.8284 7.25126 22.784C7.12457 22.7395 7.01214 22.6619 6.9257 22.5592C6.83925 22.4565 6.78196 22.3324 6.75981 22.2L6.32081 19.578C5.47899 19.3161 4.71842 18.8426 4.11178 18.2029C3.50514 17.5632 3.07271 16.7785 2.85581 15.924C2.04806 12.7411 2.04806 9.4069 2.85581 6.22401C3.09023 5.30013 3.57621 4.45933 4.25974 3.79503C4.94328 3.13074 5.79761 2.66896 6.72781 2.46101L7.06681 2.38601ZM16.4038 3.84901C13.4371 3.18582 10.3605 3.18582 7.39381 3.84901L7.05381 3.92501C6.39453 4.07267 5.78908 4.40017 5.30468 4.87114C4.82029 5.34212 4.47592 5.93814 4.30981 6.59301C3.56352 9.53374 3.56352 12.6143 4.30981 15.555C4.476 16.21 4.82052 16.8061 5.3051 17.2771C5.78968 17.7481 6.39535 18.0755 7.05481 18.223L7.14481 18.243C7.2904 18.2756 7.42298 18.3508 7.52558 18.4591C7.62819 18.5674 7.69616 18.7039 7.72081 18.851L8.01481 20.609L9.88681 18.934C9.96157 18.8669 10.049 18.8155 10.144 18.7829C10.239 18.7503 10.3396 18.737 10.4398 18.744C12.4389 18.8858 14.4479 18.7359 16.4038 18.299L16.7428 18.223C17.4023 18.0755 18.0079 17.7481 18.4925 17.2771C18.9771 16.8061 19.3216 16.21 19.4878 15.555C20.2338 12.615 20.2338 9.53401 19.4878 6.59301C19.3216 5.93801 18.9771 5.3419 18.4925 4.87092C18.0079 4.39993 17.4023 4.0725 16.7428 3.92501L16.4038 3.84901Z" fill="#434343"/>
</svg>
