<svg width="32" height="33" viewBox="0 0 32 33" fill="none" xmlns="http://www.w3.org/2000/svg">
<g id="add_photo_alternate">
<path id="Vector" d="M27.3599 7.70843H24.6666V5.0151C24.6666 4.2951 24.0799 3.70844 23.3599 3.70844H23.3199C22.5866 3.70844 21.9999 4.2951 21.9999 5.0151V7.70843H19.3199C18.5999 7.70843 18.0133 8.2951 17.9999 9.0151V9.0551C17.9999 9.78843 18.5866 10.3751 19.3199 10.3751H21.9999V13.0551C21.9999 13.7751 22.5866 14.3751 23.3199 14.3618H23.3599C24.0799 14.3618 24.6666 13.7751 24.6666 13.0551V10.3751H27.3599C28.0799 10.3751 28.6666 9.78843 28.6666 9.06843V9.0151C28.6666 8.2951 28.0799 7.70843 27.3599 7.70843ZM20.6666 13.0551V11.7084H19.3199C18.6133 11.7084 17.9466 11.4284 17.4399 10.9351C16.9466 10.4284 16.6666 9.76177 16.6666 9.0151C16.6666 8.5351 16.7999 8.0951 17.0266 7.70843H5.99992C4.53325 7.70843 3.33325 8.90843 3.33325 10.3751V26.3751C3.33325 27.8418 4.53325 29.0418 5.99992 29.0418H21.9999C23.4666 29.0418 24.6666 27.8418 24.6666 26.3751V15.3351C24.2666 15.5618 23.8132 15.7084 23.3066 15.7084C21.8533 15.6951 20.6666 14.5084 20.6666 13.0551ZM20.6133 26.3751H7.33325C6.78659 26.3751 6.46658 25.7484 6.79992 25.3084L9.43992 21.8018C9.71992 21.4284 10.2666 21.4551 10.5333 21.8284L12.6666 25.0418L16.1466 20.4018C16.4133 20.0551 16.9333 20.0418 17.1999 20.3884L21.1333 25.2951C21.4799 25.7351 21.1733 26.3751 20.6133 26.3751Z" fill="#262626"/>
</g>
</svg>
