<svg width="24" height="24" viewBox="0 0 24 24" fill="none" xmlns="http://www.w3.org/2000/svg">
<path d="M10.2277 17.7684C10.6463 17.3499 10.6283 16.6659 10.1882 16.2699L6.77229 13.1956C6.49982 12.9504 6.67324 12.4984 7.03981 12.4983L19.501 12.4964C20.0536 12.4963 20.5015 12.0481 20.5012 11.4954C20.5009 10.9431 20.053 10.4956 19.5007 10.4956L7.04075 10.497C6.67412 10.497 6.50061 10.0449 6.77315 9.79961L10.1909 6.72416C10.6308 6.32833 10.6488 5.64457 10.2304 5.22613C9.82707 4.82284 9.17322 4.8228 8.76987 5.22603L3.48632 10.5081C2.93946 11.0548 2.9394 11.9414 3.48619 12.4881L8.76649 17.7684C9.16998 18.1719 9.82417 18.1719 10.2277 17.7684Z" fill="#434343"/>
</svg>
