<svg width="20" height="20" viewBox="0 0 20 20" fill="none" xmlns="http://www.w3.org/2000/svg">
<g id="arrow">
<path id="Vector" d="M11.4753 4.35898C11.1265 4.7078 11.1415 5.27781 11.5082 5.6078L14.2257 8.05345C14.4982 8.29867 14.3247 8.75072 13.9582 8.75078L3.74757 8.75234C3.28701 8.75242 2.91376 9.12594 2.91404 9.5865C2.91431 10.0468 3.28753 10.4197 3.74778 10.4197L13.9573 10.4186C14.3239 10.4185 14.4974 10.8707 14.2249 11.1159L11.506 13.5626C11.1394 13.8924 11.1244 14.4622 11.4731 14.8109C11.8091 15.147 12.354 15.147 12.6901 14.811L16.9281 10.5743C17.4749 10.0275 17.475 9.141 16.9282 8.59422L12.693 4.35898C12.3567 4.02274 11.8116 4.02274 11.4753 4.35898Z" fill="#434343"/>
</g>
</svg>
