<svg width="25" height="24" viewBox="0 0 25 24" fill="none" xmlns="http://www.w3.org/2000/svg">
<path d="M20.1602 4.16741C17.5202 2.36741 14.2602 3.20741 12.5002 5.26741C10.7402 3.20741 7.48021 2.35741 4.84021 4.16741C3.44021 5.12741 2.56021 6.74741 2.50021 8.45741C2.36021 12.3374 5.80021 15.4474 11.0502 20.2174L11.1502 20.3074C11.9102 20.9974 13.0802 20.9974 13.8402 20.2974L13.9502 20.1974C19.2002 15.4374 22.6302 12.3274 22.5002 8.44741C22.4402 6.74741 21.5602 5.12741 20.1602 4.16741ZM12.6002 18.7274L12.5002 18.8274L12.4002 18.7274C7.64021 14.4174 4.50021 11.5674 4.50021 8.67741C4.50021 6.67741 6.00021 5.17741 8.00021 5.17741C9.54021 5.17741 11.0402 6.16741 11.5702 7.53741H13.4402C13.9602 6.16741 15.4602 5.17741 17.0002 5.17741C19.0002 5.17741 20.5002 6.67741 20.5002 8.67741C20.5002 11.5674 17.3602 14.4174 12.6002 18.7274Z" fill="#606060"/>
</svg>
