<svg width="24" height="24" viewBox="0 0 24 24" fill="none" xmlns="http://www.w3.org/2000/svg">
<g id="north_east">
<path id="Vector" d="M8.99805 6C8.99805 6.55228 9.44576 7 9.99805 7L14.6277 7C14.985 7 15.163 7.43265 14.9093 7.68411L5.25504 17.2517C4.83859 17.6644 4.83708 18.3371 5.25166 18.7517C5.66494 19.1649 6.33503 19.1649 6.74828 18.7516L16.3152 9.18299C16.5672 8.93097 16.998 9.10943 16.998 9.46581V13.9999C16.998 14.5523 17.4458 15 17.9981 15C18.5504 15 18.9981 14.5523 18.9982 14.0001L18.9989 7.20023C18.999 5.98512 18.014 5 16.7989 5L9.99804 5C9.44576 5 8.99805 5.44772 8.99805 6Z" fill="#434343"/>
</g>
</svg>
