<svg width="24" height="24" viewBox="0 0 24 24" fill="none" xmlns="http://www.w3.org/2000/svg">
<path d="M11.9941 2.00195C10.0163 2.00195 8.08293 2.58844 6.43844 3.68726C4.79395 4.78607 3.51223 6.34786 2.75535 8.17512C1.99847 10.0024 1.80044 12.013 2.18629 13.9529C2.57214 15.8927 3.52455 17.6745 4.92308 19.073C6.3216 20.4715 8.10343 21.424 10.0432 21.8098C11.9831 22.1957 13.9937 21.9976 15.821 21.2407C17.6482 20.4839 19.21 19.2021 20.3088 17.5577C21.4077 15.9132 21.9941 13.9798 21.9941 12.002C21.9941 10.6887 21.7355 9.38837 21.2329 8.17512C20.7304 6.96186 19.9938 5.85947 19.0652 4.93089C18.1366 4.0023 17.0342 3.2657 15.821 2.76316C14.6077 2.26061 13.3074 2.00195 11.9941 2.00195ZM15.1741 17.154C15.1368 17.2474 15.0799 17.3317 15.0073 17.4014C14.9347 17.471 14.848 17.5242 14.7531 17.5576C14.6582 17.5909 14.5572 17.6036 14.457 17.5947C14.3568 17.5858 14.2597 17.5555 14.1721 17.506L11.4571 15.396L9.71515 17.004C9.67471 17.0338 9.62742 17.053 9.57762 17.0598C9.52783 17.0667 9.47711 17.0608 9.43015 17.043L9.76414 14.054L9.77415 14.063L9.78115 14.004C9.78115 14.004 14.6661 9.55595 14.8651 9.36695C15.0671 9.17795 15.0001 9.13695 15.0001 9.13695C15.0121 8.90695 14.6391 9.13695 14.6391 9.13695L8.16615 13.301L5.47115 12.383C5.47115 12.383 5.05715 12.235 5.01815 11.908C4.97715 11.584 5.48415 11.408 5.48415 11.408L16.2011 7.14995C16.2011 7.14995 17.0821 6.75795 17.0821 7.40795L15.1741 17.154Z" fill="#434343"/>
</svg>
