<svg width="122" height="32" viewBox="0 0 122 32" fill="none" xmlns="http://www.w3.org/2000/svg">
<g clip-path="url(#clip0_4986_14810)">
<rect width="122" height="32" rx="16" fill="#434343"/>
<path d="M21.2562 15.7705V16.2832C21.2562 17.0352 21.156 17.7119 20.9555 18.3135C20.7549 18.9105 20.4701 19.4186 20.101 19.8379C19.7318 20.2572 19.2921 20.5785 18.7816 20.8018C18.2712 21.0251 17.7038 21.1367 17.0795 21.1367C16.4643 21.1367 15.8992 21.0251 15.3842 20.8018C14.8738 20.5785 14.4317 20.2572 14.058 19.8379C13.6843 19.4186 13.3949 18.9105 13.1898 18.3135C12.9848 17.7119 12.8822 17.0352 12.8822 16.2832V15.7705C12.8822 15.014 12.9848 14.3372 13.1898 13.7402C13.3949 13.1432 13.682 12.6351 14.0512 12.2158C14.4203 11.792 14.8601 11.4684 15.3705 11.2451C15.8855 11.0218 16.4506 10.9102 17.0658 10.9102C17.6902 10.9102 18.2576 11.0218 18.768 11.2451C19.2784 11.4684 19.7182 11.792 20.0873 12.2158C20.461 12.6351 20.7481 13.1432 20.9486 13.7402C21.1537 14.3372 21.2562 15.014 21.2562 15.7705ZM19.3559 16.2832V15.7568C19.3559 15.2145 19.3057 14.7383 19.2055 14.3281C19.1052 13.9134 18.9571 13.5648 18.7611 13.2822C18.5652 12.9997 18.3236 12.7878 18.0365 12.6465C17.7494 12.5007 17.4258 12.4277 17.0658 12.4277C16.7012 12.4277 16.3777 12.5007 16.0951 12.6465C15.8171 12.7878 15.5801 12.9997 15.3842 13.2822C15.1882 13.5648 15.0378 13.9134 14.933 14.3281C14.8327 14.7383 14.7826 15.2145 14.7826 15.7568V16.2832C14.7826 16.821 14.8327 17.2972 14.933 17.7119C15.0378 18.1266 15.1882 18.4775 15.3842 18.7646C15.5847 19.0472 15.8262 19.2614 16.1088 19.4072C16.3913 19.5531 16.7149 19.626 17.0795 19.626C17.4441 19.626 17.7676 19.5531 18.0502 19.4072C18.3327 19.2614 18.5697 19.0472 18.7611 18.7646C18.9571 18.4775 19.1052 18.1266 19.2055 17.7119C19.3057 17.2972 19.3559 16.821 19.3559 16.2832ZM27.8641 16.6387V18.0537H24.0701V16.6387H27.8641ZM24.6375 13.6035V21H22.826V13.6035H24.6375ZM29.1287 13.6035V21H27.3104V13.6035H29.1287ZM30.548 17.377V17.2334C30.548 16.6911 30.6255 16.1921 30.7805 15.7363C30.9354 15.276 31.161 14.8773 31.4572 14.54C31.7534 14.2028 32.1158 13.9408 32.5441 13.7539C32.9725 13.5625 33.4602 13.4668 34.007 13.4668C34.563 13.4668 35.0552 13.5625 35.4836 13.7539C35.9165 13.9408 36.2811 14.2028 36.5773 14.54C36.8736 14.8773 37.0992 15.276 37.2541 15.7363C37.409 16.1921 37.4865 16.6911 37.4865 17.2334V17.377C37.4865 17.9147 37.409 18.4137 37.2541 18.874C37.0992 19.3298 36.8736 19.7285 36.5773 20.0703C36.2811 20.4076 35.9188 20.6696 35.4904 20.8564C35.062 21.0433 34.5721 21.1367 34.0207 21.1367C33.4738 21.1367 32.9839 21.0433 32.551 20.8564C32.118 20.6696 31.7534 20.4076 31.4572 20.0703C31.161 19.7285 30.9354 19.3298 30.7805 18.874C30.6255 18.4137 30.548 17.9147 30.548 17.377ZM32.3527 17.2334V17.377C32.3527 17.7005 32.3846 18.0036 32.4484 18.2861C32.5122 18.5687 32.6102 18.8171 32.7424 19.0312C32.8745 19.2454 33.0454 19.4141 33.2551 19.5371C33.4693 19.6556 33.7245 19.7148 34.0207 19.7148C34.3124 19.7148 34.563 19.6556 34.7727 19.5371C34.9823 19.4141 35.1532 19.2454 35.2854 19.0312C35.4221 18.8171 35.5223 18.5687 35.5861 18.2861C35.6499 18.0036 35.6818 17.7005 35.6818 17.377V17.2334C35.6818 16.9144 35.6499 16.6159 35.5861 16.3379C35.5223 16.0553 35.4221 15.807 35.2854 15.5928C35.1532 15.374 34.98 15.2031 34.7658 15.0801C34.5562 14.9525 34.3033 14.8887 34.007 14.8887C33.7154 14.8887 33.4647 14.9525 33.2551 15.0801C33.0454 15.2031 32.8745 15.374 32.7424 15.5928C32.6102 15.807 32.5122 16.0553 32.4484 16.3379C32.3846 16.6159 32.3527 16.9144 32.3527 17.2334ZM42.5357 17.8691H40.191L40.1773 16.6455H42.1051C42.3922 16.6455 42.6269 16.6159 42.8092 16.5566C42.9915 16.4974 43.1259 16.4085 43.2125 16.29C43.3036 16.1715 43.3492 16.028 43.3492 15.8594C43.3492 15.7135 43.3219 15.5882 43.2672 15.4834C43.2125 15.374 43.1305 15.2852 43.0211 15.2168C42.9163 15.1484 42.7818 15.0983 42.6178 15.0664C42.4583 15.0299 42.2714 15.0117 42.0572 15.0117H40.8336V21H39.0221V13.6035H42.0572C42.5357 13.6035 42.9664 13.6468 43.3492 13.7334C43.732 13.8154 44.0579 13.9408 44.3268 14.1094C44.5956 14.278 44.8007 14.4922 44.942 14.752C45.0878 15.0072 45.1607 15.3079 45.1607 15.6543C45.1607 15.8822 45.1106 16.0964 45.0103 16.2969C44.9101 16.4974 44.762 16.6751 44.566 16.8301C44.37 16.985 44.1285 17.1126 43.8414 17.2129C43.5543 17.3086 43.2262 17.3678 42.857 17.3906L42.5357 17.8691ZM42.5357 21H39.7057L40.3756 19.5918H42.5357C42.8001 19.5918 43.0188 19.5599 43.192 19.4961C43.3652 19.4277 43.4928 19.3298 43.5748 19.2021C43.6614 19.0745 43.7047 18.9196 43.7047 18.7373C43.7047 18.5596 43.6637 18.4069 43.5816 18.2793C43.5042 18.1471 43.3788 18.0469 43.2057 17.9785C43.037 17.9056 42.8137 17.8691 42.5357 17.8691H40.6695L40.6832 16.6455H42.8502L43.3287 17.1309C43.8209 17.1628 44.2288 17.263 44.5523 17.4316C44.8759 17.5957 45.1174 17.8053 45.277 18.0605C45.4365 18.3112 45.5162 18.5869 45.5162 18.8877C45.5162 19.2386 45.4501 19.5462 45.318 19.8105C45.1858 20.0749 44.9921 20.2959 44.7369 20.4736C44.4817 20.6468 44.1695 20.779 43.8004 20.8701C43.4312 20.9567 43.0097 21 42.5357 21ZM51.8984 13.6035V15.0322H48.2754V13.6035H51.8984ZM53.2588 13.6035V21H51.4541V13.6035H53.2588ZM47.8242 13.6035H49.6084L49.4102 17.2949C49.3783 17.8372 49.3213 18.3135 49.2393 18.7236C49.1572 19.1292 49.0479 19.4779 48.9111 19.7695C48.7744 20.0566 48.6081 20.2913 48.4121 20.4736C48.2161 20.6559 47.9883 20.7904 47.7285 20.877C47.4733 20.959 47.1862 21 46.8672 21H46.3135L46.293 19.5439L46.5527 19.5234C46.7122 19.5098 46.849 19.4665 46.9629 19.3936C47.0814 19.3206 47.1816 19.2158 47.2637 19.0791C47.3503 18.9424 47.4209 18.7669 47.4756 18.5527C47.5348 18.334 47.5804 18.0788 47.6123 17.7871C47.6488 17.4909 47.6738 17.1491 47.6875 16.7617L47.8242 13.6035ZM58.3354 21.1367C57.7748 21.1367 57.2712 21.0456 56.8246 20.8633C56.378 20.681 55.9975 20.4281 55.683 20.1045C55.3731 19.7764 55.1339 19.3958 54.9652 18.9629C54.8012 18.5254 54.7191 18.056 54.7191 17.5547V17.2812C54.7191 16.7116 54.8012 16.1943 54.9652 15.7295C55.1293 15.2601 55.3617 14.8568 55.6625 14.5195C55.9633 14.1823 56.3233 13.9225 56.7426 13.7402C57.1618 13.5579 57.6244 13.4668 58.1303 13.4668C58.6544 13.4668 59.1169 13.5557 59.518 13.7334C59.919 13.9066 60.254 14.1527 60.5229 14.4717C60.7917 14.7907 60.9945 15.1735 61.1312 15.6201C61.268 16.0622 61.3363 16.5521 61.3363 17.0898V17.8486H55.5395V16.6045H59.559V16.4678C59.5499 16.1807 59.4952 15.9186 59.3949 15.6816C59.2947 15.4401 59.1397 15.2487 58.9301 15.1074C58.7204 14.9616 58.4493 14.8887 58.1166 14.8887C57.8477 14.8887 57.613 14.9479 57.4125 15.0664C57.2165 15.1803 57.0525 15.3444 56.9203 15.5586C56.7927 15.7682 56.697 16.0189 56.6332 16.3105C56.5694 16.6022 56.5375 16.9258 56.5375 17.2812V17.5547C56.5375 17.8646 56.5785 18.1517 56.6605 18.416C56.7471 18.6803 56.8725 18.9105 57.0365 19.1064C57.2051 19.2979 57.4057 19.4482 57.6381 19.5576C57.8751 19.6624 58.1439 19.7148 58.4447 19.7148C58.823 19.7148 59.1648 19.6419 59.4701 19.4961C59.78 19.3457 60.0489 19.1247 60.2768 18.833L61.1859 19.7764C61.031 20.0042 60.8214 20.223 60.557 20.4326C60.2973 20.6423 59.9828 20.8132 59.6137 20.9453C59.2445 21.0729 58.8184 21.1367 58.3354 21.1367ZM67.698 16.6387V18.0537H63.9041V16.6387H67.698ZM64.4715 13.6035V21H62.66V13.6035H64.4715ZM68.9627 13.6035V21H67.1443V13.6035H68.9627ZM75.7551 16.6387V18.0537H71.9611V16.6387H75.7551ZM72.5285 13.6035V21H70.717V13.6035H72.5285ZM77.0197 13.6035V21H75.2014V13.6035H77.0197ZM80.3326 17.3496H82.1852L80.107 21H78.2545L80.3326 17.3496ZM81.5904 13.6035H84.8033V21H82.9986V15.0117H81.5904C81.3033 15.0117 81.0641 15.0641 80.8727 15.1689C80.6858 15.2738 80.5468 15.4082 80.4557 15.5723C80.3645 15.7318 80.3189 15.8958 80.3189 16.0645C80.3189 16.2285 80.3622 16.388 80.4488 16.543C80.5354 16.6979 80.6676 16.8255 80.8453 16.9258C81.0276 17.026 81.2555 17.0762 81.5289 17.0762H83.6412V18.3477H81.5289C81.0595 18.3477 80.638 18.2907 80.2643 18.1768C79.8951 18.0583 79.5784 17.8942 79.3141 17.6846C79.0543 17.4749 78.8561 17.2288 78.7193 16.9463C78.5826 16.6592 78.5143 16.347 78.5143 16.0098C78.5143 15.6634 78.5826 15.3444 78.7193 15.0527C78.8606 14.7611 79.0634 14.5059 79.3277 14.2871C79.5966 14.0684 79.9202 13.8997 80.2984 13.7812C80.6813 13.6628 81.1119 13.6035 81.5904 13.6035Z" fill="#FEFFFF"/>
<path d="M99.9987 12.0002C99.9987 12.3684 100.297 12.6668 100.665 12.6668H103.428C103.785 12.6668 103.963 13.0995 103.709 13.3509L97.5034 19.5013C97.2257 19.7765 97.2247 20.2249 97.5011 20.5013C97.7766 20.7768 98.2234 20.7768 98.4989 20.5012L104.649 14.3498C104.901 14.0978 105.332 14.2763 105.332 14.6326V17.3335C105.332 17.7017 105.631 18.0002 105.999 18.0002C106.367 18.0002 106.665 17.7017 106.665 17.3335L106.666 13.5337C106.666 12.3186 105.681 11.3335 104.466 11.3335H100.665C100.297 11.3335 99.9987 11.632 99.9987 12.0002Z" fill="#FEFFFF"/>
</g>
<defs>
<clipPath id="clip0_4986_14810">
<rect width="122" height="32" rx="16" fill="white"/>
</clipPath>
</defs>
</svg>
