<svg width="16" height="12" viewBox="0 0 16 12" fill="none" xmlns="http://www.w3.org/2000/svg">
<path d="M9.47532 0.359959C9.12649 0.708781 9.14149 1.27878 9.50817 1.60878L12.2257 4.05443C12.4982 4.29964 12.3247 4.7517 11.9582 4.75175L1.74757 4.75332C1.28701 4.75339 0.913764 5.12691 0.914038 5.58747C0.914313 6.04773 1.28753 6.42068 1.74778 6.42063L11.9573 6.41955C12.3239 6.41951 12.4974 6.87165 12.2249 7.11689L9.50596 9.56353C9.13939 9.89339 9.12438 10.4632 9.47307 10.8119C9.80915 11.148 10.354 11.148 10.6901 10.812L14.9281 6.57523C15.4749 6.02852 15.475 5.14198 14.9282 4.59519L10.693 0.359959C10.3567 0.0237143 9.81156 0.0237144 9.47532 0.359959Z" fill="#434343"/>
</svg>
